<svg width="80" height="80" viewBox="0 0 80 80" fill="none" xmlns="http://www.w3.org/2000/svg">
<path fill-rule="evenodd" clip-rule="evenodd" d="M24.058 49.7445C21.7936 51.5296 19.1208 52.568 16.2177 52.568C9.54934 52.568 3.5293 47.063 3.5293 40.2889C3.5293 36.8167 4.83457 33.4072 7.3119 30.9569C9.54063 28.7638 12.6571 27.3784 15.7914 27.3784C18.8457 27.3784 21.7492 28.2309 24.0842 30.2198C26.2772 28.3994 29.1277 27.3963 31.9868 27.3963C34.9261 27.3963 37.7491 28.3816 40.0044 30.2642C42.2506 28.3106 45.1097 27.4229 48.0577 27.4229C50.9434 27.4229 53.7042 28.453 55.9425 30.2555C58.3393 28.3816 61.2163 27.432 64.2705 27.432C66.9965 27.432 69.7664 28.5596 71.8619 30.282C74.7476 32.644 76.4704 36.2577 76.4704 39.9867C76.4704 46.9128 70.9032 52.6216 63.9514 52.6216C61.003 52.6216 58.1708 51.6981 55.9338 49.7624C53.7134 51.5118 50.926 52.6124 48.0756 52.6124C45.1006 52.6124 42.2506 51.7068 39.9779 49.7533C37.696 51.547 34.8991 52.5854 31.9868 52.5854C29.0837 52.5859 26.2511 51.6715 24.058 49.7445Z" fill="white"/>
<path fill-rule="evenodd" clip-rule="evenodd" d="M21.2877 46.5753C20.1688 44.7102 19.4586 42.5441 19.4586 40.3594C19.4586 37.8468 20.036 35.5293 21.3143 33.3628C19.6803 32.2351 17.7981 31.5603 15.7914 31.5603C11.1742 31.5603 7.7207 35.8401 7.7207 40.2619C7.7207 44.772 11.8407 48.3592 16.2181 48.3592C18.0737 48.3596 19.8226 47.6851 21.2877 46.5753ZM24.0489 42.6325C24.3863 41.7539 24.5017 40.8305 24.5017 39.8896C24.5017 39.0014 24.3328 38.1311 24.0668 37.2878C23.8003 38.1137 23.6405 38.9657 23.6405 39.8361C23.6405 40.7948 23.7563 41.7269 24.0489 42.6325ZM26.8193 46.5753C28.4532 47.8628 30.362 48.3683 32.4309 48.3683C34.2068 48.3683 35.8404 47.6316 37.2345 46.5841C35.9466 44.4707 35.3876 42.1623 35.3876 39.6846C35.3876 37.4737 36.1513 35.2894 37.2611 33.3985C35.725 32.2887 33.9138 31.5781 31.996 31.5781C30.0781 31.5781 28.3291 32.2264 26.8371 33.3893C28.1777 35.5645 28.6749 37.9709 28.6749 40.5101C28.6749 42.6234 27.9203 44.799 26.8193 46.5753ZM39.9691 42.6504C40.2534 41.7896 40.4398 40.8483 40.4398 39.9423C40.4398 39.0193 40.297 38.1938 39.9779 37.3322C39.7019 38.1777 39.561 39.0615 39.5603 39.951C39.5607 40.8832 39.6139 41.7805 39.9691 42.6504ZM42.7129 46.6019C44.3643 47.8358 46.2374 48.404 48.2893 48.404C50.0465 48.404 51.7959 47.6673 53.1634 46.5841C52.0179 44.6662 51.317 42.4728 51.317 40.2266C51.317 37.8028 51.947 35.5031 53.1904 33.4342C51.6901 32.2713 49.8428 31.6051 47.9423 31.6051C46.0419 31.6051 44.2494 32.2796 42.7486 33.425C44.0626 35.5828 44.5951 37.758 44.5951 40.3067C44.5951 42.5263 43.8671 44.7189 42.7129 46.6019ZM55.9163 42.6591C56.1996 41.7751 56.3434 40.8523 56.3426 39.924C56.3426 39.0454 56.1911 38.1842 55.9251 37.3496C55.6673 38.1842 55.4897 39.0097 55.4897 39.8892C55.4897 40.8392 55.6229 41.7539 55.9163 42.6591ZM58.7037 46.6189C60.204 47.7644 62.0335 48.4397 63.9248 48.4397C68.5947 48.4397 72.3064 44.6218 72.3064 39.9776C72.3064 35.4226 68.3731 31.6051 63.8443 31.6051C61.9708 31.6051 60.1862 32.2974 58.7033 33.4163C59.8666 35.3964 60.5589 37.6517 60.5589 39.9597C60.5593 42.3221 59.7778 44.5413 58.7037 46.6189Z" fill="black"/>
</svg>
