<svg width="60" height="60" viewBox="0 0 60 60" fill="none" xmlns="http://www.w3.org/2000/svg">
<g clip-path="url(#clip0_189_52)">
<path d="M29.9999 60C38.0132 60 45.5466 56.8793 51.2131 51.2131C56.8793 45.5468 60 38.0132 60 29.9999C60 21.9868 56.8793 14.4532 51.2131 8.78691C45.5468 3.12058 38.0132 0 29.9999 0C13.4579 0 0 13.4579 0 29.9999C0 38.0132 3.12058 45.5468 8.78691 51.2131C14.4532 56.8793 21.9868 60 29.9999 60Z" fill="white"/>
<path d="M1.03711 30C1.03711 22.2641 4.04973 14.9911 9.51999 9.52087C14.9902 4.05049 22.2631 1.03799 29.9991 1.03799C37.735 1.03799 45.008 4.05049 50.4781 9.52087C55.9484 14.9911 58.961 22.264 58.961 30C58.961 45.9697 45.9687 58.962 29.9991 58.962C22.2631 58.962 14.9902 55.9494 9.51999 50.4791C4.04973 45.0088 1.03711 37.7359 1.03711 30Z" fill="#B7B7B7"/>
<path d="M30.0008 2.2316C14.6649 2.2316 2.23242 14.6641 2.23242 29.9999C2.23242 45.3358 14.6649 57.7684 30.0008 57.7684C45.3366 57.7684 57.7691 45.3358 57.7691 29.9999C57.7691 14.6641 45.3366 2.2316 30.0008 2.2316Z" fill="white"/>
<path d="M29.9992 47.7374C20.2032 47.7374 12.2617 39.7961 12.2617 29.9999C12.2617 20.2039 20.2032 12.2624 29.9992 12.2624C39.7952 12.2624 47.7367 20.2039 47.7367 29.9999C47.7367 39.7961 39.7954 47.7374 29.9992 47.7374Z" fill="#B7B7B7"/>
<path d="M13.4043 29.9999H30.0007V13.4036C20.8349 13.4036 13.4043 20.8343 13.4043 29.9999ZM30.0007 29.9999V46.5964C39.1665 46.5964 46.597 39.1659 46.597 29.9999H30.0007Z" fill="white"/>
<path d="M16.9643 13.0763C16.3763 12.5048 15.4675 12.3326 14.6142 12.8616C14.7772 12.4392 14.7107 12.0082 14.6241 11.7704C14.2565 11.1001 14.1282 11.0162 13.8253 10.762C12.8446 9.93911 11.8125 10.6417 11.0743 11.5214L7.50781 15.7717L13.1143 20.4762L16.8755 15.994C17.7348 14.9698 17.8677 13.9544 16.9643 13.0763ZM30.9283 11.0567L32.8537 5.95325V11.0567H34.317V3.74765H32.1184L30.1186 8.9808H30.1393L28.1395 3.74765H25.941V11.0567H27.4042V5.95325L29.3297 11.0567H30.9283ZM50.6024 14.0974L47.8473 17.998L52.1184 15.9702L53.2493 17.3668L46.5267 20.6255L45.1995 18.9734L47.8437 15.107L47.8281 15.0876L43.4964 16.8702L42.1562 15.2285L46.7416 9.33032L47.8725 10.7269L45.001 14.4831L49.3891 12.5992L50.6024 14.0974Z" fill="#B7B7B7"/>
<path d="M11.8551 12.5733C12.1032 12.2775 12.6641 12.2896 13.0248 12.5922C13.4214 12.925 13.4224 13.3968 13.156 13.7141L11.0381 16.2382L9.71289 15.1262L11.8551 12.5733ZM15.6234 15.5509L13.3904 18.2121L11.9901 17.0371L14.2412 14.3543C14.4954 14.0514 15.0622 13.9631 15.4445 14.284C15.8771 14.6469 15.92 15.1975 15.6234 15.5509Z" fill="white"/>
</g>
<defs>
<clipPath id="clip0_189_52">
<rect width="60" height="60" fill="white"/>
</clipPath>
</defs>
</svg>
