<svg width="52" height="42" viewBox="0 0 52 42" fill="none" xmlns="http://www.w3.org/2000/svg">
<path fill-rule="evenodd" clip-rule="evenodd" d="M23.2607 0.574986C23.3078 0.570879 23.3534 0.562665 23.4033 0.55582C24.8494 0.383324 26.3134 0.202613 27.8052 0.0164275C27.8536 0.0123205 27.9049 0.00410704 27.9588 0C28.4791 4.80113 37.968 3.6142 40.5516 2.22465C40.5945 2.24929 40.6347 2.27256 40.6748 2.29447C41.887 3.01183 43.1366 3.74836 44.418 4.50269C44.4623 4.52733 44.5052 4.55197 44.5495 4.57662C40.1545 9.08341 46.0662 14.6211 51.0922 15.1057C51.0936 15.1577 51.0964 15.2084 51.0922 15.2577C51.0978 16.7827 51.1144 18.3407 51.1268 19.9274C51.1296 19.9835 51.1324 20.0383 51.1282 20.0889C45.0463 20.9623 39.2259 28.1305 43.4161 33.623C43.3622 33.6641 43.3068 33.7051 43.2542 33.7462C41.595 34.9564 39.9331 36.1625 38.2738 37.3604C38.2143 37.4056 38.1604 37.4467 38.1064 37.4877C32.9309 33.9173 23.1708 36.1694 20.9871 42C20.9234 41.9959 20.857 41.989 20.7906 41.9808C18.91 41.7659 17.0681 41.5551 15.2581 41.3388C15.1999 41.336 15.1377 41.3305 15.0809 41.321C15.1252 35.8162 8.16734 32.2252 3.43881 34.6484C3.41251 34.6101 3.38622 34.5717 3.35993 34.5348C2.6182 33.4012 1.89584 32.2909 1.19563 31.2039C1.1721 31.1697 1.14858 31.1355 1.12505 31.0999C3.90654 28.3496 4.57908 21.3772 0 20.5503C0.0124544 20.5092 0.0249116 20.4681 0.037366 20.4271C0.430372 19.2319 0.81646 18.0532 1.19701 16.8895C1.21085 16.8526 1.22607 16.8156 1.23714 16.7745C4.3037 16.1653 9.90266 11.0151 8.08985 7.78422C8.12998 7.75957 8.16596 7.73219 8.20194 7.70344C9.31177 6.89162 10.4216 6.07295 11.5314 5.25565C11.5674 5.22827 11.6048 5.19952 11.6449 5.1694C14.8498 6.84918 21.8658 3.65938 23.258 0.574986H23.2607ZM25.1593 5.10916C21.1172 5.51165 17.0017 7.03399 13.5795 9.57899C11.8677 10.8494 10.4548 12.2855 9.3602 13.7997C8.25452 15.3302 7.44775 16.9621 6.98832 18.6186C6.03071 22.0411 6.50122 25.6457 8.79837 28.6261C10.0134 30.2059 11.6255 31.4668 13.5158 32.3745C15.4739 33.315 17.7254 33.8735 20.1305 34.0214C25.1441 34.3404 30.649 32.8687 35.1824 29.5269C37.4477 27.8512 39.1982 25.9018 40.3911 23.8428C41.5687 21.8111 42.1928 19.6837 42.2828 17.6288C42.4585 13.6847 40.643 10.0746 37.0312 7.67743C35.3332 6.54937 33.3765 5.7923 31.3326 5.3816C29.3496 4.98185 27.2475 4.89833 25.1607 5.11053L25.1593 5.10916Z" fill="url(#paint0_linear_189_7)"/>
<path fill-rule="evenodd" clip-rule="evenodd" d="M15.5942 10.807C17.0722 9.75013 18.6705 8.90271 20.3103 8.27707C21.9751 7.64185 23.7118 7.21198 25.4319 7.02032C27.2004 6.82181 28.9731 6.86151 30.642 7.16817C31.6992 7.36257 32.7274 7.66238 33.6933 8.07719C33.5231 8.15386 33.3473 8.24284 33.1688 8.34415L32.4409 8.73706C28.6064 7.50221 24.0729 8.11142 20.2702 9.93495C16.7553 11.6216 13.8645 14.3459 12.7256 17.6124C11.9036 19.9192 12.0267 22.3492 13.4023 24.3575C14.1288 25.4226 15.139 26.2728 16.3526 26.8847C17.6091 27.5186 19.0843 27.8951 20.6812 27.995C24.0107 28.2099 27.765 27.2174 30.9686 24.9654C32.5696 23.8359 33.8428 22.5217 34.7492 21.1335C35.0536 20.6667 35.3151 20.1943 35.5366 19.7166H27.9975L32.3621 16.1763H39.8721C39.9025 16.6075 39.9025 17.0442 39.8749 17.4878C39.7545 19.2798 39.1525 21.1403 38.0593 22.9255C36.9453 24.7422 35.3428 26.4631 33.2754 27.9334C31.2093 29.4064 28.9136 30.4551 26.5887 31.089C24.3096 31.7091 22.0194 31.9158 19.8813 31.7365C17.8153 31.5626 15.9084 31.0328 14.2893 30.1745C12.745 29.3544 11.4566 28.2346 10.535 26.8546C9.65072 25.5335 9.18022 24.0906 9.05982 22.6257C8.94496 21.2088 9.15669 19.7494 9.65348 18.3297C10.1351 16.9498 10.8948 15.5876 11.8939 14.3144C12.8792 13.059 14.1177 11.868 15.5929 10.8097L15.5942 10.807Z" fill="white"/>
<path fill-rule="evenodd" clip-rule="evenodd" d="M36.0301 9.23261C36.7621 8.80548 36.9475 8.97387 36.3677 9.46808L30.1751 14.7497L24.2855 19.774C22.0949 21.6427 19.6013 18.9704 21.9054 17.4741L36.0287 9.23261H36.0301Z" fill="url(#paint1_linear_189_7)"/>
<path fill-rule="evenodd" clip-rule="evenodd" d="M18.7491 5.48562C20.7348 4.74088 22.8161 4.24803 24.914 4.03857C27.0714 3.82227 29.2814 3.89757 31.4083 4.32607C33.5657 4.76004 35.658 5.56503 37.4902 6.78071C41.2362 9.26684 43.4157 13.1809 43.2165 17.6603C43.1113 20.0232 42.3696 22.3108 41.1836 24.3561C39.8136 26.7177 37.8846 28.7397 35.6857 30.3634C31.209 33.6682 25.5104 35.4191 19.9239 35.0673C17.5064 34.9153 15.093 34.365 12.9079 33.3149C10.9152 32.3566 9.15222 31.0027 7.80576 29.2545C5.35362 26.0715 4.74751 22.1397 5.81444 18.3201C6.33199 16.4679 7.2204 14.7265 8.34822 13.1658C9.57983 11.4627 11.1048 9.97052 12.7958 8.71376C14.3125 7.58706 15.9759 6.63833 17.7292 5.89222C15.5926 6.66161 13.3466 6.93404 11.6597 6.37001C10.8543 6.96416 10.0489 7.55557 9.25048 8.14151C9.26293 8.19079 9.27539 8.24145 9.28646 8.2921C9.80954 10.6646 8.04793 13.1384 6.43439 14.7142C5.28581 15.8367 3.57818 17.1099 1.93973 17.637C1.69894 18.3749 1.45815 19.1101 1.21875 19.8397C1.82487 20.104 2.36733 20.4873 2.82261 20.9966C5.14605 23.5881 4.42646 28.4659 2.3272 31.1793C2.78663 31.8898 3.24744 32.599 3.7041 33.2999C8.7869 31.449 15.3047 34.9454 15.9634 40.3544C17.368 40.5201 18.7726 40.683 20.1785 40.8432C23.0472 35.0563 32.4046 33.0398 37.9206 36.1858C39.2269 35.2412 40.5305 34.2952 41.823 33.3547C38.4257 27.5446 43.8683 20.6461 49.91 19.2004C49.9017 18.1339 49.8907 17.0689 49.8851 16.0024C48.702 15.7628 47.5465 15.3028 46.5127 14.7128C42.8055 12.5949 40.3132 8.50156 42.7944 4.84903C41.9766 4.36714 41.1615 3.88661 40.3589 3.41157C38.6637 4.12345 36.2116 4.44928 34.5288 4.49309C31.7598 4.56428 28.0248 3.97149 26.9939 1.1568C25.9311 1.28822 24.8683 1.41965 23.8056 1.54697C22.8562 3.08574 20.9175 4.52594 18.7463 5.48562H18.7491Z" fill="url(#paint2_linear_189_7)"/>
<defs>
<linearGradient id="paint0_linear_189_7" x1="25.5676" y1="42" x2="25.5676" y2="0" gradientUnits="userSpaceOnUse">
<stop stop-color="#F76700"/>
<stop offset="1" stop-color="#FFCC00"/>
</linearGradient>
<linearGradient id="paint1_linear_189_7" x1="29.5635" y1="17.2797" x2="28.5643" y2="12.6493" gradientUnits="userSpaceOnUse">
<stop stop-color="#F77D00"/>
<stop offset="1" stop-color="#FFCC00"/>
</linearGradient>
<linearGradient id="paint2_linear_189_7" x1="25.5672" y1="40.8432" x2="25.5672" y2="1.1568" gradientUnits="userSpaceOnUse">
<stop stop-color="#F87600"/>
<stop offset="0.51" stop-color="#FDC25D"/>
<stop offset="1" stop-color="#FFF1BF"/>
</linearGradient>
</defs>
</svg>
