<svg width="103" height="24" viewBox="0 0 103 24" fill="none" xmlns="http://www.w3.org/2000/svg">
<path fill-rule="evenodd" clip-rule="evenodd" d="M7.155 13.2654C9.3735 13.2654 11.1729 12.4533 12.4664 11.3981V5.95336H6.83993V8.40835H9.25066V9.87819C8.74336 10.207 8.11467 10.38 7.29375 10.38C5.35418 10.38 3.97394 8.98027 3.97394 7.02715V6.99283C3.97394 5.14266 5.33684 3.67425 7.10153 3.67425C8.30689 3.67425 9.18128 4.08889 10.0542 4.81523L12.0458 2.44747C10.7523 1.34079 9.23331 0.684509 7.08418 0.684509C3.29322 0.684509 0.498047 3.44976 0.498047 6.97567V7.00999C0.498047 10.6746 3.34525 13.2668 7.155 13.2668V13.2654Z" fill="white"/>
<path fill-rule="evenodd" clip-rule="evenodd" d="M14.3535 13.0238H24.2782V10.1713H17.708V8.25252H23.5787V5.6088H17.708V3.77578H24.1901V0.924744H14.3535V13.0238Z" fill="white"/>
<path fill-rule="evenodd" clip-rule="evenodd" d="M25.0288 13.0238H28.5928L29.4658 10.8634H34.1832L35.0735 13.0238H38.7069L33.501 0.837524H30.2332L25.0273 13.0238H25.0288ZM30.463 8.25252L31.8433 4.81239L33.2062 8.25252H30.463Z" fill="white"/>
<path fill-rule="evenodd" clip-rule="evenodd" d="M39.8984 13.0238H43.2876V9.35916H44.7734L47.2376 13.0238H51.1514L48.2334 8.80581C49.7538 8.16669 50.7496 6.93848 50.7496 5.08974V5.05542C50.7496 3.86296 50.3825 2.9293 49.6656 2.23727C48.8447 1.40798 47.5512 0.923279 45.6824 0.923279H39.8999V13.0223L39.8984 13.0238ZM43.2876 6.73259V3.82864H45.5061C46.6421 3.82864 47.3402 4.31192 47.3402 5.26275V5.29706C47.3402 6.17926 46.6768 6.73117 45.5235 6.73117H43.2876V6.73259Z" fill="white"/>
<path fill-rule="evenodd" clip-rule="evenodd" d="M52.4609 13.0238H55.8501V8.42553H60.2004V13.0238H63.591V0.924744H60.2004V5.45296H55.8501V0.924744H52.4609V13.0238Z" fill="white"/>
<path fill-rule="evenodd" clip-rule="evenodd" d="M65.7559 13.0238H75.6792V10.1713H69.1104V8.25252H74.9811V5.6088H69.1104V3.77578H75.5924V0.924744H65.7559V13.0238Z" fill="white"/>
<path fill-rule="evenodd" clip-rule="evenodd" d="M76.4316 13.0238H79.9957L80.8686 10.8634H85.586L86.4778 13.0238H90.1126L84.9053 0.837524H81.6375L76.4316 13.0238ZM81.8659 8.25252L83.2461 4.81239L84.609 8.25252H81.8659Z" fill="white"/>
<path fill-rule="evenodd" clip-rule="evenodd" d="M91.3008 13.0238H95.9488C100.351 13.0238 102.919 10.4316 102.919 6.93996V6.90564C102.919 3.41405 100.386 0.924744 96.0182 0.924744H91.3008V13.0238ZM94.69 10.0512V3.89732H96.0702C98.0965 3.89732 99.442 5.02115 99.442 6.95711V6.99144C99.442 8.94456 98.0965 10.0512 96.0702 10.0512H94.69Z" fill="white"/>
<path fill-rule="evenodd" clip-rule="evenodd" d="M32.3087 23.2298H30.1914V16.1794H33.4043L35.9451 20.5818L38.5307 16.1794H41.7002V23.2298H39.5929V18.2069L36.6504 23.2298H35.2282L32.3087 18.2069V23.2298Z" fill="white"/>
<path fill-rule="evenodd" clip-rule="evenodd" d="M49.9084 18.7201V18.7016C49.9084 18.3784 49.8087 18.1568 49.6107 18.0367C49.4127 17.9166 48.9675 17.858 48.2709 17.858H47.0034C46.2605 17.858 45.785 17.9466 45.5754 18.1225C45.3659 18.2984 45.2618 18.6715 45.2618 19.242V20.2214C45.2618 20.7305 45.3789 21.0779 45.6159 21.2666C45.8515 21.4554 46.3169 21.5512 47.0135 21.5512H48.2709C48.8967 21.5512 49.3274 21.494 49.563 21.3825C49.8 21.2709 49.9171 21.0765 49.9171 20.8034C49.9171 20.7648 49.9113 20.7019 49.8968 20.6146V20.5903H47.3372V19.1648H52.1616V21.4797C52.1616 22.1445 51.913 22.6164 51.4158 22.8952C50.9201 23.1754 50.0558 23.3156 48.8244 23.3156H46.4036C45.6607 23.3156 45.1115 23.277 44.756 23.1969C44.4033 23.1182 44.1027 22.9838 43.857 22.7922C43.5694 22.5692 43.3598 22.2932 43.2298 21.9658C43.0997 21.6384 43.0332 21.2252 43.0332 20.7262V18.8031C43.0332 17.7922 43.2746 17.0873 43.7587 16.6884C44.2429 16.2895 45.1202 16.0893 46.392 16.0893H48.823C49.6092 16.0893 50.1873 16.1236 50.5617 16.1922C50.9345 16.2623 51.2279 16.3796 51.4418 16.5426C51.6644 16.7141 51.8292 16.9429 51.9376 17.2317C52.0445 17.5205 52.098 17.8837 52.098 18.3198C52.098 18.4227 52.0965 18.5042 52.0951 18.56C52.0951 18.6172 52.0922 18.6687 52.0893 18.7173H49.9069L49.9084 18.7201Z" fill="white"/>
<path fill-rule="evenodd" clip-rule="evenodd" d="M55.6017 23.2298H53.4844V16.1794H56.6987L59.2395 20.5818L61.8236 16.1794H64.9946V23.2298H62.8859V18.2069L59.9433 23.2298H58.5226L55.6017 18.2069V23.2298Z" fill="white"/>
<path fill-rule="evenodd" clip-rule="evenodd" d="M71.1216 23.2298H68.945V17.9052H65.9648V16.1794H74.1018V17.9052H71.1216V23.2298Z" fill="white"/>
<path fill-rule="evenodd" clip-rule="evenodd" d="M0.634766 19.7053L14.164 19.2792L27.6933 18.8546V19.7053V20.5546L14.164 20.1299L0.634766 19.7053Z" fill="white"/>
<path fill-rule="evenodd" clip-rule="evenodd" d="M102.92 19.7053L89.3906 19.2792L75.8613 18.8546V19.7053V20.5546L89.3906 20.1299L102.92 19.7053Z" fill="white"/>
</svg>
