<svg width="52" height="42" viewBox="0 0 52 42" fill="none" xmlns="http://www.w3.org/2000/svg">
<path fill-rule="evenodd" clip-rule="evenodd" d="M23.2607 0.574986C23.3078 0.570879 23.3534 0.562665 23.4033 0.55582C24.8494 0.383324 26.3134 0.202613 27.8052 0.0164275C27.8536 0.0123205 27.9049 0.00410704 27.9588 0C28.4791 4.80113 37.968 3.6142 40.5516 2.22465C40.5945 2.24929 40.6347 2.27256 40.6748 2.29447C41.887 3.01183 43.1366 3.74836 44.418 4.50269C44.4623 4.52733 44.5052 4.55197 44.5495 4.57662C40.1545 9.08341 46.0662 14.6211 51.0922 15.1057C51.0936 15.1577 51.0964 15.2084 51.0922 15.2577C51.0978 16.7827 51.1144 18.3407 51.1268 19.9274C51.1296 19.9835 51.1324 20.0383 51.1282 20.0889C45.0463 20.9624 39.2259 28.1305 43.4161 33.623C43.3622 33.6641 43.3068 33.7051 43.2542 33.7462C41.595 34.9564 39.9331 36.1625 38.2739 37.3604C38.2143 37.4056 38.1604 37.4467 38.1064 37.4877C32.9309 33.9173 23.1708 36.1694 20.9871 42C20.9234 41.9959 20.857 41.989 20.7906 41.9808C18.91 41.7659 17.0681 41.5551 15.2581 41.3388C15.1999 41.336 15.1377 41.3306 15.0809 41.321C15.1252 35.8162 8.16734 32.2252 3.43881 34.6484C3.41251 34.6101 3.38622 34.5717 3.35993 34.5348C2.6182 33.4012 1.89584 32.2909 1.19563 31.2039C1.1721 31.1697 1.14858 31.1355 1.12505 31.0999C3.90654 28.3496 4.57908 21.3772 0 20.5503C0.0124544 20.5092 0.0249116 20.4681 0.037366 20.4271C0.430372 19.2319 0.816461 18.0532 1.19701 16.8895C1.21085 16.8526 1.22607 16.8156 1.23714 16.7745C4.3037 16.1653 9.90266 11.0151 8.08985 7.78422C8.12998 7.75957 8.16596 7.73219 8.20194 7.70345C9.31177 6.89162 10.4216 6.07295 11.5314 5.25565C11.5674 5.22827 11.6048 5.19952 11.6449 5.1694C14.8498 6.84918 21.8658 3.65938 23.258 0.574986H23.2607ZM25.1593 5.10916C21.1172 5.51165 17.0017 7.03399 13.5795 9.57899C11.8677 10.8494 10.4548 12.2855 9.3602 13.7997C8.25452 15.3302 7.44775 16.9621 6.98832 18.6186C6.03071 22.0411 6.50122 25.6457 8.79837 28.6261C10.0134 30.2059 11.6255 31.4668 13.5158 32.3745C15.4739 33.315 17.7254 33.8735 20.1305 34.0214C25.1441 34.3404 30.649 32.8687 35.1824 29.5269C37.4477 27.8512 39.1982 25.9018 40.3911 23.8428C41.5687 21.8111 42.1928 19.6837 42.2828 17.6288C42.4585 13.6847 40.643 10.0746 37.0312 7.67743C35.3332 6.54937 33.3765 5.7923 31.3326 5.3816C29.3496 4.98185 27.2475 4.89833 25.1607 5.11053L25.1593 5.10916Z" fill="url(#paint0_linear_189_230)"/>
<path fill-rule="evenodd" clip-rule="evenodd" d="M15.5942 10.8072C17.0722 9.75031 18.6705 8.90289 20.3103 8.27725C21.9751 7.64203 23.7118 7.21216 25.4319 7.0205C27.2004 6.82199 28.9731 6.86169 30.642 7.16835C31.6992 7.36275 32.7274 7.66256 33.6933 8.07738C33.5231 8.15404 33.3473 8.24303 33.1688 8.34433L32.4409 8.73724C28.6064 7.50239 24.0729 8.1116 20.2702 9.93513C16.7553 11.6218 13.8645 14.3461 12.7256 17.6126C11.9036 19.9194 12.0267 22.3494 13.4023 24.3577C14.1288 25.4228 15.139 26.2729 16.3526 26.8849C17.6091 27.5188 19.0843 27.8952 20.6812 27.9952C24.0107 28.2101 27.765 27.2176 30.9686 24.9655C32.5696 23.8361 33.8428 22.5219 34.7492 21.1337C35.0536 20.6668 35.3151 20.1945 35.5366 19.7167H27.9975L32.3621 16.1765H39.8721C39.9025 16.6077 39.9025 17.0444 39.8749 17.488C39.7545 19.28 39.1525 21.1405 38.0593 22.9257C36.9453 24.7424 35.3428 26.4632 33.2754 27.9336C31.2093 29.4066 28.9136 30.4553 26.5887 31.0891C24.3096 31.7093 22.0194 31.916 19.8813 31.7367C17.8153 31.5628 15.9084 31.033 14.2893 30.1746C12.745 29.3546 11.4566 28.2347 10.535 26.8548C9.65072 25.5337 9.18022 24.0907 9.05982 22.6259C8.94496 21.209 9.15669 19.7496 9.65348 18.3299C10.1351 16.95 10.8948 15.5878 11.8939 14.3146C12.8792 13.0592 14.1177 11.8682 15.5929 10.8099L15.5942 10.8072Z" fill="white"/>
<path fill-rule="evenodd" clip-rule="evenodd" d="M36.0301 9.2328C36.7621 8.80566 36.9475 8.97405 36.3677 9.46827L30.1751 14.7499L24.2855 19.7742C22.0949 21.6429 19.6013 18.9706 21.9054 17.4743L36.0287 9.2328H36.0301Z" fill="url(#paint1_linear_189_230)"/>
<path fill-rule="evenodd" clip-rule="evenodd" d="M18.7491 5.48556C20.7348 4.74082 22.8161 4.24797 24.914 4.03851C27.0714 3.82221 29.2814 3.8975 31.4083 4.32601C33.5657 4.75998 35.658 5.56497 37.4902 6.78065C41.2362 9.26678 43.4157 13.1808 43.2165 17.6602C43.1113 20.0231 42.3696 22.3107 41.1836 24.3561C39.8136 26.7176 37.8846 28.7396 35.6857 30.3633C31.209 33.6681 25.5104 35.4191 19.9239 35.0672C17.5064 34.9153 15.093 34.3649 12.9079 33.3149C10.9152 32.3566 9.15222 31.0026 7.80576 29.2544C5.35362 26.0714 4.74751 22.1396 5.81444 18.3201C6.33199 16.4678 7.2204 14.7264 8.34822 13.1657C9.57983 11.4627 11.1048 9.97046 12.7958 8.7137C14.3125 7.587 15.9759 6.63827 17.7292 5.89216C15.5926 6.66155 13.3466 6.93398 11.6597 6.36995C10.8543 6.9641 10.0489 7.55551 9.25048 8.14145C9.26293 8.19073 9.27539 8.24139 9.28646 8.29204C9.80954 10.6645 8.04793 13.1384 6.43439 14.7141C5.28581 15.8367 3.57818 17.1099 1.93973 17.6369C1.69894 18.3748 1.45815 19.11 1.21875 19.8397C1.82487 20.1039 2.36733 20.4872 2.82261 20.9965C5.14605 23.588 4.42646 28.4658 2.3272 31.1792C2.78663 31.8897 3.24744 32.5989 3.7041 33.2998C8.7869 31.4489 15.3047 34.9454 15.9634 40.3544C17.368 40.52 18.7726 40.6829 20.1785 40.8431C23.0472 35.0563 32.4046 33.0397 37.9206 36.1857C39.2269 35.2411 40.5305 34.2951 41.823 33.3546C38.4257 27.5445 43.8683 20.646 49.91 19.2003C49.9017 18.1339 49.8907 17.0688 49.8851 16.0023C48.702 15.7628 47.5465 15.3028 46.5127 14.7127C42.8055 12.5949 40.3132 8.5015 42.7944 4.84897C41.9766 4.36708 41.1615 3.88655 40.3589 3.41151C38.6637 4.12339 36.2116 4.44922 34.5288 4.49303C31.7598 4.56421 28.0248 3.97143 26.9939 1.15674C25.9311 1.28816 24.8683 1.41959 23.8056 1.54691C22.8562 3.08568 20.9175 4.52588 18.7463 5.48556H18.7491Z" fill="url(#paint2_linear_189_230)"/>
<defs>
<linearGradient id="paint0_linear_189_230" x1="25.5676" y1="42" x2="25.5676" y2="0" gradientUnits="userSpaceOnUse">
<stop stop-color="#F76700"/>
<stop offset="1" stop-color="#FFCC00"/>
</linearGradient>
<linearGradient id="paint1_linear_189_230" x1="29.5635" y1="17.2799" x2="28.5643" y2="12.6495" gradientUnits="userSpaceOnUse">
<stop stop-color="#F77D00"/>
<stop offset="1" stop-color="#FFCC00"/>
</linearGradient>
<linearGradient id="paint2_linear_189_230" x1="25.5672" y1="40.8431" x2="25.5672" y2="1.15674" gradientUnits="userSpaceOnUse">
<stop stop-color="#F87600"/>
<stop offset="0.51" stop-color="#FDC25D"/>
<stop offset="1" stop-color="#FFF1BF"/>
</linearGradient>
</defs>
</svg>
