<svg width="138" height="60" viewBox="0 0 138 60" fill="none" xmlns="http://www.w3.org/2000/svg">
<g clip-path="url(#clip0_189_70)">
<path fill-rule="evenodd" clip-rule="evenodd" d="M65.9509 29.4364H72.0465V30.9393H65.9509V29.4364ZM66.7035 31.5405H71.3316V34.6589H66.7035V31.5405ZM59.9306 22.448H78.1044V23.1995H59.9306V22.448ZM58.9523 23.8758H79.0451V24.6272H58.9523V23.8758ZM58.9147 21.0579H79.0075V21.8093H58.9147V21.0579ZM72.1594 26.2428C71.1434 27.1445 71.1434 28.7977 71.1434 28.7977H66.8163C66.8163 28.7977 66.8163 27.1445 65.8004 26.2428C65.0855 25.6041 64.2201 25.4538 64.2201 25.4538C63.6557 25.3411 63.6557 25.2659 63.6557 25.2284H74.2288C74.2288 25.2284 74.2288 25.3411 73.6644 25.4538C73.7397 25.4914 72.8743 25.6041 72.1594 26.2428ZM60.0059 25.2659H62.1882C62.1882 26.5434 61.3604 27.1445 60.0059 26.844V25.2659ZM67.7194 4.45101C68.5848 2.72269 68.7729 0.167791 68.9987 0.130219C69.2245 0.167791 69.375 2.76026 70.2404 4.45101C71.0682 6.0666 72.8367 7.45677 72.7238 7.60706C72.6109 7.79492 71.6326 7.30648 71.1434 7.08105C70.3533 6.70533 69.7136 6.44232 69.7136 6.44232C69.7136 6.44232 69.4126 10.5377 70.3909 14.3325C71.2187 17.4134 73.1753 20.2688 73.3634 20.4943H70.8424L70.6167 20.1186C69.9394 18.9163 69.4502 17.9018 68.9987 16.0983C68.5096 17.8642 68.0204 18.9163 67.3431 20.1186L67.1174 20.4943H64.5964C64.7845 20.2313 66.7411 17.4134 67.5689 14.3325C68.5848 10.5377 68.2462 6.44232 68.2462 6.44232C68.2462 6.44232 67.6065 6.7429 66.8163 7.08105C66.3272 7.30648 65.3489 7.79492 65.236 7.60706C65.1608 7.45677 66.9292 6.0666 67.7194 4.45101ZM59.9306 20.4943C59.9306 20.1937 59.7425 16.0232 58.8018 12.7544C57.7482 9.18509 55.5659 7.04348 55.7164 6.81805C55.8669 6.63019 57.6354 6.96833 58.9523 7.90764C60.3821 8.88451 61.7743 10.5001 61.6614 10.6128C61.5862 10.688 61.1347 10.2747 60.2316 9.9741C59.3286 9.63595 58.9147 9.71109 58.9147 9.71109C58.9147 9.71109 60.4574 12.2284 61.2099 14.9712C61.8496 17.2631 62.1882 20.2313 62.1882 20.4943H59.9306ZM78.0668 20.4943C78.0668 20.1937 78.2173 16.0232 79.1956 12.7544C80.2492 9.18509 82.4315 7.04348 82.281 6.81805C82.1681 6.63019 80.362 6.96833 79.0451 7.90764C77.6153 8.88451 76.2231 10.5001 76.336 10.6128C76.4112 10.688 76.8627 10.2747 77.7282 9.9741C78.6688 9.63595 79.0451 9.71109 79.0451 9.71109C79.0451 9.71109 77.5024 12.2284 76.7499 14.9712C76.1102 17.2631 75.7716 20.2313 75.7716 20.4943H78.0668ZM77.9915 25.2659H75.8092C75.8092 26.5434 76.637 27.1445 77.9915 26.844V25.2659Z" fill="white"/>
<path d="M101.208 47.5837L99.2892 52.5057H102.977L101.208 47.5837ZM98.2357 55.1733C97.9347 55.8872 97.596 56.8265 97.596 57.5779C97.596 58.3293 98.311 58.4796 98.8754 58.5923L99.7784 58.6675V59.3814H94.172V58.7051C95.3008 58.4796 95.7523 58.2166 96.2415 57.2022C96.392 56.9016 96.5425 56.5259 96.693 56.075L97.0693 55.1357L100.644 46.1184L100.305 45.1415H102.751L106.476 55.1357L107.116 56.864C107.266 57.2398 107.492 57.9912 107.831 58.2918C108.094 58.5548 108.508 58.6299 109.373 58.6675V59.3814H102.6V58.6675C103.804 58.6299 104.708 58.5923 104.708 57.8033C104.708 57.3525 104.519 56.6762 104.256 56.1126L103.917 55.1357L103.353 53.4825H98.8377L98.2357 55.1733ZM83.4483 46.2311C82.9591 46.2311 82.4324 46.3063 82.1314 46.3063V52.7311H83.4859C84.1632 52.7311 84.8029 52.656 85.4425 52.3554C86.1574 51.9797 86.7595 51.1907 86.7595 49.5751C86.7595 46.945 84.8405 46.2311 83.4483 46.2311ZM82.1314 55.1733V56.5635C82.1314 58.3669 82.3195 58.7051 83.5988 58.7051H84.6147V59.4189H77.428V58.7051C79.5351 58.7802 79.6856 58.2166 79.6856 56.9767V48.0346C79.6856 46.6069 79.4598 46.6069 77.428 46.4941V45.7803C78.8202 45.63 80.6639 45.4421 83.072 45.4421C84.1632 45.4421 89.2805 45.4421 89.2805 49.4623C89.2805 51.0779 88.5279 52.0924 87.1357 52.7687C86.8347 52.919 86.5337 52.9941 86.3079 53.1068C86.5713 53.3698 86.7971 53.5953 87.0229 53.8958C87.211 54.1964 87.4368 54.5721 87.7378 55.2109L88.1893 56.1877C89.2429 58.3293 89.8073 58.7426 90.9737 58.9681V59.6819C88.9418 59.7571 87.3239 59.0056 86.0069 56.9767C85.8188 56.7137 85.4049 55.9623 84.991 55.2109C84.6147 54.497 84.2008 53.8207 84.0503 53.5577H82.1314V55.1733ZM32.2756 47.5837L30.3567 52.5057H34.0441L32.2756 47.5837ZM29.3031 55.1733C29.0397 55.8872 28.7011 56.8265 28.7011 57.5779C28.7011 58.3293 29.3784 58.4796 29.9804 58.5923L30.8458 58.6675V59.3814H25.277V58.7051C26.4435 58.4796 26.8574 58.2166 27.3465 57.2022L27.798 56.075L28.1743 55.1357L31.7865 46.1184L31.4479 45.1415H33.8936L37.6187 55.1357L38.2583 56.864C38.4088 57.2398 38.6346 57.9912 38.9732 58.2918C39.2743 58.5548 39.6505 58.6299 40.5536 58.6675V59.3814H33.7055V58.6675C34.8719 58.6299 35.8126 58.5923 35.8126 57.8033C35.8126 57.3525 35.5868 56.6762 35.3611 56.1126L35.0224 55.1357L34.4204 53.4825H29.9428L29.3031 55.1733ZM134.96 55.1733V56.6386C134.96 58.3293 135.411 58.5923 137.405 58.7051V59.4189H130.294V58.7051C131.987 58.5923 132.025 58.5548 132.213 58.2166C132.551 57.6906 132.551 55.9999 132.551 55.3236V48.3727C132.551 46.682 132.213 46.4566 130.181 46.3063V45.5924H137.292V46.3063C134.96 46.3814 134.922 46.7196 134.922 49.0115V55.1733H134.96ZM119.57 55.1733V56.7889C119.57 57.7282 119.645 58.1415 119.984 58.3669C120.172 58.4796 120.398 58.5548 120.737 58.5923C121.075 58.6299 121.527 58.6675 122.129 58.6675V59.3814H114.491V58.6675C115.168 58.6299 115.619 58.5923 115.958 58.5923C116.297 58.5172 116.56 58.4796 116.711 58.3669C117.012 58.1791 117.087 57.7658 117.087 56.9392V46.4941H114.792C113.889 46.4941 113.512 46.5693 113.286 46.7196C113.098 46.8323 112.985 46.9826 112.873 47.2832C112.76 47.5837 112.647 48.0346 112.383 48.8236H111.706L112.007 45.1791H112.572C112.797 45.5548 112.985 45.5924 113.362 45.63H122.768C123.784 45.63 123.897 45.5548 124.048 45.1791H124.612L124.951 48.8236H124.236C123.747 46.5317 123.295 46.4941 122.129 46.4941H119.57V55.1733ZM64.7477 55.1733V57.2398C64.7477 58.5172 64.823 58.5172 66.1023 58.5172H68.5104C69.9026 58.5172 70.6175 58.2918 71.2195 55.8872H71.9721L71.6334 59.3438H60.0443V58.6299C62.1138 58.7051 62.2643 58.1415 62.2643 56.9016V47.997C62.2643 46.4566 61.8504 46.1936 60.0443 46.2311V45.5924H71.0314L71.1819 48.7485H70.467C70.0907 46.6444 69.6016 46.4941 68.0965 46.4941H64.7101V51.9797H68.0589C69.1877 51.9797 69.4887 51.9797 69.6768 50.2889H70.4294V54.6097H69.6768C69.6016 52.8814 69.3758 52.8062 67.8331 52.8062H64.7101V55.1733H64.7477ZM54.1369 55.1733C54.1745 55.3987 54.2122 55.6617 54.2122 55.8872C54.2122 57.9912 52.5189 59.8698 49.8851 59.8698C49.4712 59.8698 49.2078 59.8322 48.8315 59.7947C48.4552 59.7195 47.9661 59.5692 47.1383 59.3438C46.9878 59.2686 46.8749 59.2686 46.762 59.2686C46.4986 59.2686 46.4234 59.3438 46.4234 59.5692H45.7461L45.3322 55.9999H46.0847C47.0254 58.7051 48.982 59.0432 49.6217 59.0432C50.4871 59.0432 52.2179 58.4796 52.2179 56.6762C52.2179 56.075 52.0298 55.5866 51.6912 55.1357C51.1267 54.3843 50.1108 53.7831 48.7186 52.919C45.8966 51.1906 45.3698 49.9132 45.3698 48.6733C45.3698 46.6069 47.2512 45.104 49.1701 45.104C49.9227 45.104 50.6 45.2167 51.202 45.4421C51.3901 45.5173 52.0298 45.7803 52.1427 45.7803C52.2179 45.7803 52.3308 45.7051 52.5189 45.4797H53.1962L53.5349 48.786H52.7823C52.105 47.0201 51.0139 45.9306 49.4712 45.9306C48.2671 45.9306 47.3641 46.8323 47.3641 47.8467C47.3641 48.4855 47.5522 48.8988 48.1166 49.4248C48.4176 49.6878 48.8315 50.0259 49.3583 50.3641L51.3525 51.6791C51.9922 52.0924 52.5942 52.5057 53.0833 53.0692C53.5725 53.6704 53.9864 54.3467 54.1369 55.1733ZM4.31882 55.1733L4.16831 56.864C4.13068 57.0143 4.13068 57.4652 4.13068 57.8033C4.13068 58.6675 5.33475 58.6675 6.08729 58.6675V59.3814H0.59375V58.6675C2.96425 58.5548 2.96425 58.4421 3.15238 56.0374L3.22764 55.1357L3.82967 47.734C3.90492 46.419 3.67916 46.419 1.87307 46.3063V45.5924H6.53881L10.6778 55.1357L10.9788 55.8496L11.3174 55.1357L15.494 45.5924H20.0845V46.3063C19.5201 46.3063 19.1815 46.3063 18.8804 46.3439C18.6171 46.419 18.4289 46.4566 18.316 46.5693C18.0903 46.7947 18.0527 47.2832 18.1279 48.3352L18.5794 55.1733L18.6547 56.4132C18.7676 58.2166 18.8052 58.7802 20.8747 58.7051V59.4189H14.1395V58.7051C14.6286 58.6675 15.3435 58.6299 15.795 58.4796C16.1713 58.3293 16.3971 58.1039 16.3971 57.6155C16.3971 57.4276 16.3218 56.7889 16.3218 56.601L16.2466 55.2109L15.795 47.6964L12.4839 55.2109L10.6401 59.4565H9.96286L8.15677 55.2109L4.95848 47.6964L4.31882 55.1733Z" fill="white"/>
</g>
<defs>
<clipPath id="clip0_189_70">
<rect width="136.812" height="60" fill="white" transform="translate(0.59375)"/>
</clipPath>
</defs>
</svg>
