<svg width="140" height="16" viewBox="0 0 140 16" fill="none" xmlns="http://www.w3.org/2000/svg">
<path d="M0.473628 14.7172C0.143911 14.7172 9.76175e-05 14.4016 0.157941 14.1122L9.70923 1.74549C9.93723 1.45177 10.2643 1.20891 10.5949 1.20891H21.8C22.2446 1.20891 22.4051 1.57101 22.0631 2.0129L12.8679 13.9176C12.5285 14.3612 12.0462 14.7172 11.6016 14.7172H0.473628ZM14.8172 14.7172C14.4866 14.7172 14.3463 14.4016 14.5015 14.1122L24.0511 1.74549C24.2791 1.45177 24.6079 1.20891 24.9368 1.20891H30.0518C30.4946 1.20891 30.6559 1.57101 30.314 2.0129L21.1187 13.9176C20.7741 14.3612 20.2962 14.7172 19.8533 14.7172H14.8172ZM23.5477 14.7172C23.2145 14.7172 23.0733 14.4016 23.232 14.1122L32.7816 1.74549C33.0061 1.45177 33.3358 1.20891 33.6673 1.20891H37.4809C37.9246 1.20891 38.086 1.57101 37.744 2.0129L28.5479 13.9176C28.2085 14.3612 27.7262 14.7172 27.2877 14.7172H23.5477ZM34.0303 14.7172C34.474 14.7172 34.9528 14.3612 35.2904 13.9176L44.4892 2.0129C44.8303 1.57101 44.6689 1.20891 44.2261 1.20891H41.6129C41.285 1.20891 40.9552 1.45177 40.7316 1.74549L31.1768 14.1122C31.0225 14.4016 31.1681 14.7172 31.4969 14.7172H34.0303ZM40.4475 14.7172C40.886 14.7172 41.3683 14.3612 41.7085 13.9176L50.9064 2.0129C51.2458 1.57101 51.0844 1.20891 50.6407 1.20891H48.8045C48.4747 1.20891 48.1468 1.45177 47.9232 1.74549L38.3684 14.1122C38.214 14.4016 38.3596 14.7172 38.684 14.7172H40.4475ZM49.4648 14.7172H45.0451C44.7154 14.7172 44.5716 14.4016 44.7268 14.1122L54.2799 1.74549C54.5035 1.45177 54.8314 1.20891 55.1638 1.20891H75.701C76.2534 1.20891 76.5954 1.66745 76.5954 2.21981V13.915C76.5947 14.1274 76.5101 14.3309 76.36 14.4811C76.2098 14.6314 76.0064 14.7163 75.7939 14.7172H72.374C72.1616 14.716 71.9581 14.6311 71.8079 14.4809C71.6577 14.3307 71.5728 14.1274 71.5716 13.915V12.2175C71.5716 11.7415 71.5278 11.553 71.0499 11.553H53.0697C52.7365 11.553 52.5033 11.7914 52.2674 12.0773L52.2147 12.1474L50.8459 13.9202C50.5004 14.3647 50.0233 14.7207 49.5805 14.7207H49.4639L49.4648 14.7172ZM58.3321 4.62039C58.1128 4.62039 57.9085 4.78347 57.7551 4.97986L55.6461 7.70835C55.4944 7.90562 55.5935 8.06695 55.8188 8.06695H71.0499C71.5313 8.06695 71.569 7.88107 71.5716 7.40499V5.51118C71.5716 4.86325 71.5892 4.62039 71.0499 4.62039H58.3321ZM96.8845 10.6236C96.5092 10.8586 96.2435 11.0944 95.805 11.0944H92.407C91.9685 11.0944 91.7011 10.8586 91.3275 10.6236L84.784 6.48351C84.4113 6.24854 84.1027 6.41337 84.1027 6.85614V13.915C84.1027 14.1277 84.0181 14.3318 83.8676 14.4822C83.7172 14.6327 83.5131 14.7172 83.3003 14.7172H79.8777C79.665 14.7167 79.4612 14.6321 79.3109 14.4817C79.1605 14.3314 79.0758 14.1276 79.0753 13.915V2.01202C79.0753 1.57101 79.4375 1.20978 79.8777 1.20978H83.5432C83.9816 1.20978 84.2447 1.40179 84.6191 1.6394L93.5452 7.41902C93.9153 7.65574 94.2844 7.65574 94.6554 7.41902L103.581 1.6429C103.955 1.40442 104.22 1.21329 104.661 1.21329H108.324C108.762 1.21329 109.122 1.57452 109.122 2.01553V13.9185C109.122 14.3612 108.762 14.7207 108.324 14.7207H104.904C104.691 14.7207 104.486 14.6363 104.335 14.486C104.184 14.3357 104.098 14.1316 104.097 13.9185V6.85964C104.097 6.41688 103.794 6.25205 103.42 6.48702L96.9064 10.6122L96.8889 10.621M139.998 7.32959C139.997 7.11734 139.912 6.91414 139.761 6.76422C139.611 6.6143 139.408 6.52979 139.195 6.5291H126.009C125.797 6.53025 125.594 6.6149 125.444 6.76472C125.294 6.91454 125.208 7.11748 125.207 7.32959V8.45798C125.207 8.89987 125.571 9.28039 126.009 9.28039H134.3C134.855 9.28039 134.827 9.52325 134.827 10.1703V10.308C134.827 10.9506 134.854 11.0918 134.307 11.0918H117.428C117.323 11.0915 117.219 11.0706 117.122 11.0301C117.025 10.9897 116.937 10.9305 116.863 10.856C116.789 10.7815 116.73 10.6931 116.69 10.5959C116.65 10.4987 116.63 10.3946 116.631 10.2895V5.40948C116.631 4.97022 116.985 4.60812 117.428 4.60812H139.195C139.636 4.60812 139.998 4.24864 139.998 3.80851V2.00939C139.997 1.79698 139.912 1.5936 139.761 1.4434C139.611 1.2932 139.408 1.2083 139.195 1.20715H112.408C112.196 1.20831 111.993 1.29326 111.843 1.4435C111.693 1.59375 111.608 1.79714 111.608 2.00939V13.9132C111.608 14.356 111.967 14.7154 112.408 14.7154H139.195C139.636 14.7154 139.998 14.356 139.998 13.9132V7.19281" fill="white"/>
</svg>
