<svg width="1833" height="1583" viewBox="0 0 1833 1583" fill="none" xmlns="http://www.w3.org/2000/svg">
<path opacity="0.05" fill-rule="evenodd" clip-rule="evenodd" d="M1831.94 342.901C1832.77 335.284 1829.38 327.827 1823.09 323.46C1820.24 321.488 1816.9 320.246 1813.44 319.871L1797.07 318.117C1795.52 314.305 1792.89 310.945 1789.42 308.537C1786.23 306.335 1782.5 305.035 1778.6 304.778L1763.82 303.817C1762.25 299.748 1759.49 296.179 1755.78 293.6L1755.79 293.607C1752.25 291.155 1748.11 289.796 1743.79 289.682L1730.49 289.342C1728.89 285.061 1726.01 281.298 1722.16 278.629L1722.17 278.618C1718.28 275.927 1713.71 274.526 1708.96 274.579L1697.18 274.713C1695.54 270.282 1692.58 266.424 1688.56 263.642C1684.31 260.687 1679.32 259.257 1674.13 259.493L1663.82 259.969C1662.12 255.427 1659.07 251.469 1654.97 248.626C1650.42 245.468 1644.87 243.963 1639.32 244.397L1630.44 245.096C1628.67 240.486 1625.55 236.462 1621.41 233.595C1616.49 230.179 1610.5 228.66 1604.51 229.308L1597.04 230.127C1595.19 225.493 1592 221.441 1587.84 218.545C1582.54 214.87 1576.1 213.343 1569.7 214.23L1563.63 215.072C1561.72 210.429 1558.51 206.431 1554.28 203.491L1554.29 203.498C1548.62 199.551 1541.72 198.003 1534.9 199.141L1530.18 199.923C1528.2 195.317 1524.96 191.347 1520.75 188.415C1514.68 184.208 1507.34 182.663 1500.09 184.052L1496.72 184.699C1494.65 180.155 1491.39 176.232 1487.21 173.327C1480.85 168.917 1472.86 167.318 1465.29 168.962L1463.22 169.409C1461.08 164.947 1457.82 161.087 1453.69 158.227C1446.94 153.539 1438.47 151.96 1430.49 153.88L1429.7 154.071C1427.49 149.706 1424.22 145.925 1420.16 143.11L1420.15 143.121C1413.15 138.252 1404.42 136.648 1396.14 138.676C1393.88 134.438 1390.63 130.761 1386.65 128C1379.6 123.109 1370.92 121.425 1362.61 123.283C1360.31 119.157 1357.11 115.618 1353.14 112.867C1346.04 107.948 1337.41 106.183 1329.05 107.879C1326.71 103.873 1323.53 100.432 1319.64 97.7343L1319.66 97.7302C1312.5 92.7679 1303.9 90.9366 1295.5 92.4761C1293.13 88.582 1289.97 85.2266 1286.15 82.5788L1286.14 82.5901C1279.07 77.6695 1270.34 75.7504 1261.94 77.1002C1259.53 73.3131 1256.4 70.0383 1252.66 67.4347L1252.66 67.4235C1245.53 62.4875 1236.82 60.4922 1228.38 61.7049C1225.95 58.0187 1222.84 54.8273 1219.17 52.2792C1211.99 47.2925 1203.3 45.2396 1194.82 46.3253C1192.38 42.7345 1189.3 39.6156 1185.69 37.1127L1185.69 37.1014C1178.46 32.0853 1169.77 29.9669 1161.25 30.9314C1158.8 27.4406 1155.75 24.4008 1152.21 21.9461C1144.92 16.8926 1136.25 14.7025 1127.69 15.5442C1125.23 12.1439 1122.21 9.17045 1118.73 6.75005L1118.74 6.75715C1108.06 -0.643363 1094.55 -2.03811 1082.59 3.02121L23.665 450.748C14.3895 454.669 7.17049 461.966 3.36701 471.309C-0.447519 480.645 -0.398417 490.892 3.50436 500.172L448.17 1558.96C450.946 1565.56 455.511 1571.2 461.363 1575.27C472.022 1582.67 485.541 1584.08 497.503 1579.02L1556.43 1131.29C1561.77 1129.03 1566.43 1125.65 1570.14 1121.41C1573.56 1119.4 1576.6 1116.87 1579.17 1113.91C1582.63 1111.88 1585.65 1109.33 1588.18 1106.39C1591.62 1104.41 1594.68 1101.87 1597.24 1098.88C1600.68 1096.92 1603.72 1094.4 1606.27 1091.4C1609.74 1089.44 1612.77 1086.9 1615.26 1083.95C1618.76 1082.02 1621.85 1079.47 1624.4 1076.4C1627.83 1074.51 1630.87 1072.01 1633.37 1069C1636.87 1067.11 1639.95 1064.57 1642.48 1061.49C1645.95 1059.64 1649.01 1057.12 1651.51 1054.05C1655.06 1052.19 1658.12 1049.63 1660.57 1046.6C1664.13 1044.77 1667.2 1042.22 1669.64 1039.17C1673.16 1037.4 1676.27 1034.87 1678.76 1031.72C1682.32 1029.95 1685.4 1027.4 1687.8 1024.34C1691.35 1022.64 1694.47 1020.12 1696.95 1016.92C1700.32 1015.33 1703.3 1012.98 1705.71 1009.99C1705.83 1009.83 1705.96 1009.67 1706.08 1009.51C1709.69 1007.82 1712.81 1005.28 1715.18 1002.16C1718.82 1000.51 1721.96 997.957 1724.32 994.806C1727.98 993.192 1731.13 990.645 1733.49 987.472C1737.15 985.896 1740.32 983.358 1742.65 980.17C1746.33 978.634 1749.51 976.105 1751.83 972.9C1758.77 970.095 1763.99 963.66 1764.86 955.722L1831.94 342.901ZM1754.51 967.993C1758.48 965.119 1761.28 960.637 1761.86 955.387L1828.93 342.589C1829.65 336.067 1826.75 329.687 1821.36 325.955C1818.93 324.265 1816.07 323.203 1813.11 322.889L1798.08 321.278C1798.57 323.338 1798.76 325.482 1798.62 327.642L1755.89 961.697C1755.75 963.909 1755.27 966.023 1754.51 967.993ZM1794.89 320.936C1795.5 323.006 1795.75 325.205 1795.6 327.455L1752.9 961.494C1752.68 964.78 1751.61 967.812 1749.92 970.39C1748.84 970.769 1747.71 971.046 1746.56 971.211C1746.78 970.062 1746.91 968.883 1746.94 967.678L1765.13 317.745L1794.89 320.936ZM1793.62 317.747C1792.26 315.11 1790.25 312.799 1787.7 311.022C1784.96 309.122 1781.75 308.005 1778.39 307.779L1764.75 306.892C1765.15 308.672 1765.33 310.518 1765.28 312.394L1765.21 314.703L1793.62 317.747ZM1762.21 314.381L1762.27 312.321C1762.33 310.39 1762.09 308.495 1761.6 306.687L1732.01 304.764L1732.07 311.151L1762.21 314.381ZM1729.06 310.829L1729.01 304.569L1699.52 302.653L1699.74 307.687L1729.06 310.829ZM1699.88 310.749L1729.09 313.881L1734.94 970.514L1728.6 969.834L1699.88 310.749ZM1696.71 307.362L1696.5 302.456L1667.88 300.597L1668.16 304.303L1696.71 307.362ZM1668.4 307.374L1696.85 310.424L1725.56 969.508L1718.78 968.781L1668.4 307.374ZM1665.11 303.976L1664.84 300.399L1637 298.59L1637.26 300.991L1665.11 303.976ZM1637.59 304.071L1665.35 307.047L1715.73 968.454L1708.53 967.683L1637.59 304.071ZM1634.19 300.663L1633.95 298.392L1606.84 296.63L1606.99 297.748L1634.19 300.663ZM1607.41 300.836L1634.52 303.743L1705.47 967.354L1697.91 966.544L1607.41 300.836ZM1603.91 297.417L1603.77 296.43L1580.72 294.932L1603.91 297.417ZM1577.82 297.663L1604.33 300.506L1694.81 966.212L1686.91 965.365L1577.82 297.663ZM1548.77 294.55L1574.72 297.331L1683.82 965.034L1675.58 964.15L1548.77 294.55ZM1520.25 291.491L1545.65 294.215L1672.44 963.814L1663.95 962.903L1520.25 291.491ZM1508.66 290.249L1517.08 291.152L1660.77 962.563L1652 961.623L1492.34 289.188L1508.66 290.249ZM1421.47 280.901L1428.15 281.617L1418.55 281.372L1412.82 281L1421.47 280.901ZM1421.43 277.862L1409.54 276.588L1408.99 274.759L1431.69 273.712L1432.82 277.732L1421.43 277.862ZM1460.52 282.051L1447.06 280.609L1460.11 280.46L1460.52 282.051ZM1465.33 282.567L1463.73 282.395L1463.22 280.425L1487.09 280.152L1487.8 283.141L1465.33 282.567ZM1509.13 287.26L1502.3 286.529L1516.17 286.883L1516.35 287.73L1509.13 287.26ZM1406.29 276.24L1397.44 275.291L1405.89 274.902L1406.29 276.24ZM1384.02 276.886L1395.85 278.154L1384.47 278.284L1384.02 276.886ZM1377.66 276.204L1380.74 276.534L1381.31 278.32L1373.05 278.414L1359.05 277.504L1358.9 277.069L1377.66 276.204ZM1377.67 273.173L1379.63 273.082L1378.01 268.013L1356.41 269.715L1356.82 270.939L1377.67 273.173ZM1353.51 270.584L1353.3 269.959L1350.06 270.215L1353.51 270.584ZM1333.77 271.499L1354.58 273.73L1354.75 274.231L1333.47 275.213L1332.19 271.623L1333.77 271.499ZM1333.76 268.468L1330.96 268.167L1328.95 262.541L1350.01 260.234L1352.3 267.007L1333.76 268.468ZM1327.61 267.809L1305.38 265.426L1305.27 265.135L1325.85 262.88L1327.61 267.809ZM1306.56 268.581L1317.47 269.751L1307.29 270.553L1306.56 268.581ZM1290.01 266.807L1303.2 268.221L1304.16 270.8L1283.86 272.398L1282.03 267.682L1290.01 266.807ZM1289.97 263.775L1280.09 262.716L1278.13 257.684L1298.22 254.899L1301.08 262.558L1289.97 263.775ZM1276.71 262.354L1258.51 260.404L1275.06 258.11L1276.71 262.354ZM1256.36 263.2L1276 265.306L1258.01 267.277L1256.36 263.2ZM1246.2 262.111L1252.96 262.835L1254.9 267.618L1237.06 269.573L1235.4 269.466L1233.08 263.93L1246.2 262.111ZM1246.15 259.079L1251.16 258.386L1247.72 249.903L1228.53 253.092L1230.33 257.384L1246.15 259.079ZM1231.66 260.551L1233.84 260.786L1231.87 261.059L1231.66 260.551ZM1226.89 257.015L1225.46 253.601L1213.53 255.583L1226.89 257.015ZM1202.46 257.421L1228.22 260.183L1228.77 261.489L1191.71 266.626L1183.63 266.1C1185.27 263.288 1187.64 260.982 1190.45 259.417L1202.46 257.421ZM1202.33 254.384L1201.36 254.279C1197.11 253.82 1193.02 254.676 1189.49 256.518L1146.38 263.679L1145.26 263.606C1141.48 263.361 1137.87 264.108 1134.68 265.623L1090.35 272.986L1089.14 272.955C1085.85 272.869 1082.71 273.508 1079.87 274.726L1034.39 282.281L1033.06 282.296C1030.25 282.328 1027.57 282.867 1025.1 283.824L978.28 291.602L976.942 291.664C974.646 291.768 972.44 292.202 970.367 292.916L922.531 300.863L920.868 300.994C919.025 301.14 917.245 301.491 915.548 302.023L866.353 310.195L864.766 310.368C863.454 310.513 862.177 310.758 860.941 311.093L816.205 318.525L1220.13 240.918L1224.26 250.742L1202.33 254.384ZM1184.17 260.46C1182.62 262.039 1181.32 263.866 1180.33 265.885L1159.62 264.539L1184.17 260.46ZM1178.5 271.497L1155.71 274.656L1178.04 275.227L1178.3 272.848C1178.35 272.393 1178.42 271.942 1178.5 271.497ZM1177.62 279.122L1162.09 280.823L1177.45 280.648L1177.62 279.122ZM1180.49 280.542L1180.68 278.785L1184.17 278.404L1201.89 278.856L1180.49 280.542ZM1176.92 285.463L1127.76 287.731L1125.08 287.942L1082.64 917.927C1082.2 924.482 1085.15 930.61 1090.55 934.36L1090.55 934.349C1093.29 936.249 1096.51 937.365 1099.85 937.585L1524.3 965.182L1518.06 950.32L1129.72 908.693C1126.25 908.318 1122.91 907.075 1120.07 905.111C1113.78 900.744 1110.38 893.291 1111.23 885.658L1176.92 285.463ZM1516.71 947.12L1130.06 905.67C1127.1 905.357 1124.24 904.305 1121.81 902.616L1121.79 902.62C1116.41 898.876 1113.51 892.497 1114.21 885.968L1179.97 285.323L1227.98 283.108L1237.8 282.996L1516.71 947.12ZM1521.5 950.689L1527.68 965.402L1537.83 966.062L1532.06 951.821L1521.5 950.689ZM1530.77 948.626L1520.16 947.489L1241.07 282.959L1261.02 282.731L1530.77 948.626ZM1535.46 952.185L1541.17 966.279L1551.2 966.931L1545.89 953.303L1535.46 952.185ZM1544.65 950.114L1534.17 948.991L1264.26 282.694L1284.55 282.463L1544.65 950.114ZM1549.27 953.665L1554.52 967.147L1564.41 967.79L1559.55 954.767L1549.27 953.665ZM1558.36 951.584L1548.03 950.477L1287.77 282.426L1308.41 282.191L1558.36 951.584ZM1562.92 955.128L1567.72 968.005L1577.48 968.639L1573.05 956.214L1562.92 955.128ZM1571.91 953.037L1561.73 951.945L1311.62 282.154L1325.03 282.001L1332.74 282.198L1571.91 953.037ZM1576.38 956.571L1580.76 968.853L1590.36 969.477L1586.35 957.64L1576.38 956.571ZM1585.27 954.47L1575.25 953.395L1335.99 282.281L1357.67 282.835L1585.27 954.47ZM1589.66 957.995L1593.62 969.689L1603.04 970.301L1599.43 959.043L1589.66 957.995ZM1598.42 955.879L1588.58 954.824L1360.88 282.917L1382.96 283.481L1598.42 955.879ZM1602.73 959.396L1606.29 970.513L1615.55 971.115L1612.33 960.425L1602.73 959.396ZM1611.38 957.268L1601.72 956.232L1386.16 283.563L1408.67 284.137L1611.38 957.268ZM1615.59 960.774L1618.77 971.324L1627.85 971.914L1625 961.783L1615.59 960.774ZM1624.12 958.633L1614.64 957.617L1411.84 284.218L1418.48 284.388L1434.99 285.461L1624.12 958.633ZM1628.22 962.128L1631.03 972.121L1639.9 972.698L1637.41 963.113L1628.22 962.128ZM1636.59 959.971L1627.34 958.979L1438.18 285.669L1461.86 287.207L1636.59 959.971ZM1640.61 963.457L1643.07 972.904L1651.72 973.466L1649.57 964.417L1640.61 963.457ZM1648.83 961.282L1639.8 960.315L1465.03 287.414L1489.19 288.983L1648.83 961.282ZM1652.75 964.757L1654.86 973.671L1663.27 974.217L1661.44 965.69L1652.75 964.757ZM1664.62 966.03L1666.41 974.422L1674.55 974.951L1673.03 966.932L1664.62 966.03ZM1676.17 967.268L1677.66 975.153L1685.55 975.666L1684.32 968.142L1676.17 967.268ZM1687.42 968.474L1688.62 975.866L1696.19 976.358L1695.23 969.311L1687.42 968.474ZM1698.33 969.643L1699.27 976.558L1706.5 977.028L1705.8 970.444L1698.33 969.643ZM1708.86 970.772L1709.55 977.227L1716.43 977.674L1715.96 971.534L1708.86 970.772ZM1719.01 971.86L1719.47 977.872L1725.94 978.292L1725.69 972.576L1719.01 971.86ZM1728.73 972.902L1728.97 978.489L1733.2 978.765C1733.59 978.789 1733.97 978.802 1734.35 978.804C1734.77 977.174 1734.98 975.464 1734.97 973.705L1734.96 973.57L1728.73 972.902ZM1737.99 973.894C1737.98 975.486 1737.82 977.041 1737.51 978.544C1738.61 978.356 1739.68 978.069 1740.72 977.691C1741.41 976.651 1742.01 975.537 1742.5 974.366C1742.26 974.349 1742.03 974.328 1741.8 974.303L1737.99 973.894ZM1743.45 971.378C1743.73 970.161 1743.89 968.9 1743.93 967.605L1762.13 317.424L1732.1 314.204L1737.96 970.838L1742.13 971.285C1742.57 971.332 1743.01 971.363 1743.45 971.378ZM1745.72 974.353C1745.62 974.624 1745.52 974.892 1745.42 975.158C1745.8 974.876 1746.17 974.581 1746.52 974.272C1746.26 974.304 1745.99 974.331 1745.72 974.353ZM1181.07 275.304L1181.3 273.165C1181.38 272.448 1181.5 271.745 1181.66 271.058L1191.78 269.655L1219.73 271.472L1184.06 275.38L1181.07 275.304ZM1754.06 296.073C1756.86 298.016 1759.04 300.621 1760.45 303.598L1731.98 301.748L1731.94 297.146C1731.93 295.527 1731.75 293.931 1731.4 292.38L1743.7 292.694C1747.43 292.786 1751.01 293.956 1754.06 296.073ZM1728.94 297.188L1728.98 301.552L1699.39 299.629L1699.04 291.554L1728.28 292.3C1728.7 293.879 1728.93 295.52 1728.94 297.188ZM1696.02 291.477L1696.37 299.432L1667.65 297.565L1667.13 290.739L1696.02 291.477ZM1664.1 290.661L1664.61 297.368L1636.68 295.552L1636.08 289.946L1664.1 290.661ZM1633.04 289.868L1633.63 295.354L1606.43 293.586L1605.83 289.173L1633.04 289.868ZM1602.78 289.095L1603.36 293.386L1576.84 291.662L1576.31 288.419L1602.78 289.095ZM1573.25 288.341L1573.76 291.462L1547.87 289.779L1547.47 287.683L1573.25 288.341ZM1544.4 287.604L1544.77 289.578L1519.49 287.934L1519.28 286.962L1544.4 287.604ZM1331.51 278.736L1327.88 278.5L1320.14 278.857L1324.49 278.969L1331.56 278.888L1331.51 278.736ZM1308.67 274.229L1327.81 275.473L1330.3 275.359L1329.06 271.87L1308.39 273.498L1308.67 274.229ZM1355.08 277.246L1355.79 277.292L1355.76 277.214L1355.08 277.246ZM1303.44 273.889L1305.36 274.014L1305.26 273.745L1303.44 273.889ZM1300.62 276.728L1285.16 275.724L1285.82 277.411L1300.62 276.728ZM1278.92 268.022L1280.63 272.406L1259.53 271.035L1259.19 270.184L1278.92 268.022ZM1261.32 274.174L1260.79 274.14L1260.82 274.213L1261.32 274.174ZM1256.08 270.525L1256.19 270.818L1254.45 270.704L1256.08 270.525ZM1257.45 273.923L1237.12 272.602L1236.74 272.644L1238.15 276L1257.67 274.462L1257.45 273.923ZM1206.63 267.596L1232.03 269.247L1229.98 264.36L1206.63 267.596ZM1176.86 268.685L1146.52 266.714L1135.59 268.53C1133.02 269.817 1130.78 271.686 1129.05 273.975L1137.19 274.183L1176.86 268.685ZM1125.47 273.883C1126.43 272.328 1127.57 270.905 1128.87 269.646L1106.31 273.394L1125.47 273.883ZM1106.66 281.456L1123.14 279.171C1122.94 279.858 1122.78 280.559 1122.65 281.273L1106.66 281.456ZM1069.62 292.312L1122.05 288.181L1079.64 917.729C1079.14 925.224 1082.66 932.544 1088.83 936.833C1092.01 939.047 1095.74 940.346 1099.64 940.604L1525.61 968.295L1531.07 981.307L1069.65 969.514C1065.91 969.422 1062.33 968.245 1059.28 966.135L1059.29 966.142C1053.96 962.445 1050.89 956.383 1051.08 949.905L1069.42 294.621C1069.44 293.838 1069.51 293.068 1069.62 292.312ZM1534.39 981.391L1528.99 968.514L1539.09 969.171L1544.14 981.641L1534.39 981.391ZM1547.43 981.725L1542.43 969.388L1552.41 970.037L1557.06 981.971L1547.43 981.725ZM1560.33 982.054L1555.73 970.253L1565.57 970.893L1569.83 982.297L1560.33 982.054ZM1573.09 982.381L1568.88 971.108L1578.58 971.739L1582.46 982.62L1573.09 982.381ZM1585.69 982.703L1581.86 971.952L1591.41 972.572L1594.92 982.938L1585.69 982.703ZM1598.14 983.021L1594.67 972.784L1604.03 973.393L1607.19 983.252L1598.14 983.021ZM1610.4 983.334L1607.28 973.604L1616.48 974.202L1619.3 983.562L1610.4 983.334ZM1622.48 983.643L1619.7 974.411L1628.71 974.997L1631.2 983.866L1622.48 983.643ZM1634.35 983.946L1631.89 975.204L1640.7 975.777L1642.88 984.164L1634.35 983.946ZM1646.01 984.244L1643.87 975.983L1652.45 976.54L1654.33 984.457L1646.01 984.244ZM1657.44 984.536L1655.59 976.745L1663.93 977.287L1665.52 984.743L1657.44 984.536ZM1668.64 984.823L1667.07 977.491L1675.13 978.015L1676.46 985.022L1668.64 984.823ZM1679.55 985.101L1678.24 978.217L1686.05 978.725L1687.13 985.295L1679.55 985.101ZM1690.18 985.373L1689.12 978.925L1696.6 979.411L1697.44 985.559L1690.18 985.373ZM1700.5 985.637L1699.68 979.611L1706.83 980.076L1707.44 985.814L1700.5 985.637ZM1710.48 985.892L1709.88 980.274L1716.66 980.715L1717.05 985.871C1717.06 985.934 1717.06 985.997 1717.07 986.06L1710.48 985.892ZM1720.06 985.644L1719.7 980.913L1726.02 981.323C1725.96 983.019 1725.7 984.668 1725.26 986.244C1724.94 986.253 1724.61 986.253 1724.28 986.245L1720.09 986.138C1720.09 985.974 1720.07 985.809 1720.06 985.644ZM1728.46 985.89C1728.79 984.474 1728.98 983.013 1729.03 981.519L1732.99 981.776C1733.1 981.784 1733.21 981.79 1733.32 981.796C1732.83 982.923 1732.24 983.997 1731.55 985.005C1730.56 985.383 1729.53 985.681 1728.46 985.89ZM1736.37 982.324C1736.45 982.121 1736.52 981.917 1736.6 981.711C1736.8 981.69 1737.01 981.666 1737.21 981.64C1736.94 981.876 1736.65 982.104 1736.37 982.324ZM1126.46 278.711C1126.16 279.527 1125.91 280.371 1125.72 281.238L1131.17 281.176L1161.71 277.83L1137.31 277.207L1126.46 278.711ZM1727.2 289.258C1725.74 286.023 1723.43 283.191 1720.45 281.121C1717.07 278.786 1713.11 277.577 1708.99 277.621L1698.08 277.746C1698.38 279.097 1698.56 280.488 1698.62 281.905L1698.91 288.535L1727.2 289.258ZM1695.89 288.458L1695.61 282.036C1695.55 280.579 1695.33 279.155 1694.98 277.781L1666.17 278.11L1666.9 287.717L1695.89 288.458ZM1663.87 287.64L1663.14 278.144L1634.85 278.467L1635.76 286.922L1663.87 287.64ZM1632.72 286.844L1631.83 278.501L1604.42 278.814L1605.42 286.146L1632.72 286.844ZM1602.37 286.068L1601.38 278.849L1574.79 279.152L1575.81 285.39L1602.37 286.068ZM1572.75 285.312L1571.75 279.187L1545.92 279.481L1546.9 284.651L1572.75 285.312ZM1543.83 284.573L1542.87 279.516L1517.75 279.803L1518.63 283.929L1543.83 284.573ZM1515.52 283.85L1514.66 279.838L1490.19 280.117L1490.92 283.221L1515.52 283.85ZM1230.97 279.599L1235.76 279.721L1228.25 280.068L1224.47 280.111L1230.97 279.599ZM1277.88 277.778L1262.1 277.374L1262.01 277.153L1281.87 275.588L1282.64 277.558L1277.88 277.778ZM1230.84 276.576L1206.52 275.954L1233.6 272.988L1234.97 276.25L1230.84 276.576ZM1090.55 276.012L1118.79 276.734L1082.76 281.729L1074.81 281.82C1076.5 280.071 1078.52 278.644 1080.77 277.637L1090.55 276.012ZM1073.54 278.838C1072.54 279.761 1071.62 280.774 1070.8 281.865L1054.17 282.055L1073.54 278.838ZM1068 286.814L1061 287.785L1067.75 287.474C1067.79 287.351 1067.84 287.23 1067.89 287.108C1067.92 287.01 1067.96 286.912 1068 286.814ZM1066.53 292.556L1025.49 295.789L1015.29 296.907C1014.1 299.479 1013.45 302.345 1013.48 305.358L1019.5 981.875C1019.56 988.289 1022.73 994.289 1028 997.943L1027.99 997.936C1031.35 1000.28 1035.31 1001.49 1039.45 1001.44L1537.14 995.765L1532.35 984.354L1069.56 972.526C1065.24 972.412 1061.08 971.064 1057.55 968.612C1051.4 964.337 1047.84 957.305 1048.05 949.818L1066.39 294.534C1066.41 293.867 1066.45 293.207 1066.53 292.556ZM1535.67 984.439L1540.41 995.728L1549.8 995.621L1545.38 984.687L1535.67 984.439ZM1548.66 984.771L1553.04 995.584L1562.32 995.478L1558.24 985.016L1548.66 984.771ZM1561.51 985.099L1565.54 995.441L1574.69 995.337L1570.96 985.341L1561.51 985.099ZM1574.23 985.424L1577.92 995.3L1586.94 995.197L1583.55 985.662L1574.23 985.424ZM1586.78 985.745L1590.14 995.161L1599.03 995.059L1595.95 985.979L1586.78 985.745ZM1599.17 986.062L1602.21 995.023L1610.93 994.923L1608.16 986.291L1599.17 986.062ZM1611.38 986.374L1614.1 994.887L1622.68 994.789L1620.21 986.599L1611.38 986.374ZM1623.39 986.681L1625.82 994.754L1634.24 994.658L1632.06 986.902L1623.39 986.681ZM1635.2 986.983L1637.35 994.622L1645.57 994.528L1643.67 987.199L1635.2 986.983ZM1646.8 987.279L1648.67 994.493L1656.69 994.401L1655.05 987.49L1646.8 987.279ZM1658.16 987.569L1659.78 994.366L1667.56 994.277L1666.17 987.774L1658.16 987.569ZM1669.29 987.854L1670.65 994.242L1678.18 994.156L1677.03 988.051L1669.29 987.854ZM1680.12 988.131L1681.25 994.121L1688.56 994.038L1687.62 988.322L1680.12 988.131ZM1690.67 988.4L1691.59 994.003L1698.58 993.924L1697.85 988.584L1690.67 988.4ZM1700.91 988.662L1701.62 993.889L1708.22 993.814C1708.2 993.204 1708.16 992.591 1708.1 991.978L1707.76 988.837L1700.91 988.662ZM1710.8 988.915L1711.09 991.648C1711.17 992.361 1711.22 993.071 1711.23 993.779L1715.37 993.732C1715.64 993.729 1715.91 993.72 1716.18 993.706C1716.64 992.22 1716.94 990.669 1717.06 989.075L1710.8 988.915ZM1720.08 989.152C1719.98 990.555 1719.76 991.93 1719.43 993.265C1720.45 993.04 1721.43 992.737 1722.38 992.364C1723.05 991.385 1723.65 990.345 1724.15 989.256L1720.08 989.152ZM1727.49 989.099C1727.43 989.246 1727.37 989.393 1727.31 989.539C1727.52 989.377 1727.72 989.21 1727.92 989.04C1727.78 989.061 1727.63 989.081 1727.49 989.099ZM1071.08 287.32C1071.23 286.982 1071.39 286.649 1071.56 286.321L1082.79 284.765L1100.24 284.565L1078.03 286.999L1071.08 287.32ZM1686.84 266.127C1690.02 268.336 1692.45 271.319 1693.94 274.75L1665.94 275.07L1665.3 266.665C1665.2 265.406 1665.01 264.169 1664.73 262.962L1674.27 262.522C1678.8 262.309 1683.14 263.556 1686.84 266.127ZM1662.29 266.891L1662.91 275.104L1634.53 275.429L1633.35 264.41L1661.65 263.104C1661.97 264.333 1662.19 265.599 1662.29 266.891ZM1630.33 264.549L1631.5 275.463L1604.01 275.777L1602.66 265.825L1630.33 264.549ZM1599.63 265.965L1600.97 275.812L1574.3 276.116L1572.84 267.201L1599.63 265.965ZM1569.82 267.34L1571.26 276.151L1545.35 276.447L1543.85 268.538L1569.82 267.34ZM1540.82 268.678L1542.29 276.482L1517.1 276.769L1515.61 269.84L1540.82 268.678ZM1512.55 269.982L1514.01 276.805L1489.47 277.085L1488.05 271.112L1512.55 269.982ZM1484.98 271.254L1486.37 277.12L1462.43 277.394L1461.12 272.354L1484.98 271.254ZM1458.04 272.496L1459.32 277.429L1435.94 277.696L1434.78 273.569L1458.04 272.496ZM1134.35 284.176L1131.15 284.213L1125.86 284.792L1127.48 284.717L1134.35 284.176ZM1058.89 285.037L1034.55 285.315L1025.98 286.738C1024.18 287.459 1022.5 288.439 1021 289.631L1028.12 289.302L1058.89 285.037ZM1016.37 289.844C1016.95 289.206 1017.56 288.6 1018.21 288.029L1003.78 290.425L1016.37 289.844ZM961.694 302.779L1011.87 297.282C1010.94 299.805 1010.44 302.533 1010.46 305.375L1016.5 981.899C1016.55 989.288 1020.21 996.21 1026.28 1000.42C1030.16 1003.12 1034.73 1004.51 1039.49 1004.46L1538.4 998.759L1542.6 1008.77L1009.25 1033.38C1004.74 1033.59 1000.39 1032.34 996.687 1029.77L996.699 1029.77C991.399 1026.1 988.197 1020.3 987.917 1013.86L957.521 316.099C957.305 311.12 958.889 306.468 961.694 302.779ZM1545.83 1008.62L1541.67 998.721L1551.02 998.615L1554.9 1008.2L1545.83 1008.62ZM1558.09 1008.06L1554.25 998.578L1563.49 998.472L1567.06 1007.64L1558.09 1008.06ZM1570.24 1007.5L1566.71 998.435L1575.81 998.331L1579.08 1007.09L1570.24 1007.5ZM1582.26 1006.94L1579.03 998.295L1588.01 998.192L1590.99 1006.54L1582.26 1006.94ZM1594.14 1006.39L1591.2 998.156L1600.04 998.055L1602.74 1006L1594.14 1006.39ZM1605.88 1005.85L1603.22 998.018L1611.89 997.919L1614.31 1005.46L1605.88 1005.85ZM1617.45 1005.32L1615.06 997.883L1623.58 997.786L1625.73 1004.94L1617.45 1005.32ZM1628.85 1004.79L1626.72 997.75L1635.08 997.655L1636.98 1004.42L1628.85 1004.79ZM1640.06 1004.27L1638.19 997.619L1646.35 997.526L1648.01 1003.91L1640.06 1004.27ZM1651.08 1003.77L1649.45 997.491L1657.4 997.4L1658.83 1003.41L1651.08 1003.77ZM1661.89 1003.27L1660.49 997.365L1668.2 997.277L1669.41 1002.92L1661.89 1003.27ZM1672.48 1002.78L1671.3 997.241L1678.75 997.156L1679.75 1002.44L1672.48 1002.78ZM1682.8 1002.3L1681.82 997.121L1689.05 997.039L1689.85 1001.98L1682.8 1002.3ZM1692.87 1001.84L1692.08 997.004L1698.98 996.925L1699.14 998.067C1699.3 999.229 1699.37 1000.39 1699.35 1001.54L1692.87 1001.84ZM1702.13 997.641L1702.03 996.89L1708.09 996.821C1707.92 998.303 1707.6 999.759 1707.13 1001.17C1706.9 1001.19 1706.67 1001.2 1706.44 1001.21L1702.37 1001.4C1702.38 1000.15 1702.3 998.898 1702.13 997.641ZM1710.43 1000.63C1710.76 999.376 1710.99 998.09 1711.12 996.787L1714.99 996.742C1714.48 997.785 1713.89 998.782 1713.23 999.724C1712.33 1000.09 1711.39 1000.4 1710.43 1000.63ZM1718.29 996.748C1718.3 996.712 1718.32 996.675 1718.33 996.639C1718.35 996.595 1718.37 996.552 1718.39 996.508L1718.45 996.498L1718.52 996.489C1718.55 996.483 1718.59 996.478 1718.63 996.472C1718.55 996.533 1718.48 996.593 1718.41 996.652C1718.37 996.684 1718.33 996.716 1718.29 996.748ZM1660.63 260.117C1659.09 256.522 1656.56 253.393 1653.25 251.099C1649.27 248.333 1644.41 247.029 1639.55 247.405L1631.37 248.049C1631.64 249.15 1631.84 250.275 1631.96 251.417L1633.03 261.39L1660.63 260.117ZM1630.01 261.529L1628.97 251.747C1628.84 250.57 1628.62 249.414 1628.31 248.29L1600.57 250.476L1602.25 262.811L1630.01 261.529ZM1599.22 262.95L1597.56 250.713L1570.5 252.846L1572.35 264.19L1599.22 262.95ZM1569.33 264.33L1567.49 253.083L1541.31 255.145L1543.28 265.531L1569.33 264.33ZM1540.25 265.671L1538.3 255.383L1512.95 257.38L1514.97 266.838L1540.25 265.671ZM1511.91 266.979L1509.91 257.62L1485.31 259.558L1487.34 268.113L1511.91 266.979ZM1484.27 268.254L1482.26 259.798L1458.35 261.682L1460.34 269.358L1484.27 268.254ZM1457.26 269.501L1455.29 261.923L1432.03 263.756L1433.94 270.576L1457.26 269.501ZM1430.85 270.719L1428.96 263.998L1406.29 265.785L1408.09 271.769L1430.85 270.719ZM1404.99 271.913L1403.21 266.027L1381.1 267.769L1382.76 272.938L1404.99 271.913ZM1028.3 292.319L1030.35 292.224L1025.64 292.74L1024.76 292.81L1028.3 292.319ZM978.574 294.613L995.418 293.836L973.938 296.813L967.999 297.281C968.997 296.719 970.047 296.238 971.141 295.847L978.574 294.613ZM962.813 297.231C962.619 297.396 962.427 297.564 962.239 297.735L957.561 298.103L962.813 297.231ZM957.766 303.209L919.479 307.404L909.217 308.827C904.084 313.085 901.014 319.686 901.559 326.823L956.33 1045.82C956.818 1052.21 960.116 1057.95 965.37 1061.6L965.363 1061.61C969.347 1064.38 974.218 1065.69 979.065 1065.32L1547.53 1020.51L1543.85 1011.73L1009.38 1036.39C1004.19 1036.63 999.209 1035.2 994.962 1032.25C988.885 1028.04 985.217 1021.38 984.889 1013.99L954.499 316.223C954.293 311.489 955.508 307.013 957.766 303.209ZM1547.07 1011.58L1550.72 1020.26L1559.5 1019.57L1556.1 1011.17L1547.07 1011.58ZM1559.29 1011.02L1562.66 1019.32L1571.34 1018.63L1568.21 1010.61L1559.29 1011.02ZM1571.39 1010.46L1574.48 1018.39L1583.05 1017.71L1580.19 1010.05L1571.39 1010.46ZM1583.37 1009.91L1586.19 1017.46L1594.65 1016.8L1592.05 1009.51L1583.37 1009.91ZM1595.2 1009.36L1597.76 1016.55L1606.09 1015.9L1603.74 1008.97L1595.2 1009.36ZM1606.88 1008.82L1609.2 1015.65L1617.37 1015.01L1615.26 1008.44L1606.88 1008.82ZM1618.4 1008.29L1620.47 1014.76L1628.5 1014.13L1626.63 1007.91L1618.4 1008.29ZM1629.74 1007.77L1631.58 1013.89L1639.46 1013.27L1637.81 1007.39L1629.74 1007.77ZM1640.9 1007.25L1642.52 1013.02L1650.22 1012.42L1648.78 1006.89L1640.9 1007.25ZM1651.86 1006.75L1653.27 1012.18L1660.77 1011.59L1659.54 1006.39L1651.86 1006.75ZM1662.6 1006.25L1663.81 1011.35L1671.09 1010.77L1670.05 1005.91L1662.6 1006.25ZM1673.12 1005.77L1674.14 1010.53L1681.18 1009.98L1680.32 1005.43L1673.12 1005.77ZM1683.37 1005.29L1684.19 1009.65L1684.21 1009.74L1690.48 1009.24C1690.56 1007.84 1690.51 1006.41 1690.33 1004.97L1683.37 1005.29ZM1693.33 1004.83C1693.5 1006.24 1693.55 1007.63 1693.49 1009.01L1697.54 1008.69C1697.72 1008.67 1697.9 1008.66 1698.08 1008.64C1698.54 1007.32 1698.88 1005.95 1699.1 1004.57L1693.33 1004.83ZM1702.16 1004.43C1702 1005.64 1701.76 1006.84 1701.43 1008.01C1702.36 1007.76 1703.26 1007.45 1704.12 1007.08C1704.77 1006.18 1705.35 1005.23 1705.84 1004.26L1702.16 1004.43ZM1709.32 1003.93L1709.31 1003.94L1709.32 1003.93L1709.32 1003.93ZM1619.68 236.079C1623.07 238.431 1625.68 241.65 1627.28 245.346L1600.16 247.482L1598.62 236.169C1598.48 235.117 1598.27 234.079 1598.01 233.062L1604.84 232.313C1610.09 231.743 1615.35 233.081 1619.68 236.079ZM1595.64 236.584L1597.15 247.719L1570.01 249.857L1567.81 236.371L1594.97 233.395C1595.26 234.435 1595.49 235.5 1595.64 236.584ZM1564.81 236.699L1567 250.094L1540.75 252.162L1538.37 239.596L1564.81 236.699ZM1535.37 239.924L1537.73 252.399L1512.31 254.402L1509.81 242.725L1535.37 239.924ZM1506.79 243.056L1509.27 254.642L1484.6 256.585L1482.03 245.768L1506.79 243.056ZM1479.01 246.1L1481.55 256.825L1457.58 258.714L1454.99 248.732L1479.01 246.1ZM1451.95 249.064L1454.52 258.955L1431.19 260.792L1428.62 251.621L1451.95 249.064ZM1425.58 251.954L1428.13 261.034L1405.4 262.825L1402.87 254.442L1425.58 251.954ZM1399.83 254.775L1402.32 263.067L1380.15 264.813L1377.71 257.198L1399.83 254.775ZM1374.65 257.534L1377.06 265.057L1355.41 266.762L1353.08 259.897L1374.65 257.534ZM923.15 303.853L922.762 303.884L921.918 304.024L923.15 303.853ZM856.601 316.121L904.29 309.51C900.297 314.219 898.077 320.435 898.58 327.052L953.34 1046.04C953.899 1053.34 957.653 1059.91 963.663 1064.08C968.199 1067.24 973.769 1068.74 979.306 1068.3L1548.76 1023.44L1552 1031.15L948.894 1097.23C943.649 1097.81 938.375 1096.46 934.049 1093.47L934.042 1093.48C928.822 1089.85 925.436 1084.14 924.758 1077.81L845.624 337.578C844.662 328.627 849.245 320.331 856.601 316.121ZM1555.14 1030.8L1551.95 1023.18L1560.69 1022.5L1563.68 1029.87L1555.14 1030.8ZM1566.79 1029.52L1563.84 1022.25L1572.48 1021.57L1575.22 1028.6L1566.79 1029.52ZM1578.33 1028.26L1575.62 1021.32L1584.15 1020.65L1586.65 1027.35L1578.33 1028.26ZM1589.76 1027.01L1587.29 1020.4L1595.69 1019.74L1597.97 1026.11L1589.76 1027.01ZM1601.05 1025.77L1598.81 1019.49L1607.09 1018.84L1609.14 1024.88L1601.05 1025.77ZM1612.21 1024.55L1610.19 1018.6L1618.31 1017.96L1620.14 1023.68L1612.21 1024.55ZM1623.22 1023.34L1621.42 1017.71L1629.39 1017.08L1631.02 1022.49L1623.22 1023.34ZM1634.07 1022.15L1632.47 1016.84L1640.29 1016.22L1641.72 1021.31L1634.07 1022.15ZM1644.75 1020.98L1643.35 1015.98L1650.99 1015.38L1652.23 1020.16L1644.75 1020.98ZM1655.25 1019.83L1654.04 1015.14L1661.47 1014.56L1662.54 1019.03L1655.25 1019.83ZM1665.56 1018.7L1664.51 1014.32L1671.73 1013.75L1672.28 1016.31C1672.39 1016.85 1672.49 1017.39 1672.57 1017.93L1665.56 1018.7ZM1675.24 1015.66L1674.78 1013.51L1681.59 1012.97C1681.69 1014.3 1681.68 1015.63 1681.57 1016.95L1675.58 1017.6C1675.49 1016.96 1675.38 1016.31 1675.24 1015.66ZM1684.62 1016.61C1684.7 1015.33 1684.7 1014.03 1684.6 1012.73L1690.1 1012.3C1689.85 1013.61 1689.49 1014.89 1689.03 1016.13C1688.89 1016.14 1688.76 1016.16 1688.62 1016.18L1684.62 1016.61ZM1692.42 1015.42C1692.75 1014.32 1693 1013.2 1693.19 1012.06L1696.7 1011.78C1696.2 1012.71 1695.64 1013.62 1695.01 1014.49C1694.17 1014.85 1693.31 1015.16 1692.42 1015.42ZM1593.9 230.471C1592.23 226.705 1589.55 223.417 1586.11 221.029C1581.44 217.782 1575.76 216.431 1570.1 217.208L1564.63 217.967C1564.9 218.941 1565.12 219.936 1565.29 220.951L1567.32 233.384L1593.9 230.471ZM1564.32 233.712L1562.32 221.439C1562.15 220.397 1561.91 219.377 1561.61 218.385L1535.05 222.068L1537.8 236.618L1564.32 233.712ZM1534.81 236.946L1532.07 222.481L1506.24 226.061L1509.18 239.755L1534.81 236.946ZM1506.16 240.086L1503.24 226.477L1478.27 229.938L1481.33 242.806L1506.16 240.086ZM1478.3 243.138L1475.27 230.355L1451.08 233.707L1454.22 245.777L1478.3 243.138ZM1451.18 246.11L1448.07 234.125L1424.62 237.377L1427.79 248.673L1451.18 246.11ZM1424.75 249.006L1421.6 237.795L1398.81 240.954L1401.99 251.501L1424.75 249.006ZM1398.94 251.834L1395.79 241.373L1373.63 244.446L1376.77 254.264L1398.94 251.834ZM1373.71 254.599L1370.59 244.866L1349 247.86L1352.09 256.968L1373.71 254.599ZM1349.01 257.305L1345.96 248.282L1324.91 251.2L1327.91 259.618L1349.01 257.305ZM1324.81 259.957L1321.84 251.625L1301.29 254.474L1304.18 262.218L1324.81 259.957ZM850.423 316.978C844.885 322.17 841.753 329.804 842.618 337.901L921.756 1078.15C922.523 1085.34 926.375 1091.83 932.317 1095.96C937.229 1099.38 943.228 1100.9 949.198 1100.24L1553.22 1034.05L1556.06 1040.81L918.698 1129.16C913.056 1129.94 907.364 1128.59 902.692 1125.34L902.681 1125.33C897.476 1121.73 894.003 1116.06 893.152 1109.78L789.655 348.313C788.079 336.702 795.623 325.89 806.764 323.152L811.216 322.413L850.423 316.978ZM1556.37 1033.71L1559.17 1040.38L1567.47 1039.23L1564.86 1032.78L1556.37 1033.71ZM1567.97 1032.44L1570.55 1038.8L1578.75 1037.67L1576.36 1031.52L1567.97 1032.44ZM1579.46 1031.18L1581.83 1037.24L1589.92 1036.12L1587.74 1030.27L1579.46 1031.18ZM1590.85 1029.93L1593 1035.69L1600.99 1034.58L1599.01 1029.04L1590.85 1029.93ZM1602.09 1028.7L1604.04 1034.16L1611.91 1033.07L1610.13 1027.82L1602.09 1028.7ZM1613.21 1027.48L1614.96 1032.65L1622.67 1031.58L1621.09 1026.62L1613.21 1027.48ZM1624.16 1026.28L1625.73 1031.15L1633.31 1030.1L1631.91 1025.43L1624.16 1026.28ZM1634.96 1025.1L1636.34 1029.68L1643.79 1028.65L1642.55 1024.26L1634.96 1025.1ZM1645.58 1023.93L1646.79 1028.23L1654.06 1027.23L1652.99 1023.12L1645.58 1023.93ZM1656.02 1022.79L1657.07 1026.81L1663.91 1025.86C1663.8 1024.7 1663.61 1023.54 1663.33 1022.38L1663.24 1022L1656.02 1022.79ZM1666.26 1021.67L1666.26 1021.68C1666.56 1022.93 1666.77 1024.19 1666.9 1025.45L1672.65 1024.65C1672.8 1023.43 1672.86 1022.2 1672.83 1020.95L1666.26 1021.67ZM1675.85 1020.62C1675.89 1021.83 1675.85 1023.03 1675.73 1024.22L1679.72 1023.67C1679.76 1023.66 1679.79 1023.66 1679.82 1023.66C1679.88 1023.65 1679.93 1023.64 1679.98 1023.63C1680.44 1022.46 1680.81 1021.26 1681.08 1020.04L1675.85 1020.62ZM1684.23 1019.7C1684.04 1020.76 1683.78 1021.8 1683.46 1022.83C1684.29 1022.57 1685.09 1022.27 1685.88 1021.92C1686.49 1021.09 1687.05 1020.23 1687.54 1019.33L1684.23 1019.7ZM1552.56 205.975C1556.09 208.426 1558.81 211.703 1560.53 215.501L1534.49 219.111L1531.95 205.703C1531.76 204.719 1531.53 203.753 1531.24 202.807L1535.38 202.12C1541.42 201.12 1547.53 202.489 1552.56 205.975ZM1529 206.283L1531.51 219.524L1505.61 223.114L1502.3 207.615L1528.24 203.305C1528.56 204.273 1528.81 205.267 1529 206.283ZM1499.31 208.111L1502.61 223.53L1477.58 227L1474.09 212.301L1499.31 208.111ZM1471.1 212.798L1474.57 227.417L1450.32 230.778L1446.71 216.849L1471.1 212.798ZM1443.71 217.347L1447.31 231.196L1423.79 234.455L1420.09 221.271L1443.71 217.347ZM1417.1 221.768L1420.78 234.873L1397.93 238.04L1394.18 225.575L1417.1 221.768ZM1391.18 226.073L1394.91 238.459L1372.69 241.539L1368.92 229.77L1391.18 226.073ZM1365.91 230.27L1369.66 241.959L1348.02 244.959L1344.26 233.867L1365.91 230.27ZM1341.24 234.369L1344.97 245.381L1323.88 248.306L1320.16 237.871L1341.24 234.369ZM1317.12 238.376L1320.81 248.731L1300.21 251.586L1296.55 241.792L1317.12 238.376ZM1293.52 242.296L1297.14 252.011L1277.01 254.802L1273.44 245.632L1293.52 242.296ZM1270.4 246.137L1273.94 255.228L1254.24 257.959L1250.77 249.397L1270.4 246.137ZM753.074 332.071L796.477 324.861C789.433 330.323 785.396 339.292 786.682 348.734L890.178 1110.2C891.15 1117.31 895.085 1123.75 900.978 1127.83C906.266 1131.5 912.712 1133.03 919.113 1132.15L1557.27 1043.69L1559.75 1049.6L888.524 1161.1C882.47 1162.12 876.379 1160.74 871.343 1157.25L871.336 1157.26C866.075 1153.62 862.609 1148.12 861.576 1141.8L733.706 359.091C731.625 346.301 740.304 334.196 753.074 332.071ZM1562.83 1049.09L1560.37 1043.26L1568.64 1042.11L1570.92 1047.75L1562.83 1049.09ZM1573.97 1047.24L1571.72 1041.68L1579.88 1040.55L1581.97 1045.91L1573.97 1047.24ZM1585.01 1045.41L1582.95 1040.13L1591 1039.01L1592.9 1044.1L1585.01 1045.41ZM1595.95 1043.59L1594.08 1038.58L1602.02 1037.48L1603.74 1042.3L1595.95 1043.59ZM1606.76 1041.79L1605.07 1037.06L1612.9 1035.98L1614.44 1040.52L1606.76 1041.79ZM1617.45 1040.02L1615.94 1035.55L1623.61 1034.49L1624.98 1038.77L1617.45 1040.02ZM1628 1038.27L1626.66 1034.07L1634.19 1033.02L1635.4 1037.04L1628 1038.27ZM1638.41 1036.54L1637.22 1032.6L1644.61 1031.58L1645.43 1034.52C1645.51 1034.79 1645.58 1035.06 1645.65 1035.33L1638.41 1036.54ZM1648.33 1033.7L1647.61 1031.16L1654.77 1030.17C1654.99 1031.36 1655.14 1032.55 1655.2 1033.75L1648.63 1034.84C1648.53 1034.46 1648.43 1034.08 1648.33 1033.7ZM1658.2 1033.25C1658.12 1032.08 1657.97 1030.92 1657.76 1029.76L1664.03 1028.89C1664 1030.05 1663.9 1031.2 1663.72 1032.33L1658.2 1033.25ZM1666.84 1031.82C1666.97 1030.71 1667.04 1029.59 1667.05 1028.47L1672.05 1027.77C1671.76 1028.92 1671.38 1030.05 1670.93 1031.13C1670.9 1031.14 1670.86 1031.15 1670.83 1031.15L1666.84 1031.82ZM1674.47 1030.24C1674.78 1029.29 1675.05 1028.32 1675.26 1027.33L1678.41 1026.89C1678.1 1027.42 1677.78 1027.93 1677.44 1028.43C1677.24 1028.73 1677.03 1029.03 1676.81 1029.31C1676.05 1029.66 1675.27 1029.97 1674.47 1030.24ZM1527.11 200.434C1525.32 196.632 1522.56 193.357 1519.02 190.899C1513.63 187.167 1507.11 185.775 1500.66 187.022L1497.84 187.563C1498.15 188.515 1498.42 189.489 1498.63 190.481L1501.66 204.661L1527.11 200.434ZM1498.68 205.157L1495.68 191.12C1495.46 190.103 1495.18 189.108 1494.85 188.138L1469.5 193.007L1473.39 209.358L1498.68 205.157ZM1470.4 209.854L1466.53 193.577L1441.89 198.312L1445.94 213.917L1470.4 209.854ZM1442.95 214.414L1438.92 198.883L1415.09 203.462L1419.27 218.348L1442.95 214.414ZM1416.28 218.845L1412.12 204.033L1389.03 208.469L1393.3 222.662L1416.28 218.845ZM1390.31 223.159L1386.05 209.04L1363.66 213.343L1367.99 226.866L1390.31 223.159ZM1364.98 227.365L1360.67 213.916L1338.91 218.097L1343.28 230.971L1364.98 227.365ZM1340.26 231.472L1335.92 218.672L1314.76 222.738L1319.13 234.983L1340.26 231.472ZM1316.09 235.488L1311.75 223.316L1291.13 227.277L1295.48 238.911L1316.09 235.488ZM1292.44 239.416L1288.12 227.855L1268.02 231.718L1272.32 242.758L1292.44 239.416ZM1269.28 243.263L1265.01 232.297L1245.37 236.069L1249.61 246.531L1269.28 243.263ZM1246.56 247.037L1242.35 236.649L1223.17 240.335L1227.33 250.232L1246.56 247.037ZM743.25 332.542L697.07 341.414C683.938 343.94 675.278 356.687 677.759 369.839L830.004 1173.79C831.191 1180.06 834.733 1185.52 839.976 1189.16L839.971 1189.14C845.372 1192.88 851.881 1194.27 858.346 1193.03L1563.12 1057.62L1560.95 1052.46L889.005 1164.08C882.186 1165.21 875.297 1163.68 869.618 1159.73C863.687 1155.61 859.776 1149.41 858.608 1142.28L730.726 359.571C728.931 348.568 734.229 337.993 743.25 332.542ZM1564.03 1051.95L1566.16 1057.04L1574.07 1055.52L1572.08 1050.61L1564.03 1051.95ZM1575.13 1050.11L1577.09 1054.94L1584.9 1053.44L1583.09 1048.79L1575.13 1050.11ZM1586.13 1048.28L1587.91 1052.86L1595.62 1051.38L1593.98 1046.98L1586.13 1048.28ZM1597.02 1046.47L1598.64 1050.8L1606.25 1049.34L1604.77 1045.19L1597.02 1046.47ZM1607.79 1044.68L1609.24 1048.76L1616.74 1047.32L1615.42 1043.42L1607.79 1044.68ZM1618.44 1042.91L1619.73 1046.74L1627.08 1045.33L1625.91 1041.67L1618.44 1042.91ZM1628.93 1041.17L1630.08 1044.76L1637.17 1043.39C1636.98 1042.45 1636.75 1041.52 1636.47 1040.59L1636.28 1039.95L1628.93 1041.17ZM1639.28 1039.45L1639.36 1039.7C1639.67 1040.74 1639.93 1041.78 1640.13 1042.83L1646.47 1041.61C1646.45 1040.51 1646.37 1039.4 1646.22 1038.3L1639.28 1039.45ZM1649.19 1037.81C1649.34 1038.88 1649.43 1039.96 1649.47 1041.03L1654.8 1040.01C1655 1038.95 1655.13 1037.88 1655.2 1036.81L1649.19 1037.81ZM1658.24 1036.3C1658.2 1037.34 1658.11 1038.37 1657.96 1039.4L1661.89 1038.64C1662.34 1037.63 1662.71 1036.58 1663.02 1035.51L1658.24 1036.3ZM1666.28 1034.97C1666.06 1035.88 1665.8 1036.78 1665.5 1037.67C1666.25 1037.4 1666.99 1037.1 1667.71 1036.76C1668.26 1036.03 1668.78 1035.26 1669.25 1034.47L1666.28 1034.97ZM1485.49 175.811C1489.01 178.255 1491.8 181.515 1493.66 185.288L1468.81 190.062L1465.29 175.244C1465.05 174.228 1464.75 173.23 1464.41 172.255L1465.92 171.927C1472.68 170.465 1479.81 171.883 1485.49 175.811ZM1462.35 175.957L1465.84 190.633L1441.13 195.379L1436.69 178.264L1461.42 172.901C1461.79 173.894 1462.1 174.914 1462.35 175.957ZM1433.73 178.905L1438.16 195.95L1414.27 200.54L1409.66 184.124L1433.73 178.905ZM1406.7 184.764L1411.3 201.111L1388.15 205.557L1383.41 189.814L1406.7 184.764ZM1380.46 190.454L1385.18 206.129L1362.73 210.441L1357.89 195.346L1380.46 190.454ZM1354.93 195.988L1359.74 211.015L1337.93 215.205L1333.03 200.736L1354.93 195.988ZM1330.06 201.379L1334.94 215.78L1313.73 219.854L1308.79 205.991L1330.06 201.379ZM1305.8 206.638L1310.72 220.433L1290.06 224.402L1285.1 211.126L1305.8 206.638ZM1282.12 211.773L1287.05 224.98L1266.9 228.852L1261.95 216.145L1282.12 211.773ZM1258.96 216.792L1263.89 229.43L1244.21 233.21L1239.29 221.058L1258.96 216.792ZM1236.3 221.706L1241.19 233.79L1221.97 237.483L1217.09 225.869L1236.3 221.706ZM1214.09 226.521L1218.94 238.066L708.419 336.146L1214.09 226.521ZM641.056 350.75L691.998 339.706C679.815 344.304 672.281 357.175 674.785 370.386L827.03 1174.33C828.366 1181.39 832.349 1187.53 838.246 1191.63C844.312 1195.83 851.641 1197.39 858.9 1195.99L1564.32 1060.47L1566.2 1064.96L828.173 1224.97C821.41 1226.43 814.288 1225.02 808.608 1221.08L808.601 1221.09C803.37 1217.45 799.747 1212.02 798.413 1205.78L621.806 380.599C618.901 367.069 627.542 353.68 641.056 350.75ZM1569.22 1064.31L1567.36 1059.88L1575.22 1058.37L1576.95 1062.63L1569.22 1064.31ZM1579.94 1061.99L1578.24 1057.79L1586.01 1056.3L1587.58 1060.33L1579.94 1061.99ZM1590.57 1059.68L1589.03 1055.72L1596.69 1054.25L1598.11 1058.05L1590.57 1059.68ZM1601.1 1057.4L1599.71 1053.67L1607.27 1052.22L1608.55 1055.78L1601.1 1057.4ZM1611.52 1055.14L1610.27 1051.64L1617.72 1050.21L1618.57 1052.73C1618.67 1053.01 1618.75 1053.28 1618.84 1053.55L1611.52 1055.14ZM1621.43 1051.75L1620.71 1049.63L1627.97 1048.24C1628.24 1049.3 1628.46 1050.36 1628.62 1051.43L1621.8 1052.91C1621.68 1052.52 1621.56 1052.14 1621.43 1051.75ZM1631.58 1050.79C1631.43 1049.74 1631.21 1048.7 1630.95 1047.67L1637.59 1046.39C1637.68 1047.42 1637.71 1048.44 1637.69 1049.47L1631.58 1050.79ZM1640.71 1048.81C1640.71 1047.82 1640.66 1046.82 1640.56 1045.82L1646.34 1044.71C1646.24 1045.71 1646.09 1046.71 1645.88 1047.69L1640.71 1048.81ZM1649.07 1047C1649.23 1046.04 1649.35 1045.08 1649.41 1044.12L1654 1043.24C1653.68 1044.23 1653.3 1045.21 1652.87 1046.17L1649.07 1047ZM1656.55 1045.1C1656.84 1044.28 1657.1 1043.44 1657.32 1042.6L1660.1 1042.07C1659.64 1042.81 1659.14 1043.53 1658.61 1044.22C1657.94 1044.54 1657.25 1044.84 1656.55 1045.1ZM1460.17 170.071C1458.26 166.352 1455.45 163.132 1451.96 160.712C1445.91 156.512 1438.35 155.095 1431.19 156.821L1430.94 156.88C1431.33 157.905 1431.67 158.955 1431.95 160.026L1435.92 175.328L1460.17 170.071ZM1432.97 175.97L1429.02 160.794C1428.74 159.7 1428.39 158.631 1427.98 157.592L1403.83 163.392L1408.83 181.202L1432.97 175.97ZM1405.88 181.842L1400.9 164.097L1377.37 169.75L1382.53 186.904L1405.88 181.842ZM1379.58 187.544L1374.43 170.455L1351.67 175.924L1356.96 192.448L1379.58 187.544ZM1354 193.09L1348.73 176.63L1326.66 181.932L1332.05 197.849L1354 193.09ZM1329.08 198.493L1323.71 182.64L1302.3 187.784L1307.76 203.115L1329.08 198.493ZM1304.78 203.763L1299.33 188.496L1278.52 193.497L1284.03 208.261L1304.78 203.763ZM1281.05 208.907L1275.56 194.208L1255.3 199.075L1260.84 213.29L1281.05 208.907ZM1257.85 213.937L1252.34 199.786L1232.59 204.53L1238.14 218.211L1257.85 213.937ZM1235.15 218.86L1229.63 205.242L1210.37 209.868L1215.9 223.032L1235.15 218.86ZM1212.9 223.684L1207.39 210.584L585.052 360.092C571.168 363.434 562.555 377.455 565.848 391.34L766.83 1237.76C768.299 1243.96 771.995 1249.38 777.227 1253.01L777.222 1252.99C783.266 1257.19 790.836 1258.61 797.995 1256.9L1569.02 1071.67L1567.39 1067.78L828.789 1227.91C821.218 1229.55 813.234 1227.96 806.872 1223.55C801.001 1219.49 796.949 1213.39 795.456 1206.4L618.849 381.22C615.608 366.077 625.294 351.08 640.428 347.803L1212.9 223.684ZM1570.4 1067.13L1572.01 1070.95L1579.58 1069.13L1578.09 1065.46L1570.4 1067.13ZM1581.08 1064.81L1582.55 1068.42L1590.03 1066.62L1588.69 1063.16L1581.08 1064.81ZM1591.67 1062.51L1592.99 1065.91L1600.38 1064.13L1599.17 1060.89L1591.67 1062.51ZM1602.17 1060.24L1603.35 1063.42L1610.5 1061.7C1610.25 1060.73 1609.96 1059.75 1609.62 1058.79L1609.56 1058.64L1602.17 1060.24ZM1612.53 1057.99C1612.88 1058.99 1613.18 1059.99 1613.43 1061L1620.02 1059.41C1619.93 1058.43 1619.78 1057.45 1619.58 1056.46L1612.53 1057.99ZM1622.53 1055.82C1622.73 1056.78 1622.88 1057.74 1622.98 1058.7L1628.88 1057.29C1628.93 1056.34 1628.94 1055.39 1628.9 1054.44L1622.53 1055.82ZM1631.9 1053.79C1631.95 1054.71 1631.96 1055.63 1631.94 1056.55L1636.93 1055.35C1637.14 1054.44 1637.32 1053.52 1637.44 1052.59L1631.9 1053.79ZM1640.55 1051.92C1640.46 1052.81 1640.33 1053.69 1640.17 1054.58L1643.86 1053.69C1644.28 1052.79 1644.65 1051.88 1644.97 1050.96L1640.55 1051.92ZM1648.35 1050.23C1648.14 1051 1647.89 1051.77 1647.61 1052.52C1648.28 1052.26 1648.93 1051.97 1649.57 1051.65C1650.07 1051.01 1650.54 1050.35 1650.98 1049.66L1648.35 1050.23ZM1418.44 145.594C1421.89 147.99 1424.7 151.152 1426.67 154.799L1403.01 160.482L1398.61 144.808C1398.29 143.668 1397.9 142.551 1397.46 141.464C1404.72 139.861 1412.3 141.347 1418.44 145.594ZM1395.71 145.619L1400.08 161.187L1376.49 166.853L1370.94 148.404L1394.5 142.217C1394.98 143.319 1395.38 144.456 1395.71 145.619ZM1368.02 149.169L1373.56 167.557L1350.74 173.039L1345.03 155.206L1368.02 149.169ZM1342.11 155.973L1347.8 173.746L1325.68 179.06L1319.84 161.819L1342.11 155.973ZM1316.91 162.587L1322.74 179.768L1301.28 184.923L1295.34 168.253L1316.91 162.587ZM1292.39 169.025L1298.31 185.635L1277.46 190.646L1271.44 174.527L1292.39 169.025ZM1268.5 175.298L1274.5 191.357L1254.19 196.235L1248.12 180.648L1268.5 175.298ZM1245.18 181.42L1251.23 196.946L1231.45 201.7L1225.34 186.629L1245.18 181.42ZM1222.4 187.401L1228.48 202.412L1209.19 207.047L1203.07 192.476L1222.4 187.401ZM1200.12 193.252L1206.21 207.763L584.333 357.167C568.825 360.885 559.211 376.541 562.9 392.045L763.882 1238.47C765.524 1245.39 769.653 1251.44 775.49 1255.49C782.244 1260.18 790.696 1261.75 798.689 1259.84L1570.2 1074.48L1571.6 1077.81L767.821 1288.84C760.259 1290.82 752.246 1289.4 745.827 1284.95C740.595 1281.32 736.837 1275.93 735.239 1269.75L509.884 402.093C506.178 387.837 514.771 373.175 529.03 369.44L1200.12 193.252ZM1574.56 1077.04L1573.19 1073.77L1580.73 1071.95L1581.99 1075.08L1574.56 1077.04ZM1584.93 1074.31L1583.69 1071.24L1591.14 1069.45L1591.71 1070.91C1591.9 1071.4 1592.08 1071.9 1592.24 1072.39L1584.93 1074.31ZM1594.52 1069.82L1594.1 1068.74L1601.37 1066.99C1601.65 1067.93 1601.88 1068.87 1602.07 1069.81L1595.17 1071.63C1594.97 1071.02 1594.75 1070.42 1594.52 1069.82ZM1605 1069.04C1604.81 1068.12 1604.58 1067.2 1604.32 1066.29L1611.09 1064.66C1611.23 1065.56 1611.32 1066.46 1611.38 1067.37L1605 1069.04ZM1614.35 1066.59C1614.28 1065.71 1614.18 1064.83 1614.04 1063.95L1620.17 1062.48C1620.17 1063.35 1620.13 1064.23 1620.05 1065.09L1614.35 1066.59ZM1623.13 1064.28C1623.18 1063.44 1623.2 1062.6 1623.18 1061.75L1628.52 1060.47C1628.38 1061.32 1628.2 1062.17 1627.98 1063.01L1623.13 1064.28ZM1631.28 1062.14C1631.45 1061.34 1631.59 1060.53 1631.69 1059.71L1635.91 1058.7C1635.59 1059.55 1635.23 1060.39 1634.83 1061.21L1631.28 1062.14ZM1638.64 1059.97C1638.91 1059.27 1639.15 1058.57 1639.36 1057.87L1641.85 1057.27C1641.43 1057.9 1640.99 1058.52 1640.53 1059.11C1639.91 1059.42 1639.28 1059.7 1638.64 1059.97ZM1393.13 139.462C1391.11 135.908 1388.31 132.823 1384.93 130.473C1378.77 126.203 1371.25 124.646 1363.98 126.061C1364.47 127.201 1364.91 128.379 1365.27 129.59L1370.07 145.517L1393.13 139.462ZM1367.15 146.282L1362.39 130.463C1362.01 129.2 1361.55 127.978 1361.01 126.801L1338.02 133.325L1344.11 152.332L1367.15 146.282ZM1341.19 153.099L1335.11 134.149L1312.63 140.53L1318.87 158.958L1341.19 153.099ZM1315.95 159.726L1309.72 141.355L1287.95 147.533L1294.32 165.404L1315.95 159.726ZM1291.38 166.176L1285.03 148.362L1263.9 154.356L1270.38 171.69L1291.38 166.176ZM1267.44 172.461L1260.99 155.183L1240.47 161.005L1247.02 177.822L1267.44 172.461ZM1244.08 178.593L1237.55 161.832L1217.59 167.497L1224.2 183.813L1244.08 178.593ZM1221.26 184.584L1214.68 168.324L1195.24 173.838L1201.89 189.67L1221.26 184.584ZM1198.94 190.446L1192.31 174.67L473.015 378.775C465.934 380.791 460.045 385.433 456.435 391.876C452.832 398.307 451.94 405.756 453.93 412.853L703.648 1301.75C705.375 1307.89 709.199 1313.28 714.427 1316.89L714.431 1316.91C721.23 1321.63 729.693 1323.03 737.647 1320.78L1573.97 1083.46C1573.91 1083.32 1573.86 1083.18 1573.8 1083.05L1572.78 1080.62L768.577 1291.76C760.16 1293.97 751.253 1292.39 744.101 1287.44C738.287 1283.4 734.1 1277.39 732.315 1270.52L506.97 402.868C502.851 386.997 512.405 370.689 528.274 366.522L1198.94 190.446ZM1575.74 1079.84L1576.59 1081.87C1576.7 1082.12 1576.8 1082.37 1576.9 1082.63L1584 1080.61C1583.75 1079.7 1583.45 1078.8 1583.12 1077.9L1575.74 1079.84ZM1586.05 1077.14C1586.37 1078.01 1586.65 1078.9 1586.9 1079.79L1593.57 1077.9C1593.44 1077.03 1593.27 1076.16 1593.07 1075.29L1586.05 1077.14ZM1595.99 1074.53C1596.19 1075.37 1596.36 1076.22 1596.5 1077.07L1602.68 1075.31C1602.66 1074.48 1602.61 1073.64 1602.52 1072.81L1595.99 1074.53ZM1605.48 1072.03C1605.58 1072.84 1605.64 1073.65 1605.68 1074.46L1611.22 1072.89C1611.32 1072.09 1611.38 1071.28 1611.41 1070.48L1605.48 1072.03ZM1614.45 1069.68C1614.44 1070.46 1614.4 1071.23 1614.34 1072.01L1619.01 1070.68C1619.23 1069.91 1619.42 1069.12 1619.58 1068.33L1614.45 1069.68ZM1622.79 1067.49C1622.67 1068.24 1622.53 1068.99 1622.36 1069.73L1625.81 1068.75C1626.19 1067.99 1626.54 1067.21 1626.85 1066.42L1622.79 1067.49ZM1630.4 1065.49C1630.19 1066.14 1629.96 1066.78 1629.71 1067.41C1630.3 1067.16 1630.89 1066.88 1631.46 1066.59C1631.9 1066.04 1632.32 1065.47 1632.71 1064.88L1630.4 1065.49ZM1351.42 115.351C1354.79 117.69 1357.55 120.65 1359.59 124.088L1337.1 130.469L1331.94 114.361C1331.53 113.093 1331.05 111.863 1330.51 110.673C1337.79 109.432 1345.24 111.061 1351.42 115.351ZM1329.07 115.289L1334.2 131.293L1311.66 137.687L1305.05 118.171L1326.97 111.508C1327.15 111.455 1327.32 111.404 1327.49 111.354C1328.11 112.615 1328.63 113.928 1329.07 115.289ZM1302.16 119.049L1308.76 138.512L1286.94 144.702L1280.18 125.732L1302.16 119.049ZM1277.27 126.615L1284.02 145.531L1262.85 151.537L1255.96 133.092L1277.27 126.615ZM1253.07 133.972L1259.94 152.364L1239.38 158.198L1232.39 140.258L1253.07 133.972ZM1229.49 141.138L1236.46 159.025L1216.46 164.7L1209.39 147.249L1229.49 141.138ZM1206.49 148.129L1213.54 165.527L1194.07 171.051L1186.94 154.072L1206.49 148.129ZM1184.03 154.957L1191.14 171.883L472.204 375.87C464.342 378.102 457.808 383.266 453.806 390.405C449.807 397.562 448.828 405.823 451.03 413.682L700.748 1302.58C702.665 1309.39 706.91 1315.36 712.713 1319.38C720.256 1324.62 729.642 1326.18 738.466 1323.68L1574.99 1086.32C1575.24 1087.14 1575.46 1087.96 1575.65 1088.8L707.469 1352.71C699.116 1355.24 690.203 1353.85 683.024 1348.86L683.02 1348.84C677.713 1345.18 673.923 1339.94 672.058 1333.74L397.966 423.605C395.789 416.329 396.55 408.639 400.15 401.938C403.75 395.237 409.732 390.324 417 388.111L1184.03 154.957ZM1578.56 1087.91C1578.37 1087.1 1578.15 1086.29 1577.9 1085.49L1584.69 1083.56C1584.83 1084.35 1584.95 1085.15 1585.04 1085.94L1578.56 1087.91ZM1587.97 1085.05C1587.87 1084.28 1587.75 1083.51 1587.6 1082.74L1593.89 1080.95C1593.94 1081.71 1593.95 1082.48 1593.94 1083.24L1587.97 1085.05ZM1596.96 1082.32C1596.95 1081.58 1596.92 1080.85 1596.86 1080.11L1602.6 1078.48C1602.54 1079.22 1602.46 1079.95 1602.35 1080.68L1596.96 1082.32ZM1605.52 1079.72C1605.59 1079.02 1605.65 1078.31 1605.68 1077.61L1610.64 1076.2C1610.48 1076.92 1610.28 1077.63 1610.07 1078.34L1605.52 1079.72ZM1613.48 1077.3C1613.64 1076.63 1613.79 1075.95 1613.91 1075.27L1617.78 1074.17C1617.47 1074.89 1617.14 1075.6 1616.79 1076.29L1613.48 1077.3ZM1620.75 1074.87C1620.98 1074.3 1621.19 1073.73 1621.39 1073.15L1623.55 1072.53C1623.18 1073.06 1622.8 1073.58 1622.4 1074.08C1621.86 1074.36 1621.31 1074.62 1620.75 1074.87ZM1326 108.656C1323.93 105.347 1321.21 102.489 1317.93 100.215C1311.73 95.9153 1304.32 94.2097 1297.03 95.2939C1297.63 96.5334 1298.16 97.8177 1298.6 99.1423L1304.08 115.318L1326 108.656ZM1301.19 116.196L1295.74 100.108C1295.25 98.6562 1294.66 97.2573 1293.97 95.9186C1293.39 96.068 1292.82 96.2352 1292.24 96.4205L1272.05 102.948L1279.16 122.892L1301.19 116.196ZM1276.26 123.775L1269.17 103.881L1247.65 110.836L1254.91 130.265L1276.26 123.775ZM1252.01 131.145L1244.78 111.766L1223.91 118.51L1231.29 137.444L1252.01 131.145ZM1228.4 138.324L1221.04 119.44L1200.78 125.989L1208.26 144.446L1228.4 138.324ZM1205.36 145.326L1197.9 126.919L1178.21 133.285L1185.77 151.281L1205.36 145.326ZM1182.86 152.165L1175.32 134.218L360.983 397.476C345.595 402.452 337.1 419.002 342.028 434.391L640.482 1365.76C642.457 1371.93 646.31 1377.15 651.632 1380.84L651.621 1380.83C659.186 1386.08 668.543 1387.47 677.303 1384.64L1576.43 1093.97C1576.38 1093.23 1576.3 1092.49 1576.2 1091.76L708.357 1355.56C699.102 1358.38 689.254 1356.82 681.313 1351.32C675.449 1347.25 671.25 1341.48 669.177 1334.61L395.103 424.475C392.668 416.436 393.53 407.913 397.499 400.501C401.48 393.096 408.096 387.654 416.134 385.218L1182.86 152.165ZM1579.13 1090.87C1579.24 1091.58 1579.33 1092.3 1579.39 1093.01L1585.22 1091.13C1585.25 1090.42 1585.26 1089.71 1585.24 1089.01L1579.13 1090.87ZM1588.23 1088.1C1588.26 1088.78 1588.27 1089.46 1588.26 1090.15L1593.45 1088.47C1593.57 1087.79 1593.67 1087.11 1593.74 1086.42L1588.23 1088.1ZM1596.87 1085.48C1596.82 1086.13 1596.75 1086.78 1596.66 1087.43L1601.09 1086C1601.31 1085.34 1601.5 1084.68 1601.68 1084.01L1596.87 1085.48ZM1605.01 1083C1604.88 1083.63 1604.73 1084.25 1604.57 1084.87L1607.79 1083.83C1608.01 1083.42 1608.22 1082.99 1608.42 1082.56C1608.53 1082.33 1608.64 1082.1 1608.74 1081.87L1605.01 1083ZM1612.43 1080.74C1612.24 1081.27 1612.04 1081.79 1611.82 1082.31C1612.33 1082.08 1612.84 1081.83 1613.33 1081.57C1613.71 1081.1 1614.08 1080.62 1614.43 1080.14L1612.43 1080.74ZM1284.43 85.0632C1287.62 87.2744 1290.3 90.0303 1292.38 93.2073C1292.03 93.3098 1291.67 93.4185 1291.31 93.5336L1271.03 100.089L1265.27 83.9313C1264.78 82.5472 1264.2 81.2067 1263.54 79.9151C1270.83 79.0282 1278.31 80.8186 1284.43 85.0632ZM1262.42 84.9445L1268.15 101.022L1246.59 107.991L1238.99 87.6237L1257.49 81.3004C1258.45 80.9712 1259.43 80.6932 1260.41 80.4659C1261.19 81.8924 1261.86 83.3884 1262.42 84.9445ZM1236.13 88.6004L1243.72 108.921L1222.81 115.679L1215.07 95.7976L1236.13 88.6004ZM1212.21 96.7739L1219.94 116.609L1199.64 123.171L1191.77 103.758L1212.21 96.7739ZM1188.92 104.734L1196.76 124.101L1177.03 130.478L1169.07 111.516L1188.92 104.734ZM1166.2 112.496L1174.14 131.412L360.061 394.597C343.102 400.091 333.72 418.348 339.159 435.319L637.614 1366.69C639.793 1373.51 644.036 1379.26 649.907 1383.32C658.25 1389.11 668.574 1390.64 678.243 1387.51L1576.52 1097.11C1576.51 1097.75 1576.48 1098.38 1576.43 1099.02L647.154 1416.57C638.124 1419.65 628.058 1418.24 620.218 1412.8C614.896 1409.11 610.977 1403.9 608.892 1397.75L286.07 445.132C283.479 437.515 284.028 429.314 287.592 422.071C291.149 414.839 297.314 409.411 304.956 406.805L1166.2 112.496ZM1579.52 1097.96C1579.55 1097.35 1579.56 1096.74 1579.55 1096.13L1584.91 1094.4C1584.82 1095.01 1584.72 1095.62 1584.6 1096.23L1579.52 1097.96ZM1587.85 1095.12C1587.94 1094.54 1588.01 1093.96 1588.07 1093.38L1592.66 1091.89C1592.49 1092.49 1592.3 1093.08 1592.1 1093.66L1587.85 1095.12ZM1595.64 1092.45C1595.8 1091.9 1595.94 1091.35 1596.06 1090.79L1599.65 1089.63C1599.37 1090.23 1599.08 1090.81 1598.77 1091.38L1595.64 1092.45ZM1602.89 1089.77C1603.08 1089.32 1603.26 1088.86 1603.44 1088.41L1605.29 1087.81C1604.98 1088.22 1604.67 1088.63 1604.34 1089.03C1603.87 1089.29 1603.38 1089.53 1602.89 1089.77ZM1258.76 77.7733C1256.66 74.7191 1254.02 72.0614 1250.92 69.912C1244.78 65.6512 1237.35 63.8019 1230.05 64.5438C1230.76 65.8856 1231.39 67.2811 1231.93 68.7241L1237.93 84.8025L1256.52 78.4513C1257.26 78.1978 1258.01 77.9719 1258.76 77.7733ZM1235.07 85.7794L1229.1 69.7699C1228.48 68.1206 1227.74 66.5383 1226.88 65.0341C1225.47 65.325 1224.09 65.7141 1222.72 66.2028L1205.89 72.2504L1213.97 92.9906L1235.07 85.7794ZM1211.12 93.9669L1203.05 73.271L1182.43 80.6838L1190.64 100.964L1211.12 93.9669ZM1187.78 101.94L1179.59 81.704L1159.57 88.8971L1167.9 108.735L1187.78 101.94ZM1165.03 109.715L1156.72 89.9214L248.916 416.156C241.109 418.973 234.847 424.655 231.293 432.156C227.732 439.668 227.315 448.11 230.095 455.926L577.287 1429.77C579.475 1435.9 583.45 1441.1 588.783 1444.8L588.801 1444.8C597.032 1450.51 607.574 1451.89 616.999 1448.5L1575.69 1103.99C1575.81 1103.44 1575.92 1102.89 1576.02 1102.34L648.12 1419.43C638.196 1422.83 627.122 1421.27 618.504 1415.29C612.645 1411.23 608.339 1405.51 606.047 1398.74L283.236 446.13C280.382 437.733 280.988 428.717 284.911 420.756C288.841 412.784 295.616 406.813 304.014 403.959L1165.03 109.715ZM1579.24 1101.24C1579.18 1101.76 1579.1 1102.28 1579.01 1102.8L1583.16 1101.31C1583.36 1100.78 1583.54 1100.25 1583.71 1099.71L1579.24 1101.24ZM1587.16 1098.53C1587.04 1099.03 1586.9 1099.52 1586.76 1100.01L1589.73 1098.95C1590.01 1098.43 1590.29 1097.9 1590.55 1097.37L1587.16 1098.53ZM1594.44 1096.05C1594.28 1096.45 1594.11 1096.84 1593.94 1097.24C1594.39 1097.02 1594.83 1096.79 1595.27 1096.55C1595.56 1096.2 1595.85 1095.84 1596.13 1095.47L1594.44 1096.05ZM1217.44 54.7451C1220.45 56.8328 1223.04 59.3956 1225.14 62.3308C1223.99 62.6116 1222.86 62.9537 1221.73 63.358L1204.8 69.4425L1198.59 53.5061C1198.01 52.0049 1197.33 50.5546 1196.56 49.162C1203.87 48.5485 1211.27 50.4668 1217.44 54.7451ZM1195.78 54.5957L1201.96 70.463L1181.29 77.8892L1172.76 56.8263L1187.99 51.0968C1189.74 50.4377 1191.53 49.9396 1193.34 49.5999C1194.28 51.1816 1195.1 52.8513 1195.78 54.5957ZM1169.94 57.8882L1178.45 78.9095L1158.4 86.1154L1149.74 65.4881L1169.94 57.8882ZM1146.91 66.5539L1155.55 87.1396L247.914 413.304C239.345 416.38 232.484 422.613 228.587 430.857C224.678 439.095 224.215 448.358 227.273 456.931L574.464 1430.77C576.874 1437.5 581.235 1443.21 587.083 1447.27C596.103 1453.53 607.66 1455.05 618.004 1451.33L1574.7 1107.53C1574.54 1108 1574.37 1108.48 1574.19 1108.95L586.825 1480.45C577.005 1484.13 565.995 1482.77 557.377 1476.8L557.373 1476.78C552.035 1473.07 548.006 1467.88 545.714 1461.76L174.149 466.674C167.986 450.175 176.404 431.702 192.901 425.492L1146.91 66.5539ZM1577.86 1107.57C1578 1107.13 1578.12 1106.69 1578.24 1106.26L1581.51 1105.08C1581.27 1105.55 1581.02 1106.02 1580.76 1106.47L1577.86 1107.57ZM1585.33 1104.01C1585.38 1103.89 1585.43 1103.77 1585.48 1103.66L1586.96 1103.13C1586.71 1103.44 1586.46 1103.75 1586.21 1104.05C1585.82 1104.27 1585.44 1104.47 1585.04 1104.67C1585.14 1104.45 1585.24 1104.23 1585.33 1104.01ZM1191.54 46.907C1189.44 44.0821 1186.89 41.6086 1183.96 39.5787C1177.76 35.2764 1170.39 33.2989 1163.07 33.7928C1163.89 35.2316 1164.62 36.7326 1165.25 38.2879L1171.63 54.044L1186.95 48.2827C1188.46 47.7159 1189.99 47.2577 1191.54 46.907ZM1168.81 55.1057L1162.46 39.4213C1161.72 37.5873 1160.82 35.8358 1159.79 34.1815C1157.58 34.5573 1155.39 35.1628 1153.25 36.0023L1139.6 41.357L1148.58 62.7186L1168.81 55.1057ZM1145.74 63.7843L1136.79 42.462L136.887 434.828C128.705 438.038 122.271 444.241 118.735 452.288C115.198 460.336 115.019 469.274 118.2 477.453L514.128 1493.77C516.511 1499.87 520.589 1505.05 525.949 1508.78C534.957 1515.04 546.447 1516.39 556.659 1512.38L1571.75 1114.03C1571.98 1113.63 1572.21 1113.23 1572.43 1112.82L587.874 1483.25C577.121 1487.29 565.076 1485.8 555.654 1479.25C549.813 1475.19 545.395 1469.52 542.893 1462.81L171.328 467.727C164.591 449.669 173.788 429.437 191.844 422.652L1145.74 63.7843ZM1576.49 1111.29L1577.85 1110.78C1577.65 1111.03 1577.44 1111.28 1577.23 1111.53C1576.87 1111.74 1576.5 1111.94 1576.12 1112.13C1576.25 1111.85 1576.37 1111.57 1576.49 1111.29ZM1150.49 24.4192C1153.32 26.3909 1155.81 28.7686 1157.9 31.4721C1155.96 31.8802 1154.04 32.4519 1152.16 33.1894L1138.44 38.5754L1131.92 23.0586C1131.25 21.4553 1130.47 19.909 1129.59 18.4282C1136.92 18.0544 1144.26 20.0923 1150.49 24.4192ZM1129.14 24.2471L1135.62 39.6805L135.787 432.056C126.87 435.558 119.83 442.323 115.98 451.116C112.118 459.903 111.911 469.658 115.388 478.59L511.316 1494.9C513.913 1501.57 518.379 1507.23 524.227 1511.29C534.07 1518.11 546.601 1519.58 557.76 1515.2L1568.66 1118.5C1568.51 1118.68 1568.36 1118.86 1568.21 1119.03C1566.91 1119.78 1565.55 1120.44 1564.14 1121.01L526.51 1544.31C515.89 1548.64 503.935 1547.33 494.524 1540.79L494.513 1540.78C489.146 1537.06 485.009 1531.87 482.541 1525.78L62.239 488.224C55.253 470.985 63.6124 451.231 80.8573 444.186L1118.51 20.9078C1121.03 19.878 1123.62 19.1665 1126.24 18.7677C1127.36 20.4927 1128.33 22.3248 1129.14 24.2471ZM1124.28 16.0439C1121.94 16.4992 1119.62 17.1859 1117.37 18.1073L79.7054 441.397C60.9211 449.06 51.8159 470.594 59.4315 489.38L479.734 1526.93C482.422 1533.57 486.951 1539.22 492.791 1543.28C503.044 1550.38 516.069 1551.82 527.625 1547.1L1560.46 1125.78C1558.82 1126.82 1557.08 1127.73 1555.26 1128.5L496.34 1576.22C485.339 1580.88 472.898 1579.59 463.089 1572.78L463.082 1572.8C457.703 1569.07 453.5 1563.88 450.948 1557.8L6.28244 499.013C2.70085 490.471 2.65384 481.044 6.15478 472.455C9.66265 463.854 16.2905 457.144 24.8351 453.533L1083.75 5.7991C1094.75 1.15887 1107.19 2.44023 1117.01 9.2527C1119.76 11.1619 1122.21 13.45 1124.28 16.0439Z" fill="white"/>
</svg>
