<svg width="1704" height="1814" viewBox="0 0 1704 1814" fill="none" xmlns="http://www.w3.org/2000/svg">
<path opacity="0.05" fill-rule="evenodd" clip-rule="evenodd" d="M38.593 174.112C31.241 176.27 25.6513 182.255 24.0316 189.744C23.3031 193.131 23.4362 196.692 24.4172 200.034L29.0726 215.824C26.147 218.719 24.0526 222.436 23.1572 226.559C22.346 230.35 22.5758 234.293 23.8332 237.993L28.6131 252.014C25.4548 255.02 23.2183 258.942 22.2591 263.357L22.2613 263.344C21.352 267.551 21.6873 271.903 23.2386 275.937L28.0207 288.343C24.6822 291.467 22.3113 295.57 21.3217 300.148L21.3086 300.146C20.3143 304.77 20.7704 309.521 22.6419 313.893L27.2806 324.717C23.8166 327.931 21.3913 332.15 20.36 336.922C19.2631 341.988 19.8531 347.14 22.0602 351.84L26.4546 361.184C22.9125 364.499 20.4253 368.831 19.3701 373.704C18.1994 379.122 18.9379 384.826 21.4656 389.783L25.5149 397.714C21.9352 401.117 19.4157 405.543 18.3562 410.468C17.0851 416.315 17.9815 422.438 20.8733 427.714L24.4972 434.307C20.9258 437.792 18.4045 442.286 17.3268 447.244C15.964 453.547 17.0206 460.076 20.294 465.647L23.4002 470.933C19.8445 474.477 17.38 478.968 16.2866 484.004L16.2889 483.991C14.8211 490.749 16.0334 497.709 19.7016 503.578L22.2311 507.629C18.7386 511.232 16.3117 515.74 15.2204 520.759C13.6609 527.975 15.0464 535.343 19.1095 541.508L21.0005 544.374C17.5971 548.029 15.2227 552.54 14.1405 557.513C12.5073 565.08 14.0957 573.077 18.5168 579.439L19.7204 581.172C16.4197 584.86 14.1076 589.357 13.0478 594.264C11.3075 602.299 13.0932 610.722 17.9267 617.356L18.4073 618.017C15.2229 621.731 12.9836 626.197 11.9399 631.026L11.9531 631.028C10.141 639.365 12.008 648.045 17.0538 654.911C14.0089 658.629 11.8581 663.038 10.8341 667.774C9.01934 676.159 10.7892 684.815 15.6932 691.782C12.7623 695.485 10.7204 699.797 9.70189 704.519C7.88167 712.963 9.55898 721.607 14.3316 728.681C11.5292 732.378 9.56912 736.634 8.57021 741.263L8.55934 741.248C6.72007 749.76 8.32657 758.407 12.9678 765.572C10.2799 769.254 8.39243 773.459 7.41184 778.003L7.42497 778.005C5.59441 786.43 7.16873 795.228 11.6344 802.465C9.05875 806.139 7.23681 810.291 6.26664 814.745L6.25353 814.743C4.42851 823.221 5.92586 832.032 10.2833 839.367C7.80785 843.018 6.05212 847.113 5.10821 851.485C3.255 860.028 4.68855 868.836 8.9426 876.252C6.56202 879.883 4.86396 883.927 3.93678 888.222L3.92366 888.22C2.06365 896.823 3.43782 905.659 7.59638 913.161C5.31271 916.765 3.67483 920.748 2.76555 924.96C0.889438 933.622 2.19284 942.474 6.25012 950.053C4.05425 953.632 2.46744 957.565 1.56574 961.706L1.56798 961.693C-1.17348 974.392 2.71703 987.402 11.9757 996.51L831.469 1802.87C838.647 1809.93 848.154 1813.8 858.241 1813.73C868.326 1813.68 877.772 1809.7 884.846 1802.54L1692.25 985.927C1697.28 980.833 1700.74 974.455 1702.26 967.49C1705.01 954.806 1701.12 941.783 1691.86 932.675L872.368 126.316C868.234 122.249 863.328 119.245 857.983 117.439C854.816 115.057 851.314 113.221 847.593 111.979C844.396 109.56 840.878 107.744 837.199 106.533C834.049 104.115 830.535 102.266 826.787 101.047C823.662 98.6258 820.162 96.7811 816.421 95.5777C813.277 93.1221 809.772 91.3016 806.094 90.1284C802.968 87.64 799.422 85.7638 795.61 84.5816C792.555 82.1365 789.081 80.2944 785.336 79.1363C782.257 76.6283 778.725 74.7529 774.908 73.6018C771.871 71.1079 768.371 69.2474 764.575 68.1159C761.496 65.5519 757.961 63.7 754.223 62.6008C751.165 60.0158 747.63 58.1564 743.885 57.0714C740.897 54.4985 737.375 52.6014 733.511 51.5098C730.503 48.8954 726.975 47.0296 723.226 45.9809C720.29 43.3613 716.768 41.4394 712.863 40.3771C710.099 37.8823 706.785 36.0251 703.103 34.9524C702.909 34.8957 702.714 34.8413 702.518 34.7894C699.576 32.0993 696.032 30.1996 692.24 29.2059C689.319 26.4765 685.761 24.5547 681.945 23.577C679.052 20.819 675.49 18.8812 671.657 17.9233C668.797 15.1456 665.24 13.1957 661.398 12.2577C658.573 9.45534 655.018 7.48757 651.165 6.56587C645.916 1.23874 637.971 -1.11724 630.306 1.12225L38.593 174.112ZM645.609 5.98074C641.43 3.40863 636.217 2.54243 631.147 4.02136L39.4599 177.016C33.162 178.855 28.3815 183.979 27.0007 190.387C26.3707 193.278 26.4842 196.322 27.3316 199.182L31.6043 213.676C33.3193 212.435 35.2269 211.438 37.2773 210.744L639.261 7.11234C641.362 6.4018 643.498 6.03468 645.609 5.98074ZM32.511 216.753C34.1893 215.396 36.1251 214.324 38.2605 213.6L640.22 9.95068C643.341 8.89901 646.553 8.72594 649.582 9.29816C650.346 10.1515 651.033 11.084 651.628 12.0878C650.484 12.3265 649.344 12.659 648.218 13.0894L40.9748 245.465L32.511 216.753ZM30.0546 219.155C28.1396 221.419 26.7748 224.159 26.1132 227.2C25.4072 230.456 25.6089 233.853 26.6847 237.036L31.096 249.975C32.5868 248.924 34.2217 248.048 35.9751 247.378L38.1323 246.553L30.0546 219.155ZM38.9859 249.448L37.0613 250.184C35.2565 250.874 33.5954 251.817 32.1165 252.969L41.6827 281.029L47.5595 278.528L38.9859 249.448ZM48.4142 281.427L42.6541 283.878L52.1883 311.844L56.7534 309.712L48.4142 281.427ZM59.5307 308.414L51.223 280.231L655.439 23.0878L657.243 29.205L59.5307 308.414ZM57.6154 312.635L53.1664 314.713L62.4207 341.858L65.7354 340.177L57.6154 312.635ZM68.4827 338.783L60.3925 311.338L658.106 32.1355L660.035 38.6765L68.4827 338.783ZM66.6029 343.119L63.4038 344.742L72.4053 371.146L74.5246 369.988L66.6029 343.119ZM77.2434 368.503L69.3501 341.725L660.902 41.6189L662.948 48.5608L77.2434 368.503ZM75.3962 372.944L73.3918 374.039L82.1579 399.752L83.1322 399.183L75.3962 372.944ZM85.8239 397.611L78.1149 371.459L663.82 51.5173L665.97 58.812L85.8239 397.611ZM84.0102 402.161L83.1502 402.663L90.6061 424.533L84.0102 402.161ZM94.2399 426.162L86.7017 400.589L666.85 61.7972L669.097 69.4196L94.2399 426.162ZM102.499 454.18L95.1218 429.154L669.977 72.4029L672.32 80.3503L102.499 454.18ZM110.611 481.7L103.387 457.193L673.212 83.3784L675.627 91.5716L110.611 481.7ZM113.906 492.879L111.511 484.752L676.529 94.6313L679.024 103.093L119.183 508.357L113.906 492.879ZM138.701 576.991L136.802 570.549L140.256 579.511L142.107 584.939L138.701 576.991ZM135.911 578.197L139.291 589.661L137.812 590.871L128.141 570.306L131.421 567.722L135.911 578.197ZM124.792 540.485L128.619 553.466L123.481 541.477L124.792 540.485ZM123.422 535.839L123.879 537.387L122.255 538.615L112.851 516.67L115.339 514.869L123.422 535.839ZM110.967 493.592L112.908 500.176L107.918 487.232L108.631 486.74L110.967 493.592ZM140.215 592.797L142.733 601.335L139.134 593.682L140.215 592.797ZM149.35 613.117L145.987 601.71L150.469 612.167L149.35 613.117ZM151.16 619.256L150.283 616.283L151.713 615.07L154.967 622.663L159.495 635.947L159.15 636.249L151.16 619.256ZM148.355 620.406L147.519 618.628L143.46 622.072L153.313 641.371L154.285 640.518L148.355 620.406ZM155.226 643.709L154.73 644.144L156.207 647.037L155.226 643.709ZM163.64 661.595L157.722 641.519L158.12 641.17L167.186 660.449L164.361 663.007L163.64 661.595ZM160.843 662.764L161.641 665.47L157.214 669.48L147.011 650.917L152.387 646.2L160.843 662.764ZM162.593 668.697L168.916 690.144L168.689 690.356L158.714 672.209L162.593 668.697ZM171.378 687.847L168.275 677.319L172.917 686.411L171.378 687.847ZM176.084 703.808L172.334 691.088L174.346 689.21L183.603 707.341L179.952 710.846L176.084 703.808ZM173.298 705.007L176.107 714.536L172.211 718.276L161.937 700.79L167.914 695.213L173.298 705.007ZM177.068 717.795L182.245 735.354L173.782 720.95L177.068 717.795ZM185.652 736.27L180.067 717.32L188.785 733.181L185.652 736.27ZM188.541 746.07L186.619 739.55L190.294 735.927L198.94 751.656L199.474 753.223L195.253 757.492L188.541 746.07ZM185.76 747.277L183.201 742.92L176.684 749.346L186.988 765.851L190.261 762.541L185.76 747.277ZM192.676 760.098L192.055 757.991L193.063 759.707L192.676 760.098ZM191.238 765.856L188.635 768.489L195.039 778.748L191.238 765.856ZM200.979 788.263L193.654 763.413L194.649 762.406L213.602 794.665L216.217 802.335C212.992 801.899 209.952 800.593 207.429 798.596L200.979 788.263ZM198.223 789.548L198.5 790.489C199.705 794.588 202.064 798.039 205.12 800.595L228.261 837.665L228.624 838.73C229.844 842.307 231.918 845.356 234.543 847.728L258.338 885.845L258.774 886.975C259.953 890.042 261.748 892.696 263.962 894.854L288.376 933.962L288.902 935.19C290.005 937.766 291.531 940.035 293.364 941.952L318.497 982.213L319.067 983.425C320.044 985.505 321.29 987.377 322.745 989.017L348.423 1030.15L349.182 1031.64C350.024 1033.28 351.031 1034.79 352.172 1036.16L378.58 1078.46L379.349 1079.86C379.986 1081.01 380.701 1082.1 381.485 1083.11L405.5 1121.58L178.963 778.271L186.454 770.695L198.223 789.548ZM210.798 803.993C212.85 804.817 215.038 805.322 217.284 805.465L223.981 825.109L210.798 803.993ZM223.168 805.003L234.823 824.84L226.786 803.991L224.49 804.663C224.05 804.791 223.609 804.905 223.168 805.003ZM230.547 802.892L238.072 816.582L232.02 802.461L230.547 802.892ZM230.756 799.692L229.061 800.188L227.372 797.115L220.997 780.578L230.756 799.692ZM236.67 801.102L257.614 845.641L258.834 848.03L856.952 645.7C863.174 643.591 867.703 638.519 869.099 632.099L869.086 632.097C869.792 628.842 869.59 625.444 868.512 622.275L731.271 219.675L719.937 231.138L830.376 605.765C831.357 609.106 831.491 612.668 830.764 616.041C829.145 623.53 823.566 629.53 816.19 631.671L236.67 801.102ZM717.497 233.606L827.451 606.601C828.299 609.461 828.425 612.507 827.795 615.398L827.806 615.413C826.412 621.819 821.632 626.943 815.332 628.795L235.373 798.343L214.922 754.853L211.05 745.818L717.497 233.606ZM718.958 227.817L730.178 216.47L726.896 206.84L715.955 217.628L718.958 227.817ZM713.5 220.048L716.518 230.285L209.764 742.816L201.905 724.478L713.5 220.048ZM714.988 214.347L725.815 203.671L722.573 194.16L712.022 204.288L714.988 214.347ZM709.553 206.658L712.533 216.767L200.63 721.502L192.637 702.851L709.553 206.658ZM711.061 201.029L721.499 191.01L718.302 181.63L708.138 191.114L711.061 201.029ZM705.654 193.432L708.593 203.399L191.367 699.888L183.237 680.915L705.654 193.432ZM707.18 187.862L717.23 178.485L714.077 169.235L704.299 178.09L707.18 187.862ZM701.799 180.354L704.696 190.18L181.971 677.962L176.691 665.641L173.916 658.442L701.799 180.354ZM703.352 174.876L713.016 166.123L709.911 157.015L700.516 165.258L703.352 174.876ZM698 167.466L700.852 177.14L172.748 655.412L164.948 635.178L698 167.466ZM699.575 162.065L708.856 153.922L705.811 144.987L696.795 152.635L699.575 162.065ZM694.262 154.785L697.059 164.273L163.791 632.177L155.846 611.564L694.262 154.785ZM695.857 149.455L704.759 141.902L701.766 133.122L693.127 140.194L695.857 149.455ZM690.576 142.282L693.324 151.604L154.696 608.581L146.597 587.573L690.576 142.282ZM692.201 137.05L700.726 130.071L697.79 121.458L689.524 127.971L692.201 137.05ZM686.954 129.996L689.649 139.138L145.457 584.614L143.069 578.418L137.728 562.753L686.954 129.996ZM688.608 124.864L696.761 118.44L693.893 110.026L685.995 116L688.608 124.864ZM683.406 117.959L686.038 126.889L136.696 559.727L129.041 537.271L683.406 117.959ZM685.084 112.91L692.869 107.022L690.071 98.8155L682.537 104.27L685.084 112.91ZM679.927 106.159L682.495 114.868L128.014 534.259L120.203 511.348L679.927 106.159ZM681.633 101.204L689.054 95.8322L686.337 87.8598L679.16 92.8149L681.633 101.204ZM678.258 89.7551L685.32 84.8788L682.69 77.161L675.865 81.6379L678.258 89.7551ZM674.973 78.6097L681.683 74.2075L679.131 66.7218L672.653 70.7419L674.973 78.6097ZM671.774 67.7587L678.138 63.8091L675.692 56.6338L669.551 60.2199L671.774 67.7587ZM668.671 57.2346L674.697 53.7155L672.358 46.8533L666.547 50.0278L668.671 57.2346ZM665.675 47.0713L671.372 43.9596L669.148 37.4357L663.656 40.2218L665.675 47.0713ZM662.788 37.2794L668.165 34.5519L666.072 28.4144L660.889 30.8358L662.788 37.2794ZM660.025 27.9052L665.092 25.5382L663.724 21.5246C663.6 21.1606 663.465 20.8029 663.321 20.4518C661.655 20.6913 659.994 21.1483 658.376 21.8379L658.252 21.8908L660.025 27.9052ZM657.393 18.9754C658.863 18.3666 660.363 17.9232 661.871 17.6369C661.274 16.6884 660.597 15.8061 659.852 14.996C658.624 14.7527 657.367 14.6282 656.099 14.6304C656.172 14.8511 656.242 15.0738 656.308 15.2984L657.393 18.9754ZM652.974 14.8942C651.743 15.1015 650.514 15.4329 649.305 15.8955L41.8282 248.36L50.3684 277.332L654.58 20.1714L653.394 16.15C653.268 15.7231 653.128 15.3044 652.974 14.8942ZM654.852 11.6598C655.139 11.6432 655.425 11.6322 655.71 11.6267C655.305 11.3842 654.89 11.1571 654.468 10.946C654.6 11.1808 654.729 11.4188 654.852 11.6598ZM225.699 801.171L223.634 801.774C222.941 801.977 222.246 802.135 221.55 802.251L216.374 793.441L207.335 766.928L224.621 798.374L225.699 801.171ZM25.202 263.996C25.9219 260.663 27.4928 257.652 29.7028 255.211L38.9069 282.21L34.6729 284.012C33.1826 284.645 31.7791 285.429 30.4797 286.343L26.0555 274.866C24.7075 271.38 24.4177 267.63 25.202 263.996ZM35.8622 286.769L39.8782 285.059L49.4458 313.125L42.1225 316.546L31.6019 289.254C32.8992 288.261 34.3275 287.423 35.8622 286.769ZM43.2089 319.365L50.4239 315.994L59.7097 343.234L53.6039 346.331L43.2089 319.365ZM54.6946 349.16L60.6928 346.117L69.7241 372.61L64.7759 375.313L54.6946 349.16ZM65.8689 378.149L70.7106 375.504L79.505 401.302L75.6595 403.547L65.8689 378.149ZM76.7577 406.396L80.4973 404.212L89.0729 429.368L86.2809 431.101L76.7577 406.396ZM87.3818 433.957L90.0688 432.29L98.4393 456.844L96.6554 458.014L87.3818 433.957ZM97.7614 460.884L99.4408 459.782L107.617 483.767L106.8 484.331L97.7614 460.884ZM171.191 660.909L172.364 664.35L175.663 671.364L174.095 667.297L171.311 660.801L171.191 660.909ZM175.786 683.734L169.594 665.57L168.534 663.316L165.788 665.802L175.216 684.266L175.786 683.734ZM160.779 639.713L160.549 639.038L160.487 639.093L160.779 639.713ZM177.477 688.694L176.855 686.87L176.645 687.065L177.477 688.694ZM181.18 690.207L186.178 704.869L187.485 703.615L181.18 690.207ZM181.456 713.583L184.851 710.325L191.672 730.335L191.018 730.979L181.456 713.583ZM193.888 727.483L194.058 727.982L194.114 727.927L193.888 727.483ZM192.527 733.724L192.752 733.503L193.317 735.161L192.527 733.724ZM195.138 731.15L201.712 750.433L201.898 750.772L204.457 748.183L195.552 730.742L195.138 731.15ZM208.777 780.511L200.565 756.423L196.839 760.192L208.777 780.511ZM221.2 807.597L231.008 836.367L236.878 845.769C239.051 847.649 241.637 849.003 244.414 849.723L241.483 842.12L221.2 807.597ZM245.701 853.062C243.899 852.777 242.146 852.265 240.484 851.547L252.595 870.946L245.701 853.062ZM259.909 867.536L251.479 853.189C252.189 853.108 252.9 852.991 253.609 852.837L259.909 867.536ZM284.135 897.581L260.219 850.744L857.922 648.553C865.034 646.138 870.447 640.082 872.042 632.738C872.866 628.949 872.636 625.007 871.379 621.307L733.645 217.274L743.567 207.239L909.578 637.923C910.926 641.408 911.214 645.172 910.432 648.792L910.434 648.779C909.064 655.122 904.643 660.28 898.588 662.593L286.344 896.882C285.613 897.162 284.876 897.395 284.135 897.581ZM742.372 204.137L732.552 214.069L729.285 204.484L738.865 195.039L742.372 204.137ZM737.682 191.971L728.204 201.316L724.978 191.852L734.218 182.983L737.682 191.971ZM733.041 179.931L723.904 188.701L720.723 179.37L729.624 171.065L733.041 179.931ZM728.448 168.016L719.651 176.225L716.515 167.026L725.078 159.272L728.448 168.016ZM723.914 156.253L715.455 163.915L712.367 154.859L720.595 147.641L723.914 156.253ZM719.437 144.638L711.313 151.766L708.286 142.887L716.181 136.189L719.437 144.638ZM715.025 133.192L707.235 139.802L704.261 131.08L711.825 124.888L715.025 133.192ZM710.681 121.922L703.221 128.029L700.305 119.476L707.541 113.775L710.681 121.922ZM706.409 110.838L699.277 116.458L696.43 108.107L703.341 102.88L706.409 110.838ZM702.213 99.9537L695.406 105.103L692.631 96.9628L699.221 92.1917L702.213 99.9537ZM698.1 89.2838L691.614 93.9795L688.92 86.0765L695.194 81.7441L698.1 89.2838ZM694.073 78.8354L687.903 83.0954L685.297 75.4504L691.26 71.5384L694.073 78.8354ZM690.148 68.6536L684.29 72.4969L681.764 65.0875L687.421 61.5772L690.148 68.6536ZM686.323 58.7296L680.771 62.1748L678.353 55.08L683.71 51.9514L686.323 58.7296ZM682.609 49.0949L677.358 52.1617L675.048 45.3842L680.113 42.6175L682.609 49.0949ZM679.02 39.7819L674.061 42.4905L671.868 36.0559L676.479 33.7163C676.536 33.6877 676.592 33.6594 676.649 33.6313L679.02 39.7819ZM675.117 31.025L670.884 33.1721L668.843 27.1829C670.429 26.5803 672.052 26.188 673.677 25.9937C673.81 26.2908 673.935 26.5927 674.054 26.8993L675.56 30.8059C675.412 30.8773 675.264 30.9503 675.117 31.025ZM672.123 23.1717C670.692 23.417 669.268 23.7985 667.868 24.3227L666.588 20.57C666.553 20.4645 666.516 20.3594 666.479 20.2549C667.708 20.277 668.928 20.4138 670.121 20.659C670.851 21.4317 671.522 22.2708 672.123 23.1717ZM665.8 17.2406C665.581 17.2435 665.363 17.2496 665.144 17.2589C665.046 17.0776 664.945 16.8981 664.842 16.7205C665.166 16.8848 665.486 17.0582 665.8 17.2406ZM249.782 850.3C250.651 850.266 251.524 850.169 252.397 850.008L250.251 845L235.453 818.081L244.233 840.856L249.782 850.3ZM29.2063 291.419C26.7764 294.003 25.0488 297.227 24.28 300.776C23.4175 304.788 23.8195 308.909 25.4397 312.698L29.739 322.73C30.8724 321.934 32.0865 321.232 33.3727 320.634L39.3851 317.825L29.2063 291.419ZM40.4715 320.643L34.6475 323.364C33.326 323.981 32.0923 324.723 30.9584 325.576L42.3088 352.061L50.9018 347.702L40.4715 320.643ZM51.9924 350.531L43.4995 354.84L54.6447 380.847L62.1069 376.771L51.9924 350.531ZM63.1999 379.607L55.8367 383.629L66.6319 408.819L73.022 405.088L63.1999 379.607ZM74.1201 407.936L67.8282 411.611L78.3024 436.052L83.6731 432.719L74.1201 407.936ZM84.774 435.575L79.5006 438.848L89.6762 462.593L94.0758 459.707L84.774 435.575ZM95.1818 462.576L90.8787 465.399L100.775 488.491L104.247 486.094L95.1818 462.576ZM105.365 488.995L101.989 491.326L111.631 513.824L114.215 511.953L105.365 488.995ZM210.534 753.436L208.81 748.964L212.007 755.762L213.498 759.24L210.534 753.436ZM190.866 710.805L196.543 725.532L196.372 725.7L187.314 707.96L188.84 706.496L190.866 710.805ZM207.792 754.715L216.539 777.408L203.418 753.537L205.906 751.021L207.792 754.715ZM261.057 884.502L250.895 858.138L269.323 889.504L272.454 896.81C270.19 895.917 268.097 894.598 266.307 892.911L261.057 884.502ZM270.189 899.129C271.424 899.698 272.711 900.155 274.032 900.492L280.585 915.783L270.189 899.129ZM279.677 901.181L283.257 907.275L280.384 901.165C280.254 901.17 280.123 901.174 279.993 901.177C279.888 901.179 279.782 901.181 279.677 901.181ZM285.544 900.341L304.264 937.003L309.209 945.999C312.039 946.107 314.935 945.61 317.708 944.43L940.222 679.5C946.122 676.985 950.448 671.756 951.804 665.492L951.802 665.505C952.677 661.495 952.275 657.375 950.644 653.57L754.593 196.087L745.891 204.889L912.395 636.852C913.946 640.885 914.295 645.24 913.385 649.447C911.795 656.764 906.665 662.747 899.669 665.425L287.426 899.714C286.803 899.953 286.175 900.162 285.544 900.341ZM744.695 201.787L753.304 193.08L749.605 184.448L741.205 192.731L744.695 201.787ZM740.022 189.663L748.33 181.472L744.675 172.944L736.575 180.72L740.022 189.663ZM735.398 177.668L743.406 169.982L739.8 161.569L731.999 168.849L735.398 177.668ZM730.824 165.799L738.531 158.607L734.975 150.308L727.472 157.103L730.824 165.799ZM726.308 154.085L733.718 147.375L730.214 139.2L723.008 145.523L726.308 154.085ZM721.851 142.52L728.963 136.28L725.526 128.261L718.614 134.124L721.851 142.52ZM717.459 131.127L724.276 125.344L720.898 117.461L714.28 122.879L717.459 131.127ZM713.136 119.912L719.66 114.572L716.346 106.838L710.018 111.823L713.136 119.912ZM708.886 108.886L715.119 103.975L711.881 96.4201L705.842 100.988L708.886 108.886ZM704.714 98.0623L710.658 93.5662L707.501 86.1982L701.746 90.3638L704.714 98.0623ZM700.626 87.4559L706.284 83.3596L703.218 76.2041L697.745 79.9828L700.626 87.4559ZM696.624 77.0741L702 73.3621L699.033 66.4393L693.838 69.8473L696.624 77.0741ZM692.726 66.9624L697.824 63.6179L694.948 56.906L690.027 59.9598L692.726 66.9624ZM688.929 57.1123L693.753 54.1186L691 47.6943L686.347 50.4118L688.929 57.1123ZM685.246 47.5554L689.801 44.8952L687.202 38.8312C686.644 39.0785 686.094 39.3501 685.553 39.6457L682.781 41.1601L685.246 47.5554ZM681.688 38.3245L684.1 37.0065C684.729 36.6632 685.368 36.3484 686.015 36.0623L684.386 32.2608C684.279 32.0095 684.166 31.7615 684.05 31.517C682.502 31.6649 680.955 31.985 679.437 32.4861L681.688 38.3245ZM678.351 29.6675C679.683 29.2183 681.037 28.8921 682.396 28.6841C681.8 27.8353 681.144 27.0432 680.435 26.3112C679.271 26.0608 678.083 25.9102 676.885 25.8644L678.351 29.6675ZM675.46 22.8437C675.618 22.8396 675.776 22.837 675.934 22.8361C675.705 22.7065 675.473 22.5816 675.238 22.4613C675.314 22.5878 675.388 22.7153 675.46 22.8437ZM278.964 898.147C278.594 898.136 278.224 898.115 277.856 898.083L272.114 888.31L265.24 872.269L276.003 891.849L278.964 898.147ZM23.3161 337.563C24.1357 333.774 25.9596 330.387 28.5574 327.697L39.5901 353.441L32.0727 357.254C30.9473 357.826 29.8782 358.477 28.8716 359.2L24.8059 350.554C22.874 346.455 22.3599 341.964 23.3161 337.563ZM33.4352 359.946L40.7808 356.219L51.9631 382.312L42.2378 387.625L30.1803 361.983C31.1918 361.215 32.2797 360.532 33.4352 359.946ZM43.522 390.356L53.1551 385.094L63.9853 410.365L55.3127 415.43L43.522 390.356ZM56.6003 418.168L65.1816 413.156L75.6888 437.674L68.013 442.438L56.6003 418.168ZM69.3014 445.178L76.887 440.47L87.0939 464.287L80.3636 468.702L69.3014 445.178ZM81.6553 471.449L88.2963 467.093L98.2221 490.254L92.3911 494.28L81.6553 471.449ZM93.695 497.053L99.4369 493.088L109.106 515.651L104.134 519.251L93.695 497.053ZM105.442 522.033L110.326 518.498L119.757 540.504L115.605 543.645L105.442 522.033ZM116.919 546.44L120.984 543.366L130.192 564.853L126.825 567.506L116.919 546.44ZM251.804 840.915L253.065 843.858L255.627 848.519L254.936 847.05L251.804 840.915ZM281.529 910.279L291.119 932.657L295.716 940.022C297.075 941.411 298.621 942.582 300.297 943.509L297.264 937.06L281.529 910.279ZM302.27 947.705C301.459 947.417 300.664 947.085 299.89 946.708L307.633 959.111L302.27 947.705ZM335.179 993.246L310.866 949.014C313.553 948.907 316.264 948.321 318.879 947.21L941.395 682.267C948.197 679.379 953.187 673.346 954.747 666.131C955.754 661.509 955.285 656.755 953.413 652.383L756.876 193.779L764.512 186.056L991.723 669.221C993.644 673.304 994.156 677.808 993.2 682.209L993.202 682.196C991.839 688.5 987.71 693.681 981.868 696.409L349.082 991.994C344.565 994.102 339.661 994.423 335.179 993.246ZM763.138 183.134L755.587 190.771L751.905 182.18L759.273 174.916L763.138 183.134ZM757.913 172.023L750.63 179.204L746.993 170.719L754.094 163.903L757.913 172.023ZM752.739 161.022L745.724 167.756L742.138 159.388L748.972 153.011L752.739 161.022ZM747.617 150.129L740.868 156.426L737.332 148.174L743.9 142.225L747.617 150.129ZM742.557 139.37L736.075 145.241L732.592 137.114L738.895 131.583L742.557 139.37ZM737.558 128.738L731.34 134.194L727.925 126.225L733.966 121.101L737.558 128.738ZM732.629 118.257L726.675 123.308L723.32 115.479L729.098 110.749L732.629 118.257ZM727.773 107.931L722.082 112.589L718.791 104.911L724.308 100.564L727.773 107.931ZM722.995 97.77L717.564 102.049L714.352 94.5517L719.611 90.5739L722.995 97.77ZM718.3 87.7864L713.129 91.6978L709.997 84.391L715 80.7694L718.3 87.7864ZM713.695 77.9949L708.781 81.5525L705.742 74.4614L710.491 71.182L713.695 77.9949ZM709.184 68.4017L704.524 71.6194L701.586 64.7646L706.086 61.8129L709.184 68.4017ZM704.786 59.0503L700.377 61.9431L697.531 55.3027L701.783 52.664L704.786 59.0503ZM700.499 49.9326L696.337 52.5154L693.616 46.1668L694.611 45.5857C695.623 44.9942 696.668 44.4859 697.738 44.0619L700.499 49.9326ZM693.071 42.9855L692.416 43.3677L690.031 37.8018C691.465 37.3892 692.931 37.1264 694.412 37.0151C694.516 37.2195 694.618 37.4264 694.716 37.6357L696.453 41.3293C695.297 41.7956 694.167 42.3481 693.071 42.9855ZM692.653 34.1718C691.364 34.3504 690.089 34.6312 688.836 35.013L687.312 31.4573C688.469 31.5251 689.615 31.6869 690.74 31.939C691.425 32.6302 692.065 33.3753 692.653 34.1718ZM686.052 28.4064C686.012 28.4064 685.973 28.4065 685.934 28.4067C685.887 28.4069 685.84 28.4073 685.792 28.4078L685.759 28.3518L685.725 28.2952C685.706 28.2637 685.687 28.2323 685.668 28.201C685.752 28.2446 685.835 28.2889 685.918 28.3337C685.963 28.3578 686.007 28.382 686.052 28.4064ZM27.814 364.075C25.0855 366.878 23.1644 370.412 22.313 374.343C21.2853 379.083 21.9439 384.071 24.1569 388.421L27.8865 395.725C28.7987 395.052 29.7616 394.438 30.7705 393.889L39.5728 389.08L27.814 364.075ZM40.8571 391.811L32.2229 396.528C31.1842 397.096 30.2013 397.741 29.2807 398.456L41.9362 423.241L52.6853 416.964L40.8571 391.811ZM53.9729 419.702L43.3089 425.929L55.6541 450.107L65.4209 444.046L53.9729 419.702ZM66.7094 446.786L57.0266 452.795L68.9666 476.179L77.805 470.381L66.7094 446.786ZM79.0967 473.128L70.3412 478.872L81.9055 501.52L89.8641 496.025L79.0967 473.128ZM91.168 498.798L83.2921 504.236L94.5145 526.214L101.637 521.059L91.168 498.798ZM102.945 523.841L95.9048 528.937L106.811 550.296L113.136 545.512L102.945 523.841ZM114.45 548.307L108.207 553.03L118.819 573.814L124.383 569.429L114.45 548.307ZM125.7 572.23L120.216 576.551L130.56 596.808L135.396 592.849L125.7 572.23ZM136.718 595.66L131.961 599.553L142.049 619.311L146.189 615.799L136.718 595.66ZM299.983 935.743L299.11 933.886L301.391 938.035L301.794 938.825L299.983 935.743ZM321.165 980.787L313.989 965.528L324.974 984.225L327.684 989.531C326.782 988.825 325.935 988.039 325.155 987.179L321.165 980.787ZM329.626 994.34C329.852 994.456 330.081 994.568 330.311 994.677L332.445 998.856L329.626 994.34ZM337.083 996.709L355.635 1030.46L360.884 1039.39C366.784 1042.5 374.058 1042.81 380.44 1039.57L1023.5 713.328C1029.21 710.429 1033.25 705.18 1034.61 698.929L1034.62 698.931C1035.65 694.191 1034.99 689.189 1032.79 684.855L773.464 177.002L766.768 183.774L994.453 667.946C996.66 672.646 997.25 677.798 996.156 682.851C994.594 690.079 989.849 696.019 983.154 699.154L350.354 994.737C346.061 996.743 341.46 997.336 337.083 996.709ZM765.394 180.852L772.012 174.159L768.003 166.308L761.548 172.673L765.394 180.852ZM760.188 169.78L766.565 163.492L762.604 155.734L756.388 161.701L760.188 169.78ZM755.033 158.82L761.171 152.928L757.263 145.274L751.286 150.851L755.033 158.82ZM749.931 147.969L755.828 142.466L751.972 134.914L746.235 140.11L749.931 147.969ZM744.892 137.255L750.551 132.13L746.752 124.69L741.253 129.515L744.892 137.255ZM739.915 126.67L745.334 121.915L741.608 114.617L736.346 119.081L739.915 126.67ZM735.009 116.238L740.191 111.842L736.527 104.667L731.502 108.781L735.009 116.238ZM730.177 105.962L735.122 101.915L731.527 94.8755L726.738 98.6492L730.177 105.962ZM725.424 95.8557L730.133 92.1454L726.622 85.2702L722.067 88.7161L725.424 95.8557ZM720.756 85.9287L725.231 82.5443L721.808 75.8413L717.484 78.9711L720.756 85.9287ZM716.179 76.1966L720.421 73.126L717.099 66.6198L713.005 69.4464L716.179 76.1966ZM711.698 66.6661L715.708 63.8967L712.497 57.6071L708.63 60.1435L711.698 66.6661ZM707.331 57.3808L711.038 54.9488L711.114 54.8994L708.256 49.3025C706.929 49.7675 705.627 50.3583 704.367 51.0784L707.331 57.3808ZM703.088 48.3577C704.322 47.6669 705.59 47.0854 706.881 46.6104L705.035 42.995C704.952 42.8325 704.868 42.6715 704.781 42.512C703.381 42.5897 701.993 42.7978 700.632 43.1347L703.088 48.3577ZM699.328 40.3611C700.508 40.0394 701.707 39.8032 702.918 39.6537C702.331 38.896 701.699 38.1859 701.027 37.5254C699.942 37.2746 698.85 37.1068 697.757 37.0211L699.328 40.3611ZM696.129 33.938L696.135 33.938L696.126 33.9335L696.129 33.938ZM21.3122 411.11C22.1857 407.08 24.1589 403.437 26.9578 400.54L39.3266 424.765L29.4682 430.522C28.5504 431.057 27.6717 431.647 26.8355 432.286L23.5256 426.264C20.9833 421.628 20.2017 416.254 21.3122 411.11ZM30.9952 433.12L40.6992 427.453L53.081 451.704L41.47 458.91L28.3087 434.966C29.1543 434.29 30.0515 433.673 30.9952 433.12ZM42.9209 461.549L54.4535 454.392L66.4279 477.845L55.7344 484.86L42.9209 461.549ZM57.1862 487.502L67.8025 480.537L79.3994 503.25L69.5724 510.036L57.1862 487.502ZM71.0358 512.698L80.7859 505.966L92.0392 528.006L83.0337 534.525L71.0358 512.698ZM84.5002 537.193L93.4295 530.729L104.365 552.147L96.1393 558.368L84.5002 537.193ZM97.6106 561.045L105.76 554.88L116.4 575.719L108.918 581.615L97.6106 561.045ZM110.39 584.293L117.798 578.456L128.168 598.766L121.393 604.312L110.39 584.293ZM122.869 606.996L129.569 601.512L139.683 621.319L133.585 626.492L122.869 606.996ZM135.069 629.191L141.093 624.08L150.97 643.427L145.521 648.208L135.069 629.191ZM350.948 1028.43L351.125 1028.78L351.578 1029.51L350.948 1028.43ZM387.793 1085.19L363.404 1043.68C369.283 1045.57 375.876 1045.23 381.794 1042.23L1024.85 716.004C1031.37 712.691 1036.01 706.704 1037.55 699.555C1038.74 694.152 1037.99 688.432 1035.46 683.488L775.694 174.746L781.573 168.8L1073.83 700.485C1076.38 705.108 1077.16 710.495 1076.05 715.64L1076.06 715.642C1074.71 721.853 1070.74 727.169 1065.15 730.224L411.819 1087.11C403.92 1091.43 394.501 1090.37 387.793 1085.19ZM780.05 166.029L774.242 171.903L770.253 164.09L775.915 158.507L780.05 166.029ZM774.406 155.761L768.815 161.274L764.874 153.555L770.32 148.327L774.406 155.761ZM768.815 145.59L763.441 150.749L759.554 143.136L764.784 138.256L768.815 145.59ZM763.277 135.515L758.12 140.328L754.286 132.819L759.299 128.278L763.277 135.515ZM757.805 125.56L752.865 130.035L749.088 122.639L753.886 118.43L757.805 125.56ZM752.396 115.719L747.671 119.864L743.969 112.614L748.552 108.726L752.396 115.719ZM747.061 106.013L742.552 109.838L738.914 102.713L743.282 99.1384L747.061 106.013ZM741.802 96.4464L737.509 99.9607L733.941 92.9735L738.094 89.7012L741.802 96.4464ZM736.626 87.0298L732.547 90.2434L729.065 83.4229L733.005 80.4427L736.626 87.0298ZM731.538 77.7737L727.673 80.697L724.28 74.0517L728.008 71.3527L731.538 77.7737ZM726.546 68.6924L722.893 71.3364L719.602 64.8913L721.759 63.4021C722.215 63.087 722.678 62.7891 723.147 62.5082L726.546 68.6924ZM720.024 60.9171L718.212 62.1681L715.103 56.08C716.296 55.4759 717.528 54.9747 718.788 54.5786L721.687 59.8524C721.124 60.1854 720.57 60.5402 720.024 60.9171ZM717.31 51.8896C716.089 52.3027 714.894 52.8041 713.731 53.3921L711.222 48.4786C712.53 48.2068 713.85 48.0493 715.169 48.0026C715.236 48.1198 715.302 48.2378 715.368 48.3566L717.31 51.8896ZM713.213 45.1363C712.074 45.2566 710.939 45.4511 709.814 45.7216L708.212 42.5826C709.263 42.6839 710.315 42.8588 711.36 43.108C712.017 43.7424 712.636 44.4195 713.213 45.1363ZM26.0162 437.07C23.1785 440.058 21.1705 443.796 20.2828 447.885C19.0743 453.445 20.0051 459.209 22.8897 464.133L25.6913 468.901C26.4854 468.275 27.3205 467.689 28.1944 467.148L38.8984 460.505L26.0162 437.07ZM40.3493 463.145L29.7829 469.703C28.8859 470.259 28.035 470.868 27.2333 471.526L40.8179 494.646L53.2 486.523L40.3493 463.145ZM54.6517 489.164L42.3417 497.24L55.549 519.718L67.0731 511.761L54.6517 489.164ZM68.5365 514.424L57.084 522.331L69.8542 544.066L80.5675 536.31L68.5365 514.424ZM82.0341 538.979L71.3917 546.683L83.7592 567.732L93.7046 560.21L82.0341 538.979ZM95.1759 562.886L85.3007 570.356L97.2962 590.772L106.513 583.51L95.1759 562.886ZM107.985 586.188L98.8377 593.395L110.494 613.234L119.017 606.257L107.985 586.188ZM120.492 608.942L112.038 615.862L123.374 635.155L131.235 628.486L120.492 608.942ZM132.719 631.185L124.925 637.796L135.968 656.59L143.197 650.247L132.719 631.185ZM144.687 652.957L137.525 659.24L148.29 677.562L154.914 671.563L144.687 652.957ZM156.414 674.292L149.858 680.231L160.369 698.12L166.412 692.481L156.414 674.292ZM390.952 1090.57C397.871 1093.7 406.122 1093.66 413.269 1089.76L1066.61 732.865C1072.96 729.4 1077.48 723.354 1079.02 716.283C1080.29 710.437 1079.39 704.313 1076.5 699.051L783.791 166.557L788.944 161.345L1114.9 716.133C1117.79 721.044 1118.71 726.821 1117.51 732.381L1117.5 732.394C1116.17 738.582 1112.27 743.963 1106.79 747.158L443.191 1134.68C433.071 1140.59 420.193 1137.77 413.394 1128.53L411.004 1124.7L390.952 1090.57ZM782.267 163.786L787.355 158.641L783.109 151.414L778.153 156.301L782.267 163.786ZM776.643 153.555L781.534 148.733L777.338 141.591L772.578 146.16L776.643 153.555ZM771.074 143.423L775.767 138.917L771.627 131.871L767.064 136.128L771.074 143.423ZM765.557 133.387L770.053 129.192L765.968 122.239L761.602 126.192L765.557 133.387ZM760.108 123.474L764.407 119.582L760.382 112.731L756.213 116.388L760.108 123.474ZM754.723 113.677L758.824 110.079L754.876 103.361L750.904 106.73L754.723 113.677ZM749.413 104.017L753.316 100.706L749.436 94.1006L745.661 97.1909L749.413 104.017ZM744.181 94.4989L747.887 91.4649L744.08 84.9847L740.501 87.8046L744.181 94.4989ZM739.033 85.1333L742.543 82.3679L738.825 76.0404L735.441 78.5997L739.033 85.1333ZM733.974 75.9308L737.288 73.4244L733.787 67.4655C732.76 68.0137 731.759 68.6375 730.791 69.3381L730.476 69.5664L733.974 75.9308ZM729.014 66.9061L729.021 66.901C730.068 66.1426 731.151 65.4648 732.26 64.8662L729.32 59.8631C728.138 60.1897 726.971 60.6061 725.83 61.1139L729.014 66.9061ZM724.368 58.4541C725.473 57.9516 726.6 57.5262 727.742 57.1764L725.702 53.7047C725.685 53.6752 725.667 53.6458 725.65 53.6163C725.622 53.5698 725.595 53.5234 725.567 53.4771C724.31 53.4995 723.061 53.6199 721.829 53.8364L724.368 58.4541ZM720.305 51.0636C721.358 50.8374 722.424 50.6743 723.498 50.5753C722.94 49.9101 722.347 49.2801 721.721 48.6874C720.727 48.4408 719.718 48.2584 718.699 48.1418L720.305 51.0636ZM19.2426 484.645C20.1521 480.444 22.1357 476.676 24.9848 473.631L38.302 496.297L26.8923 503.782C26.0545 504.332 25.2531 504.922 24.49 505.549L22.2692 501.991C19.0269 496.79 17.949 490.623 19.2426 484.645ZM28.5577 506.282L39.8257 498.89L53.0689 521.431L40.0264 530.436L26.0977 508.124C26.872 507.465 27.6929 506.85 28.5577 506.282ZM41.6284 533.002L54.6039 524.044L67.408 545.837L55.1704 554.695L41.6284 533.002ZM56.7742 557.264L68.9455 548.453L81.345 569.558L69.8679 578.239L56.7742 557.264ZM71.475 580.813L82.8865 572.182L94.9123 592.65L84.1554 601.126L71.475 580.813ZM85.7616 603.699L96.4539 595.274L108.139 615.162L98.0654 623.408L85.7616 603.699ZM99.6734 625.984L109.683 617.79L121.046 637.13L111.623 645.125L99.6734 625.984ZM113.238 647.712L122.597 639.771L133.666 658.61L124.863 666.334L113.238 647.712ZM126.483 668.929L135.223 661.26L146.012 679.624L137.801 687.06L126.483 668.929ZM139.432 689.673L147.58 682.293L158.115 700.223L150.471 707.356L139.432 689.673ZM152.102 709.968L159.683 702.893L169.98 720.418L162.88 727.233L152.102 709.968ZM164.512 729.848L171.551 723.092L181.626 740.24L175.048 746.725L164.512 729.848ZM442.215 1174.69L418.916 1137.37C426.661 1141.78 436.492 1142.07 444.72 1137.27L1108.32 749.743C1114.52 746.118 1118.95 740.016 1120.46 733.009C1121.82 726.719 1120.77 720.177 1117.5 714.606L791.137 159.128L795.649 154.564L1155.97 731.755C1159.22 736.958 1160.29 743.11 1159 749.101L1159.01 749.103C1157.67 755.356 1153.91 760.669 1148.47 764.046L474.595 1182.22C463.581 1189.05 449.073 1185.67 442.215 1174.69ZM793.999 151.921L789.548 156.423L785.322 149.232L789.654 144.96L793.999 151.921ZM788.018 142.34L783.747 146.551L779.573 139.446L783.724 135.461L788.018 142.34ZM782.091 132.847L778.002 136.772L773.884 129.764L777.855 126.059L782.091 132.847ZM776.218 123.439L772.311 127.085L768.249 120.173L772.038 116.742L776.218 123.439ZM770.414 114.141L766.688 117.516L762.688 110.707L766.295 107.542L770.414 114.141ZM764.674 104.946L761.13 108.055L757.209 101.382L760.635 98.4753L764.674 104.946ZM759.011 95.8744L755.649 98.7268L751.796 92.1688L755.04 89.5132L759.011 95.8744ZM753.427 86.9299L750.247 89.533L746.469 83.1022L748.868 81.2118C749.09 81.0376 749.313 80.8671 749.538 80.7003L753.427 86.9299ZM747.003 78.8531L744.932 80.4854L741.274 74.2605C742.285 73.5949 743.333 73.0024 744.41 72.4847L747.941 78.1418C747.625 78.3724 747.312 78.6095 747.003 78.8531ZM742.803 69.9117C741.756 70.4303 740.735 71.0129 739.745 71.6583L736.538 66.1985C737.62 65.7752 738.722 65.4289 739.836 65.1583L742.803 69.9117ZM738.165 62.4809C737.094 62.7804 736.036 63.1435 734.994 63.5712L732.434 59.2134C733.608 59.0455 734.788 58.9616 735.966 58.9601C735.985 58.9904 736.005 59.0207 736.023 59.0511L738.165 62.4809ZM733.786 56.0321C732.786 56.1096 731.788 56.2406 730.796 56.426L729.184 53.683C729.782 53.7618 730.379 53.8629 730.975 53.9865C731.33 54.0601 731.683 54.1413 732.032 54.2297C732.644 54.7944 733.23 55.3954 733.786 56.0321ZM23.8801 510.271C21.0551 513.38 19.089 517.187 18.1764 521.401C16.7955 527.809 18.0096 534.365 21.6358 539.847L23.2159 542.242C23.9751 541.587 24.773 540.97 25.6074 540.392L37.5403 532.153L23.8801 510.271ZM39.1422 534.719L27.3297 542.875C26.474 543.466 25.6613 544.104 24.8945 544.786L39.1065 566.324L52.72 556.469L39.1422 534.719ZM54.3238 559.038L40.7723 568.848L54.5926 589.793L67.4512 580.067L54.3238 559.038ZM69.0583 582.641L56.261 592.321L69.6254 612.574L81.7706 603.005L69.0583 582.641ZM83.3768 605.578L71.292 615.1L84.2414 634.724L95.7109 625.335L83.3768 605.578ZM97.3188 627.911L85.9088 637.251L98.4686 656.285L109.297 647.098L97.3188 627.911ZM110.912 649.685L100.142 658.822L112.346 677.316L122.564 668.351L110.912 649.685ZM124.184 670.946L114.025 679.86L125.893 697.845L135.529 689.119L124.184 670.946ZM137.159 691.731L127.582 700.405L139.144 717.927L148.223 709.454L137.159 691.731ZM149.853 712.065L140.831 720.484L152.108 737.574L160.655 729.369L149.853 712.065ZM162.288 731.983L153.797 740.134L164.809 756.822L172.846 748.897L162.288 731.983ZM174.482 751.517L166.501 759.386L177.26 775.69L184.807 768.057L174.482 751.517ZM446.416 1183.59L472.315 1222.84C479.682 1234 494.776 1237.11 505.972 1229.77L1190.12 780.941C1195.46 777.439 1199.15 772.074 1200.5 765.836L1200.48 765.847C1201.86 759.426 1200.65 752.883 1197.02 747.387L801.763 148.38L797.83 152.358L1158.54 730.168C1162.19 736.034 1163.42 742.984 1161.95 749.742C1160.42 756.8 1156.19 762.789 1150.06 766.6L476.182 1184.79C466.707 1190.67 454.909 1189.83 446.416 1183.59ZM796.18 149.715L800.057 145.794L795.623 139.075L791.856 142.789L796.18 149.715ZM790.22 140.169L793.93 136.51L789.549 129.87L785.948 133.326L790.22 140.169ZM784.316 130.711L787.859 127.31L783.536 120.758L780.103 123.962L784.316 130.711ZM778.467 121.341L781.842 118.191L777.576 111.726L774.31 114.683L778.467 121.341ZM772.687 112.083L775.895 109.178L771.691 102.807L768.594 105.525L772.687 112.083ZM766.973 102.929L770.012 100.262L765.89 94.0165L762.961 96.5021L766.973 102.929ZM761.337 93.9011L764.207 91.4658L760.235 85.4453C759.437 85.9752 758.661 86.548 757.911 87.1631L757.395 87.5858L761.337 93.9011ZM755.782 85.0024L755.987 84.8348C756.822 84.1518 757.685 83.5157 758.573 82.9275L755.017 77.5387C754.006 77.9765 753.018 78.4765 752.058 79.0376L755.782 85.0024ZM750.464 76.4839C751.398 75.9336 752.357 75.4355 753.336 74.9907L750.343 70.4548C749.292 70.6799 748.256 70.9686 747.24 71.3197L750.464 76.4839ZM745.605 68.6999C746.577 68.3377 747.568 68.0275 748.572 67.7703L746.367 64.4287C745.258 64.4119 744.146 64.4655 743.039 64.5907L745.605 68.6999ZM741.292 61.7907C742.219 61.6393 743.151 61.5337 744.084 61.4731C743.549 60.8798 742.987 60.3154 742.399 59.7813C741.508 59.5489 740.605 59.3652 739.694 59.231L741.292 61.7907ZM17.0965 558.154C18.0045 553.965 19.9452 550.137 22.7179 546.977L36.6549 568.098L24.3183 577.029C23.4717 577.641 22.6631 578.296 21.8948 578.989L21.0128 577.719C17.0701 572.033 15.6442 564.901 17.0965 558.154ZM26.1021 579.468L38.3207 570.623L52.1758 591.62L38.0729 602.288L23.6351 581.495C24.4108 580.773 25.2341 580.096 26.1021 579.468ZM39.7986 604.773L53.8442 594.149L67.2415 614.453L53.848 625.006L39.7986 604.773ZM55.5711 627.487L68.908 616.978L81.8886 636.65L69.1659 647.065L55.5711 627.487ZM70.8888 649.546L83.5559 639.177L96.1452 658.256L84.0578 668.511L70.8888 649.546ZM85.7866 671.001L97.8189 660.793L110.051 679.33L98.5672 689.407L85.7866 671.001ZM100.3 691.902L111.729 681.874L123.624 699.9L112.714 709.78L100.3 691.902ZM114.458 712.291L125.313 702.46L136.9 720.02L126.539 729.689L114.458 712.291ZM128.28 732.196L138.588 722.578L149.888 739.704L140.051 749.148L128.28 732.196ZM141.793 751.657L151.578 742.264L162.612 758.987L153.276 768.193L141.793 751.657ZM155.02 770.706L164.305 761.552L175.085 777.89L166.229 786.847L155.02 770.706ZM167.984 789.375L176.788 780.471L463.098 1214.38L167.984 789.375ZM502.412 1270.99L472.682 1228.18C481.6 1237.67 496.376 1239.69 507.617 1232.31L1191.76 783.478C1197.77 779.537 1201.91 773.507 1203.44 766.488C1205 759.273 1203.62 751.907 1199.55 745.739L803.935 146.184L807.363 142.717L1238.09 763.009C1242.04 768.694 1243.47 775.813 1242 782.571L1242.01 782.574C1240.66 788.798 1237.03 794.227 1231.78 797.852L537.361 1277.33C525.979 1285.2 510.3 1282.35 502.412 1270.99ZM805.604 140.184L802.228 143.598L797.817 136.912L801.09 133.684L805.604 140.184ZM799.345 131.171L796.124 134.347L791.765 127.742L794.884 124.748L799.345 131.171ZM793.142 122.239L790.076 125.182L785.777 118.666L788.741 115.901L793.142 122.239ZM786.993 113.384L784.083 116.1L779.843 109.673L782.651 107.13L786.993 113.384ZM780.915 104.631L778.162 107.125L773.985 100.795L775.988 99.0369C776.205 98.8471 776.423 98.661 776.643 98.4786L780.915 104.631ZM773.985 96.776L772.305 98.2497L768.237 92.0842C769.108 91.4233 770.009 90.815 770.937 90.2605L774.915 95.9893C774.601 96.2449 774.291 96.5071 773.985 96.776ZM769.205 87.7665C768.3 88.3141 767.419 88.9083 766.564 89.5482L762.841 83.9066C763.754 83.4315 764.689 83.0081 765.643 82.6373L769.205 87.7665ZM763.881 80.0995C762.96 80.4814 762.057 80.9081 761.173 81.3787L757.933 76.4689C758.895 76.1769 759.873 75.9382 760.863 75.7538L763.881 80.0995ZM758.997 73.0673C758.056 73.2863 757.126 73.5501 756.211 73.858L753.64 69.9625C754.68 69.8733 755.729 69.8446 756.783 69.8776L758.997 73.0673ZM754.381 66.8879C753.507 66.9327 752.638 67.0159 751.776 67.137L750.215 64.7718C751.078 64.9133 751.933 65.0978 752.778 65.3248C753.332 65.8184 753.867 66.3395 754.381 66.8879ZM21.5005 583.735C18.8013 586.932 16.9033 590.758 16.0039 594.905C14.4466 602.107 16.035 609.632 20.3769 615.588L20.5245 615.791C21.321 615.036 22.162 614.322 23.0447 613.654L35.6539 604.117L21.5005 583.735ZM37.3797 606.602L24.8745 616.061C23.9732 616.742 23.1205 617.476 22.3198 618.257L36.9335 638.333L51.4638 626.884L37.3797 606.602ZM53.1869 629.366L38.7096 640.773L52.9518 660.338L66.8145 648.99L53.1869 629.366ZM68.5374 651.471L54.7267 662.776L68.506 681.706L81.7375 670.48L68.5374 651.471ZM83.4662 672.969L70.2862 684.151L83.6436 702.501L96.2763 691.417L83.4662 672.969ZM98.0094 693.912L85.4277 704.952L98.3875 722.755L110.452 711.83L98.0094 693.912ZM112.195 714.34L100.182 725.22L112.78 742.528L124.302 731.776L112.195 714.34ZM126.044 734.283L114.571 744.988L126.834 761.834L137.84 751.27L126.044 734.283ZM139.582 753.779L128.626 764.296L140.577 780.714L151.089 770.349L139.582 753.779ZM152.834 772.862L142.371 783.178L154.026 799.189L164.065 789.036L152.834 772.862ZM165.82 791.563L155.83 801.667L532.512 1319.13C540.922 1330.68 557.173 1333.26 568.735 1324.89L1273.42 814.761C1278.59 811.026 1282.18 805.536 1283.52 799.311L1283.51 799.322C1285.06 792.133 1283.48 784.595 1279.15 778.641L812.475 137.547L809.51 140.545L1240.57 761.312C1244.99 767.674 1246.58 775.658 1244.95 783.226C1243.45 790.207 1239.37 796.288 1233.48 800.346L539.068 1279.82C526.325 1288.62 508.761 1285.42 499.932 1272.7L165.82 791.563ZM807.751 138.012L810.667 135.063L806.081 128.763L803.26 131.545L807.751 138.012ZM801.515 129.032L804.287 126.299L799.755 120.073L797.078 122.642L801.515 129.032ZM795.336 120.133L797.963 117.611L793.491 111.468L790.96 113.831L795.336 120.133ZM789.212 111.314L791.694 108.998L787.368 103.056C786.559 103.657 785.775 104.301 785.018 104.986L784.895 105.097L789.212 111.314ZM783.16 102.599C783.945 101.898 784.757 101.236 785.592 100.616L781.603 95.1367C780.733 95.6043 779.881 96.1181 779.049 96.6783L783.16 102.599ZM777.326 94.1974C778.137 93.6499 778.967 93.1425 779.812 92.6752L776.243 87.7731C775.349 88.0865 774.47 88.4439 773.609 88.8445L777.326 94.1974ZM771.859 86.324C772.688 85.9224 773.533 85.5574 774.392 85.2297L771.373 81.0823C770.446 81.2314 769.529 81.4263 768.624 81.666L771.859 86.324ZM766.809 79.0519C767.666 78.793 768.533 78.5709 769.41 78.3864L767.176 75.3175C766.189 75.2728 765.207 75.2805 764.231 75.3397L766.809 79.0519ZM762.256 72.4947C763.053 72.3989 763.856 72.3345 764.664 72.3018C764.162 71.7842 763.642 71.2911 763.105 70.8229C762.324 70.61 761.529 70.4314 760.723 70.2881L762.256 72.4947ZM14.896 631.667C15.7859 627.562 17.6294 623.755 20.2411 620.536L34.5586 640.204L21.7708 650.28C20.8408 651.013 19.9575 651.798 19.1245 652.628C14.8608 646.538 13.3248 638.96 14.896 631.667ZM23.6337 652.652L36.3347 642.644L50.6103 662.255L35.7014 674.459L20.953 655.067C21.7894 654.207 22.6844 653.4 23.6337 652.652ZM37.5252 676.857L52.3852 664.693L66.1962 683.665L51.9167 695.78L37.5252 676.857ZM53.7451 698.184L67.9763 686.111L81.3638 704.501L67.6805 716.507L53.7451 698.184ZM69.5125 718.916L83.1478 706.952L96.136 724.794L83.0181 736.674L69.5125 718.916ZM84.8603 739.097L97.9304 727.259L110.556 744.603L97.9761 756.342L84.8603 739.097ZM99.814 758.759L112.347 747.064L124.636 763.945L112.568 775.528L99.814 758.759ZM114.406 777.945L126.427 766.406L138.403 782.857L126.824 794.274L114.406 777.945ZM128.664 796.693L140.197 785.322L151.875 801.364L140.764 812.602L128.664 796.693ZM142.613 815.034L153.679 803.843L530.086 1320.92C539.466 1333.82 557.611 1336.69 570.517 1327.34L1275.21 817.214C1280.97 813.042 1284.98 806.907 1286.48 799.965C1288.22 791.93 1286.43 783.521 1281.6 776.873L814.622 135.376L817.162 132.807L1320.22 794.263C1324.95 800.488 1326.71 808.434 1325.06 816.066C1323.71 822.291 1320.17 827.83 1315.08 831.672L600.122 1372.46C588.377 1381.35 571.54 1379.03 562.623 1367.29L142.613 815.034ZM815.308 130.369L812.814 132.892L808.251 126.624L810.656 124.253L815.308 130.369ZM808.816 121.833L806.457 124.159L801.949 117.967L803.077 116.883C803.459 116.517 803.847 116.163 804.242 115.819L808.816 121.833ZM800.993 114.703L800.157 115.505L795.757 109.46C796.512 108.847 797.292 108.271 798.092 107.733L802.411 113.412C801.93 113.827 801.457 114.258 800.993 114.703ZM796.256 105.318C795.475 105.848 794.713 106.411 793.971 107.007L789.871 101.376C790.652 100.905 791.451 100.47 792.265 100.071L796.256 105.318ZM790.406 97.6268C789.619 98.0288 788.846 98.4624 788.089 98.9271L784.375 93.8252C785.185 93.4913 786.007 93.1944 786.837 92.9344L790.406 97.6268ZM784.908 90.3969C784.114 90.6738 783.328 90.9819 782.552 91.3212L779.321 86.8823C780.164 86.6882 781.017 86.5316 781.878 86.413L784.908 90.3969ZM779.808 83.6921C778.999 83.8466 778.196 84.032 777.403 84.2479L774.85 80.7402C775.756 80.7068 776.669 80.7161 777.585 80.7689L779.808 83.6921ZM774.974 77.7277C774.232 77.7491 773.494 77.7964 772.76 77.8694L771.254 75.8003C772 75.944 772.736 76.1171 773.46 76.3188C773.982 76.7674 774.487 77.2372 774.974 77.7277ZM18.9332 657.389C16.4266 660.619 14.6501 664.388 13.777 668.413C12.1931 675.736 13.6384 683.278 17.7332 689.451C18.5968 688.557 19.5188 687.707 20.4969 686.905L33.368 676.369L18.9332 657.389ZM35.1917 678.767L22.4081 689.232C21.388 690.068 20.4359 690.963 19.5547 691.91L34.3961 710.645L49.6155 697.733L35.1917 678.767ZM51.4438 700.136L36.2696 713.01L50.7843 731.333L65.4097 718.5L51.4438 700.136ZM67.2416 720.909L52.6612 733.702L66.7133 751.441L80.7762 738.705L67.2416 720.909ZM82.6184 741.127L68.6003 753.823L82.2335 771.032L95.7616 758.409L82.6184 741.127ZM97.5995 760.825L84.1151 773.408L97.3596 790.127L110.379 777.629L97.5995 760.825ZM112.218 780.046L99.2412 792.502L112.126 808.767L124.661 796.407L112.218 780.046ZM126.501 798.826L114.008 811.144L126.551 826.977L138.624 814.767L126.501 798.826ZM140.473 817.199L128.443 829.366L592.721 1415.45C597.298 1421.22 603.843 1424.87 611.177 1425.74C618.498 1426.6 625.72 1424.57 631.512 1420.01L1356.74 848.583C1361.76 844.633 1365.27 839.035 1366.6 832.821L1366.62 832.81C1368.37 824.723 1366.42 816.367 1361.29 809.884L821.469 128.453C821.363 128.558 821.257 128.664 821.152 128.77L819.302 130.642L1322.62 792.446C1327.89 799.372 1329.85 808.202 1328.02 816.708C1326.52 823.623 1322.58 829.795 1316.91 834.079L601.955 1374.85C588.876 1384.74 570.152 1382.17 560.219 1369.11L140.473 817.199ZM817.448 128.205L818.991 126.645C819.184 126.449 819.38 126.255 819.577 126.064L814.992 120.277C814.249 120.862 813.527 121.48 812.828 122.131L817.448 128.205ZM810.995 119.72C811.684 119.089 812.393 118.487 813.12 117.914L808.815 112.479C808.062 112.934 807.324 113.423 806.602 113.944L810.995 119.72ZM804.774 111.54C805.477 111.029 806.195 110.548 806.926 110.094L802.936 105.058C802.172 105.396 801.421 105.765 800.685 106.164L804.774 111.54ZM798.833 103.729C799.543 103.332 800.267 102.961 801.001 102.616L797.425 98.1013C796.647 98.3205 795.879 98.5701 795.122 98.8495L798.833 103.729ZM793.22 96.3486C793.941 96.0603 794.672 95.797 795.411 95.5591L792.397 91.7538C791.598 91.8464 790.801 91.9708 790.01 92.1272L793.22 96.3486ZM788 89.4847C788.74 89.3049 789.485 89.151 790.233 89.0229L788.008 86.2142C787.154 86.1537 786.304 86.1299 785.458 86.1422L788 89.4847ZM783.24 83.2265C783.915 83.1715 784.593 83.1374 785.275 83.1246C784.812 82.6727 784.336 82.2386 783.846 81.8228C783.17 81.6302 782.484 81.4621 781.79 81.3191L783.24 83.2265ZM12.6579 705.16C13.5248 701.149 15.2014 697.467 17.5933 694.26L32.109 712.585L19.2104 723.528C18.1963 724.392 17.2436 725.306 16.3547 726.268C12.4172 720.019 11.0632 712.507 12.6579 705.16ZM21.1677 725.822L33.9824 714.95L48.5279 733.313L33.0389 746.903L18.4802 729.211C18.3647 729.071 18.2507 728.929 18.1382 728.787C19.0676 727.738 20.0787 726.747 21.1677 725.822ZM34.958 749.235L50.4047 735.682L64.4859 753.458L49.5581 766.977L34.958 749.235ZM51.4873 769.321L66.3728 755.84L80.0335 773.085L65.6385 786.518L51.4873 769.321ZM67.5613 788.855L81.9151 775.461L95.1858 792.214L81.2968 805.546L67.5613 788.855ZM83.2192 807.882L97.0674 794.589L109.977 810.886L96.5693 824.105L83.2192 807.882ZM98.4926 826.442L111.859 813.263L124.426 829.126L111.478 842.222L98.4926 826.442ZM113.41 844.57L126.318 831.515L590.349 1417.31C595.424 1423.72 602.699 1427.77 610.827 1428.73C618.97 1429.68 626.975 1427.42 633.39 1422.37L1358.62 850.944C1364.18 846.561 1368.07 840.352 1369.56 833.449C1371.5 824.476 1369.35 815.207 1363.65 808.019L823.715 126.419C824.377 125.87 825.055 125.347 825.751 124.852L1402.34 825.517C1407.89 832.26 1410.02 841.026 1408.17 849.568L1408.15 849.579C1406.8 855.884 1403.41 861.395 1398.4 865.494L662.899 1467.58C657.012 1472.38 649.618 1474.62 642.05 1473.87C634.481 1473.11 627.649 1469.47 622.819 1463.6L113.41 844.57ZM823.82 122.507C823.143 122.995 822.48 123.507 821.833 124.042L817.453 118.514C818.127 118.076 818.815 117.662 819.515 117.275L823.82 122.507ZM817.57 114.912C816.893 115.299 816.228 115.71 815.574 116.142L811.513 111.015C812.201 110.682 812.899 110.375 813.605 110.093L817.57 114.912ZM811.599 107.655C810.923 107.946 810.255 108.259 809.595 108.594L805.893 103.921C806.594 103.691 807.303 103.486 808.019 103.305L811.599 107.655ZM805.915 100.749C805.238 100.949 804.567 101.169 803.904 101.41L800.702 97.3675C801.428 97.2461 802.16 97.1502 802.896 97.0802L805.915 100.749ZM800.631 94.3275C799.947 94.4326 799.267 94.5584 798.593 94.7046L796.095 91.5519C796.875 91.5568 797.655 91.5915 798.433 91.656L800.631 94.3275ZM795.599 88.5437C794.987 88.549 794.376 88.571 793.765 88.6097L792.367 86.8461C792.996 86.9853 793.619 87.1446 794.234 87.3236C794.7 87.7144 795.156 88.1212 795.599 88.5437ZM16.2185 731.201C13.9552 734.38 12.3585 737.987 11.5154 741.889C9.92103 749.262 11.1877 756.762 14.9831 763.077C15.8989 762.05 16.8843 761.074 17.9365 760.154L30.7746 748.89L16.2185 731.201ZM32.6937 751.222L19.9246 762.426C18.7728 763.437 17.7085 764.522 16.7365 765.672C17.0953 766.147 17.4699 766.613 17.86 767.069L31.629 783.214L47.3238 769.001L32.6937 751.222ZM49.2529 771.345L33.598 785.523L48.2693 802.726L63.4327 788.577L49.2529 771.345ZM65.3554 790.913L50.2308 805.026L64.4585 821.709L79.1179 807.638L65.3554 790.913ZM81.0402 809.974L66.4193 824.008L80.2362 840.21L94.4161 826.228L81.0402 809.974ZM96.3393 828.565L82.1974 842.509L95.6257 858.255L109.349 844.375L96.3393 828.565ZM111.281 846.723L97.5956 860.565L652.945 1511.75C663.439 1524.05 681.982 1525.55 694.306 1515.1L1440.08 882.381C1445.03 878.19 1448.37 872.631 1449.74 866.301L1449.73 866.314C1451.68 857.315 1449.37 848.141 1443.4 841.136L830.23 122.149C829.569 122.483 828.917 122.838 828.277 123.214L1404.64 823.601C1410.79 831.069 1413.13 840.761 1411.1 850.205C1409.58 857.184 1405.86 863.273 1400.31 867.82L664.799 1469.89C658.308 1475.22 650.106 1477.69 641.739 1476.86C633.373 1476.03 625.81 1472 620.479 1465.51L111.281 846.723ZM826.329 120.847C826.947 120.473 827.574 120.118 828.211 119.782L824.239 115.124C823.574 115.366 822.917 115.63 822.269 115.913L826.329 120.847ZM820.287 113.504C820.905 113.216 821.531 112.945 822.165 112.692L818.624 108.54C817.953 108.69 817.286 108.861 816.624 109.054L820.287 113.504ZM814.551 106.535C815.174 106.329 815.801 106.141 816.433 105.971L813.412 102.429C812.722 102.481 812.037 102.556 811.356 102.652L814.551 106.535ZM809.143 99.9623C809.771 99.8406 810.404 99.7361 811.041 99.6488L808.848 97.0776C808.378 97.0342 807.906 97.0011 807.431 96.9786C807.175 96.966 806.919 96.9565 806.664 96.9501L809.143 99.9623ZM804.211 93.9699C804.771 93.9435 805.333 93.9308 805.897 93.9318C805.485 93.5495 805.062 93.1801 804.631 92.8238C804.053 92.6516 803.471 92.4967 802.886 92.3593L804.211 93.9699ZM10.3679 778.644C11.1873 774.851 12.7045 771.317 14.8391 768.173C15.071 768.464 15.3083 768.752 15.5512 769.037L29.3795 785.252L16.665 796.766C15.5766 797.755 14.5603 798.803 13.6192 799.904C10.0079 793.518 8.79438 785.925 10.3679 778.644ZM18.6969 799.019L31.3485 787.56L46.0493 804.798L30.1539 819.631L17.2196 804.965C16.5461 804.201 15.9154 803.406 15.3284 802.585C16.3477 801.32 17.4725 800.128 18.6969 799.019ZM32.1519 821.896L48.0108 807.098L62.2666 823.813L46.8738 838.589L32.1519 821.896ZM48.8708 840.853L64.2274 826.112L78.0709 842.345L63.1559 857.051L48.8708 840.853ZM65.153 859.315L80.0322 844.644L93.4858 860.419L79.0253 875.044L65.153 859.315ZM81.0307 877.318L95.4558 862.729L650.639 1513.71C662.215 1527.26 682.674 1528.93 696.263 1517.4L1442.04 884.675C1447.5 880.046 1451.19 873.923 1452.69 866.942C1454.84 857.018 1452.29 846.898 1445.7 839.165L833.099 120.866C833.691 120.633 834.289 120.417 834.894 120.217L1484.45 856.74C1490.76 863.898 1493.32 873.736 1491.3 883.061C1489.93 889.39 1486.62 895.009 1481.74 899.292L725.68 1562.67C719.638 1567.98 711.853 1570.62 703.797 1570.1C695.755 1569.59 688.378 1565.98 683.041 1559.92L81.0307 877.318ZM832.732 117.766C832.159 117.976 831.592 118.201 831.03 118.44L827.374 114.153C827.972 114 828.575 113.863 829.183 113.742L832.732 117.766ZM826.911 111.166C826.343 111.306 825.78 111.461 825.22 111.628L822.088 107.956C822.704 107.885 823.321 107.832 823.939 107.796L826.911 111.166ZM821.464 104.989C820.898 105.058 820.333 105.141 819.77 105.237L817.323 102.368C817.979 102.397 818.632 102.445 819.28 102.513L821.464 104.989ZM816.206 99.3246C815.716 99.3196 815.227 99.3247 814.74 99.3397L813.476 97.8577C813.977 97.9816 814.474 98.1177 814.967 98.266C815.387 98.6061 815.801 98.959 816.206 99.3246ZM13.4751 805.144C11.4587 808.253 10.0168 811.711 9.22043 815.399C7.6377 822.7 8.77842 830.271 12.2618 836.728C13.2289 835.558 14.2776 834.444 15.4042 833.394L27.9522 821.685L14.961 806.955C14.4426 806.367 13.9472 805.763 13.4751 805.144ZM29.9503 823.951L17.4559 835.609C16.1694 836.812 14.9928 838.105 13.9335 839.476C14.7392 840.659 15.6308 841.791 16.6055 842.865L28.6429 856.089L44.7005 840.675L29.9503 823.951ZM46.6976 842.939L30.6741 858.32L45.4288 874.53L61.0096 859.167L46.6976 842.939ZM63.0066 861.431L47.4596 876.761L61.7769 892.489L76.9046 877.189L63.0066 861.431ZM78.91 879.463L63.8157 894.729L713.162 1608.09C718.757 1614.22 726.406 1617.83 734.696 1618.23C743 1618.64 750.957 1615.79 757.109 1610.23L1523.43 916.208C1528.26 911.834 1531.53 906.17 1532.9 899.827L1532.89 899.812C1535.02 890.019 1532.25 879.753 1525.51 872.346L839.77 118.992C839.216 119.089 838.666 119.2 838.119 119.323L1486.72 854.752C1493.67 862.613 1496.47 873.439 1494.26 883.689C1492.76 890.657 1489.12 896.828 1483.75 901.54L727.688 1564.9C721.027 1570.76 712.468 1573.65 703.611 1573.08C694.742 1572.51 686.629 1568.54 680.773 1561.88L78.91 879.463ZM835.865 116.766C836.372 116.629 836.883 116.502 837.397 116.385L834.425 113.12C833.863 113.143 833.303 113.18 832.746 113.23L835.865 116.766ZM830.329 110.49C830.835 110.414 831.343 110.349 831.853 110.295L829.731 107.963C829.142 107.895 828.552 107.842 827.961 107.805L830.329 110.49ZM825.246 104.726C825.677 104.719 826.107 104.719 826.538 104.727C826.164 104.395 825.783 104.074 825.395 103.762C824.954 103.626 824.509 103.499 824.061 103.382L825.246 104.726ZM8.04884 852.137C8.8221 848.555 10.1952 845.178 12.1014 842.114C12.8009 843.066 13.5534 843.987 14.3578 844.87L26.4689 858.176L14.1304 870.02C12.9673 871.133 11.8876 872.315 10.8955 873.557C7.52634 867.041 6.46335 859.477 8.04884 852.137ZM16.2151 872.2L28.5001 860.407L43.2818 876.647L27.0995 892.602L15.9695 880.734C14.6894 879.369 13.5436 877.909 12.5376 876.371C13.6355 874.89 14.864 873.495 16.2151 872.2ZM29.1622 894.802L45.3126 878.878L59.6556 894.635L43.9257 910.544L29.1622 894.802ZM45.9961 912.752L61.6944 896.875L710.912 1610.11C717.039 1616.85 725.425 1620.79 734.534 1621.23C743.641 1621.68 752.373 1618.56 759.119 1612.45L1525.44 918.429C1530.73 913.622 1534.33 907.406 1535.84 900.451C1538.16 889.72 1535.13 878.464 1527.73 870.336L843.419 118.55C843.918 118.516 844.42 118.492 844.924 118.479L1566.58 887.968C1573.75 895.624 1576.71 906.315 1574.5 916.565L1574.48 916.576C1573.1 922.93 1569.85 928.64 1565.08 933.103L788.485 1657.78C775.609 1669.8 755.321 1669.1 743.26 1656.25L45.9961 912.752ZM842.239 115.617C841.786 115.659 841.335 115.709 840.886 115.767L838.547 113.197C839.074 113.239 839.598 113.292 840.12 113.358L842.239 115.617ZM836.088 110.083C835.963 110.083 835.837 110.082 835.711 110.083L834.651 108.918C835.034 109.023 835.416 109.135 835.797 109.254C836.14 109.527 836.479 109.807 836.812 110.095C836.571 110.089 836.33 110.085 836.088 110.083ZM10.7404 879.065C8.93584 882.087 7.62908 885.39 6.87745 888.874C5.28031 896.249 6.27868 903.812 9.54204 910.385C10.5552 909.073 11.6617 907.823 12.8568 906.645L24.9619 894.71L13.7698 882.775C12.6682 881.6 11.6575 880.36 10.7404 879.065ZM27.0245 896.909L14.9745 908.791C13.5655 910.18 12.2909 911.678 11.1596 913.268C12.3542 915.165 13.753 916.956 15.3467 918.605L25.5239 929.156L41.8137 912.68L27.0245 896.909ZM43.884 914.888L27.6241 931.333L773.358 1704.4C779.46 1710.73 787.655 1714.29 796.443 1714.47C805.232 1714.65 813.556 1711.39 819.89 1705.32L1606.75 950.003C1611.47 945.463 1614.7 939.709 1616.09 933.329C1618.41 922.611 1615.25 911.482 1607.64 903.587L850.556 118.781C850.098 118.72 849.638 118.667 849.176 118.623L1568.77 885.925C1576.62 894.306 1579.86 906.003 1577.43 917.215C1575.91 924.168 1572.37 930.422 1567.13 935.305L790.539 1659.98C776.444 1673.13 754.232 1672.39 741.043 1658.31L43.884 914.888ZM846.203 115.454L845.213 114.398C845.525 114.487 845.836 114.581 846.145 114.679C846.476 114.937 846.802 115.202 847.125 115.474C846.818 115.463 846.511 115.457 846.203 115.454ZM5.70845 925.599C6.44309 922.226 7.68296 919.011 9.38012 916.048C10.5006 917.683 11.7645 919.236 13.1665 920.69L23.4028 931.301L11.57 943.269C10.3478 944.506 9.21856 945.819 8.18757 947.198C5.03253 940.572 4.09992 933.01 5.70845 925.599ZM13.7338 945.381L25.5031 933.478L771.219 1706.48C777.872 1713.37 786.819 1717.28 796.417 1717.47C806.013 1717.66 815.102 1714.12 822.019 1707.48L1608.88 952.164C1614.04 947.212 1617.56 940.914 1619.06 933.959C1621.59 922.251 1618.15 910.113 1609.82 901.489L855.865 119.925C856.088 119.991 856.31 120.06 856.531 120.131C857.717 121.048 858.849 122.05 859.92 123.132L1648.68 919.191C1656.75 927.34 1660.13 938.883 1657.7 950.082L1657.69 950.095C1656.32 956.477 1653.11 962.289 1648.43 966.904L851.293 1752.87C838.049 1765.94 816.6 1765.79 803.482 1752.56L14.7242 956.477C12.8076 954.546 11.156 952.423 9.78407 950.158C10.9476 948.462 12.2677 946.863 13.7338 945.381ZM8.0216 953.017C9.33857 955.002 10.8599 956.876 12.5766 958.608L801.347 1754.7C815.627 1769.11 839.006 1769.26 853.437 1755.02L1650.57 969.054C1655.67 964.025 1659.15 957.678 1660.67 950.726C1663.29 938.534 1659.63 925.954 1650.84 917.089L865.732 124.703C867.324 125.818 868.833 127.074 870.244 128.465L1689.72 934.821C1698.24 943.195 1701.82 955.18 1699.3 966.848L1699.31 966.851C1697.93 973.246 1694.75 979.117 1690.12 983.806L882.711 1800.42C876.195 1807 867.506 1810.66 858.23 1810.72C848.942 1810.78 840.204 1807.23 833.593 1800.72L14.097 994.375C5.5924 985.99 2.01025 974.018 4.53712 962.337C5.24348 959.058 6.41993 955.924 8.0216 953.017Z" fill="url(#paint0_linear_189_180)"/>
<defs>
<linearGradient id="paint0_linear_189_180" x1="1260" y1="840" x2="2248" y2="1174.5" gradientUnits="userSpaceOnUse">
<stop stop-color="white"/>
<stop offset="1" stop-color="#999999" stop-opacity="0"/>
</linearGradient>
</defs>
</svg>
