<svg width="1786" height="1751" viewBox="0 0 1786 1751" fill="none" xmlns="http://www.w3.org/2000/svg">
<path opacity="0.05" fill-rule="evenodd" clip-rule="evenodd" d="M1773.73 272.488C1780.61 275.856 1785.11 282.699 1785.44 290.353C1785.59 293.814 1784.86 297.302 1783.33 300.43L1776.07 315.208C1778.47 318.555 1779.91 322.573 1780.09 326.788C1780.25 330.662 1779.36 334.509 1777.5 337.943L1770.42 350.957C1773.03 354.453 1774.57 358.696 1774.77 363.21V363.196C1774.95 367.496 1773.89 371.729 1771.68 375.443L1764.87 386.864C1767.64 390.508 1769.28 394.952 1769.48 399.631H1769.5C1769.7 404.357 1768.45 408.963 1765.86 412.956L1759.46 422.842C1762.34 426.594 1764.01 431.163 1764.23 436.04C1764.45 441.218 1763 446.197 1760.03 450.457L1754.12 458.926C1757.06 462.79 1758.78 467.48 1758.99 472.461C1759.23 477.999 1757.54 483.497 1754.21 487.956L1748.89 495.09C1751.84 499.048 1753.58 503.836 1753.79 508.87C1754.06 514.847 1752.14 520.73 1748.4 525.443L1743.71 531.33C1746.64 535.367 1748.37 540.223 1748.6 545.291C1748.88 551.734 1746.73 557.991 1742.57 562.929L1738.61 567.616C1741.52 571.709 1743.19 576.552 1743.42 581.699V581.686C1743.73 588.595 1741.36 595.251 1736.75 600.416L1733.57 603.983C1736.41 608.123 1738.04 612.976 1738.27 618.108C1738.59 625.483 1735.98 632.511 1730.93 637.903L1728.58 640.408C1731.32 644.586 1732.9 649.433 1733.13 654.516C1733.46 662.25 1730.55 669.865 1725.11 675.389L1723.64 676.894C1726.27 681.087 1727.79 685.909 1728 690.925C1728.36 699.138 1725.18 707.139 1719.3 712.863L1718.71 713.432C1721.22 717.63 1722.68 722.41 1722.89 727.346H1722.88C1723.26 735.869 1719.95 744.11 1713.82 750.026C1716.19 754.204 1717.57 758.913 1717.78 763.754C1718.15 772.325 1714.95 780.558 1708.94 786.598C1711.2 790.743 1712.49 795.337 1712.69 800.163C1713.06 808.794 1709.95 817.03 1704.05 823.198C1706.19 827.314 1707.41 831.84 1707.61 836.571L1707.62 836.558C1708 845.258 1704.96 853.51 1699.17 859.789C1701.2 863.872 1702.35 868.335 1702.55 872.98H1702.54C1702.92 881.592 1699.88 889.999 1694.26 896.379C1696.18 900.434 1697.27 904.834 1697.48 909.388H1697.49C1697.86 918.052 1694.9 926.485 1689.36 932.978C1691.19 936.995 1692.23 941.327 1692.42 945.796C1692.81 954.529 1689.91 962.969 1684.46 969.561C1686.2 973.542 1687.19 977.815 1687.38 982.204H1687.39C1687.77 990.998 1684.92 999.475 1679.56 1006.17C1681.2 1010.11 1682.14 1014.31 1682.33 1018.61C1682.72 1027.47 1679.94 1035.97 1674.66 1042.76C1676.22 1046.66 1677.12 1050.8 1677.31 1055.03V1055.02C1677.87 1068 1671.84 1080.17 1661.18 1087.58L717.356 1744.08C709.089 1749.83 699.065 1752.04 689.134 1750.27C679.203 1748.51 670.564 1743 664.8 1734.75L6.78722 793.587C2.68712 787.716 0.35765 780.847 0.0383144 773.725C-0.534317 760.759 5.49608 748.579 16.159 741.164L959.98 84.6691C964.741 81.3575 970.084 79.2246 975.656 78.3465C979.18 76.5333 982.942 75.3147 986.819 74.7182C990.379 72.8744 994.153 71.678 997.983 71.1054C1001.5 69.253 1005.27 68.0241 1009.17 67.4545C1012.66 65.5956 1016.42 64.368 1020.31 63.8131C1023.83 61.9234 1027.59 60.7205 1031.41 60.1848C1034.91 58.2598 1038.72 57.0088 1042.68 56.4869C1046.1 54.5924 1049.84 53.363 1053.73 52.8535C1057.18 50.9012 1060.98 49.6487 1064.94 49.1583C1068.35 47.2127 1072.12 45.9695 1076.05 45.4948C1079.52 43.4873 1083.31 42.2585 1087.18 41.8059C1090.63 39.774 1094.43 38.5379 1098.31 38.1004C1101.69 36.0688 1105.48 34.7931 1109.47 34.3694C1112.88 32.3002 1116.67 31.0563 1120.54 30.6554C1123.88 28.5688 1127.67 27.2689 1131.7 26.8808C1134.85 24.8882 1138.43 23.6171 1142.24 23.1811C1142.44 23.158 1142.64 23.1373 1142.84 23.1191C1146.19 20.9641 1150.01 19.6898 1153.91 19.3502C1157.25 17.153 1161.08 15.8591 1165.01 15.5395C1168.33 13.3093 1172.16 12.0004 1176.1 11.7031C1179.39 9.44777 1183.23 8.12627 1187.17 7.84996C1190.43 5.56468 1194.27 4.22514 1198.22 3.96679C1204.29 -0.398079 1212.52 -1.37944 1219.7 2.12141L1773.73 272.488ZM1203.79 4.32776C1208.35 2.49779 1213.63 2.52375 1218.38 4.83706L1772.39 275.204C1778.28 278.079 1782.13 283.937 1782.41 290.486C1782.54 293.441 1781.92 296.423 1780.6 299.099L1773.94 312.664C1772.46 311.151 1770.75 309.847 1768.84 308.817L1209.86 6.51435C1207.91 5.45952 1205.87 4.73712 1203.79 4.32776ZM1772.53 315.543C1771.1 313.923 1769.38 312.539 1767.39 311.466L1208.44 9.15013C1205.54 7.58679 1202.4 6.87425 1199.32 6.92713C1198.42 7.63931 1197.59 8.44252 1196.83 9.33143C1197.92 9.7598 1198.99 10.2798 1200.02 10.894L1759.34 342.416L1772.53 315.543ZM1774.54 318.326C1776.05 320.881 1776.93 323.811 1777.07 326.921C1777.22 330.249 1776.45 333.564 1774.85 336.519L1768.32 348.528C1767.02 347.24 1765.56 346.101 1763.95 345.145L1761.96 343.967L1774.54 318.326ZM1760.63 346.677L1762.4 347.728C1764.06 348.712 1765.54 349.922 1766.81 351.307L1752.64 377.35L1747.27 373.893L1760.63 346.677ZM1745.94 376.606L1751.2 379.994L1737.09 405.95L1732.95 403.078L1745.94 376.606ZM1730.43 401.331L1743.37 374.954L1191.22 19.5304L1188.41 25.2556L1730.43 401.331ZM1731.6 405.814L1735.64 408.613L1721.94 433.807L1718.95 431.59L1731.6 405.814ZM1716.48 429.753L1729.08 404.067L1187.06 27.9983L1184.06 34.12L1716.48 429.753ZM1717.6 434.344L1720.48 436.484L1707.15 460.989L1705.26 459.491L1717.6 434.344ZM1702.83 457.568L1715.13 432.507L1182.71 36.8739L1179.52 43.3708L1702.83 457.568ZM1703.9 462.257L1705.69 463.675L1692.71 487.54L1691.85 486.815L1703.9 462.257ZM1689.46 484.811L1701.47 460.335L1178.16 46.1379L1174.81 52.965L1689.46 484.811ZM1690.48 489.601L1691.24 490.242L1680.2 510.54L1690.48 489.601ZM1676.35 511.532L1688.09 487.598L1173.44 55.7589L1169.94 62.8927L1676.35 511.532ZM1663.48 537.755L1674.97 514.332L1168.57 65.6849L1164.92 73.1229L1663.48 537.755ZM1650.84 563.51L1662.09 540.574L1163.53 75.9569L1159.76 83.625L1650.84 563.51ZM1645.7 573.973L1649.43 566.367L1158.36 86.4887L1154.47 94.4082L1637.89 588.338L1645.7 573.973ZM1607.07 652.695L1610.03 646.665L1605.11 654.915L1602.37 659.954L1607.07 652.695ZM1609.61 654.354L1604.35 665.083L1605.6 666.526L1618.6 647.887L1615.81 644.786L1609.61 654.354ZM1626.94 619.059L1620.97 631.208L1628.06 620.258L1626.94 619.059ZM1629.07 614.711L1628.36 616.16L1629.75 617.644L1642.73 597.601L1640.58 595.406L1629.07 614.711ZM1648.48 575.171L1645.45 581.334L1652.56 569.418L1651.94 568.813L1648.48 575.171ZM1602.91 668.018L1598.99 676.009L1603.82 669.073L1602.91 668.018ZM1590.47 686.505L1595.71 675.829L1589.53 685.38L1590.47 686.505ZM1587.66 692.251L1589.02 689.468L1587.82 688.032L1583.33 694.966L1576.62 707.295L1576.91 707.651L1587.66 692.251ZM1590.23 693.857L1591.35 692.246L1594.77 696.326L1581.8 713.684L1580.99 712.68L1590.23 693.857ZM1579.52 715.667L1579.94 716.179L1577.99 718.781L1579.52 715.667ZM1568.21 731.876L1577.43 713.087L1577.1 712.676L1564.91 730.148L1567.26 733.146L1568.21 731.876ZM1570.77 733.5L1569.52 736.033L1573.21 740.732L1586.4 724.158L1581.9 718.601L1570.77 733.5ZM1568.04 739.053L1558.19 759.126L1558.38 759.372L1571.27 743.169L1568.04 739.053ZM1556.15 756.445L1560.99 746.593L1554.88 754.77L1556.15 756.445ZM1548.82 771.384L1554.66 759.479L1553 757.288L1540.81 773.597L1543.82 777.668L1548.82 771.384ZM1551.36 773.035L1546.99 781.954L1550.19 786.298L1563.27 770.796L1558.32 764.29L1551.36 773.035ZM1545.49 785.004L1537.42 801.437L1548.2 788.668L1545.49 785.004ZM1533.91 801.765L1542.61 784.03L1531.34 798.192L1533.91 801.765ZM1529.41 810.937L1532.4 804.835L1529.39 800.643L1518.22 814.688L1517.42 816.142L1520.87 821.063L1529.41 810.937ZM1531.95 812.596L1535.2 808.734L1540.54 816.167L1527.6 830.697L1524.93 826.882L1531.95 812.596ZM1522.97 824.066L1523.93 822.094L1522.65 823.615L1522.97 824.066ZM1523.41 829.984L1525.53 833.019L1517.49 842.05L1523.41 829.984ZM1510.03 850.426L1521.44 827.169L1520.63 826.008L1496.51 854.605L1492.63 861.724C1495.89 861.839 1499.1 861.064 1501.93 859.522L1510.03 850.426ZM1512.53 852.157L1512.1 853.038C1510.22 856.875 1507.31 859.878 1503.87 861.883L1474.8 894.515L1474.26 895.503C1472.46 898.823 1469.9 901.478 1466.91 903.373L1437.02 936.928L1436.4 937.969C1434.72 940.792 1432.51 943.106 1429.96 944.859L1399.3 979.286L1398.57 980.407C1397.05 982.76 1395.16 984.739 1393.03 986.319L1361.46 1021.76L1360.7 1022.86C1359.38 1024.75 1357.84 1026.38 1356.13 1027.75L1323.88 1063.96L1322.88 1065.3C1321.77 1066.78 1320.52 1068.1 1319.17 1069.25L1286 1106.49L1285.01 1107.74C1284.18 1108.77 1283.3 1109.72 1282.35 1110.58L1252.19 1144.45L1533.42 844.293L1527.31 835.561L1512.53 852.157ZM1497.7 864.273C1495.53 864.739 1493.29 864.867 1491.05 864.63L1481.14 882.862L1497.7 864.273ZM1485.33 863.182L1470.5 880.767L1481.94 861.573L1484.09 862.623C1484.5 862.824 1484.91 863.01 1485.33 863.182ZM1478.42 859.855L1468.69 872.079L1477.04 859.182L1478.42 859.855ZM1478.75 856.666L1480.34 857.441L1482.52 854.697L1491.59 839.473L1478.75 856.666ZM1472.68 857.057L1444.52 897.423L1442.92 899.572L887.523 599.205C881.746 596.077 878.138 590.312 877.846 583.75H877.859C877.712 580.422 878.485 577.107 880.082 574.165L1083.3 200.501L1092.53 213.712L920.457 564.327C918.926 567.456 918.194 570.943 918.34 574.391C918.673 582.046 923.159 588.901 930.068 592.256L1472.68 857.057ZM1094.52 216.556L923.199 565.645C921.881 568.321 921.242 571.303 921.376 574.258L921.362 574.271C921.655 580.821 925.502 586.678 931.399 589.567L1474.43 854.557L1501.92 815.142L1507.26 806.89L1094.52 216.556ZM1094.06 210.604L1084.92 197.525L1089.78 188.588L1098.74 201.067L1094.06 210.604ZM1100.75 203.867L1096.05 213.448L1509.04 804.148L1519.88 787.399L1100.75 203.867ZM1100.25 197.997L1091.38 185.647L1096.18 176.819L1104.87 188.583L1100.25 197.997ZM1106.9 191.335L1102.26 200.797L1521.64 784.681L1532.67 767.646L1106.9 191.335ZM1106.36 185.533L1097.77 173.895L1102.5 165.19L1110.92 176.253L1106.36 185.533ZM1112.98 178.957L1108.4 188.285L1534.42 764.941L1545.63 747.612L1112.98 178.957ZM1112.41 173.21L1104.09 162.271L1108.76 153.686L1116.9 164.064L1112.41 173.21ZM1118.98 166.717L1114.47 175.914L1547.38 744.915L1554.66 733.662L1558.61 727.034L1118.98 166.717ZM1118.38 161.056L1110.33 150.798L1114.93 142.344L1122.79 152.054L1118.38 161.056ZM1124.9 154.655L1120.46 163.709L1560.27 724.244L1571.38 705.617L1124.9 154.655ZM1124.26 149.066L1116.49 139.473L1121 131.18L1128.59 140.241L1124.26 149.066ZM1130.73 142.787L1126.37 151.667L1573.02 702.854L1584.33 683.878L1130.73 142.787ZM1130.05 137.264L1122.55 128.317L1126.99 120.168L1134.31 128.596L1130.05 137.264ZM1136.47 131.085L1132.19 139.81L1585.97 681.132L1597.5 661.791L1136.47 131.085ZM1135.75 125.654L1128.53 117.337L1132.87 109.343L1139.92 117.157L1135.75 125.654ZM1142.11 119.587L1137.91 128.143L1599.12 659.067L1602.52 653.364L1610.43 638.824L1142.11 119.587ZM1141.35 114.249L1134.4 106.542L1138.64 98.7325L1145.42 105.953L1141.35 114.249ZM1147.64 108.321L1143.54 116.679L1611.96 636.017L1623.29 615.175L1147.64 108.321ZM1146.84 103.061L1140.16 95.9438L1144.3 88.3275L1150.81 94.9749L1146.84 103.061ZM1153.06 97.2773L1149.06 105.428L1624.81 612.379L1636.38 591.114L1153.06 97.2773ZM1152.22 92.1059L1145.81 85.5585L1149.83 78.1592L1156.07 84.2542L1152.22 92.1059ZM1157.48 81.3906L1151.34 75.3924L1155.23 68.2293L1161.2 73.7936L1157.48 81.3906ZM1162.6 70.9596L1156.72 65.488L1160.5 58.5404L1166.21 63.596L1162.6 70.9596ZM1167.58 60.804L1161.97 55.837L1165.59 49.1774L1171.04 53.7484L1167.58 60.804ZM1172.41 50.9545L1167.07 46.4688L1170.53 40.0999L1175.72 44.2096L1172.41 50.9545ZM1177.08 41.4426L1171.99 37.4141L1175.28 31.3591L1180.23 35.0321L1177.08 41.4426ZM1181.58 32.2782L1176.74 28.6826L1179.84 22.9862L1184.54 26.2476L1181.58 32.2782ZM1185.89 23.5049L1181.29 20.3167L1183.32 16.5915C1183.5 16.2537 1183.69 15.9238 1183.89 15.6021C1185.5 16.1192 1187.06 16.85 1188.53 17.8029L1188.65 17.8759L1185.89 23.5049ZM1189.99 15.1474C1188.64 14.2991 1187.24 13.609 1185.8 13.0723C1186.55 12.2382 1187.36 11.4829 1188.23 10.81C1189.49 10.7775 1190.75 10.8668 1192 11.083C1191.89 11.2882 1191.78 11.4959 1191.68 11.7061L1189.99 15.1474ZM1195.03 11.8705C1196.21 12.2825 1197.36 12.8165 1198.48 13.4766L1758.01 345.125L1744.7 372.24L1192.56 16.801L1194.4 13.0373C1194.6 12.6377 1194.81 12.2487 1195.03 11.8705ZM1193.73 8.3654C1193.45 8.3007 1193.17 8.24158 1192.89 8.18801C1193.33 8.01738 1193.77 7.86352 1194.22 7.72674C1194.05 7.93578 1193.89 8.14869 1193.73 8.3654ZM1483.48 858.977L1485.42 859.92C1486.07 860.236 1486.73 860.51 1487.39 860.742L1493.98 852.931L1507.36 828.324L1485.02 856.402L1483.48 858.977ZM1771.76 363.343C1771.61 359.936 1770.57 356.703 1768.81 353.924L1755.18 378.983L1759.05 381.474C1760.41 382.349 1761.66 383.358 1762.79 384.478L1769.08 373.912C1771 370.704 1771.92 367.057 1771.76 363.343ZM1757.41 383.99L1753.74 381.627L1739.57 407.676L1746.21 412.284L1761.19 387.158C1760.08 385.961 1758.81 384.893 1757.41 383.99ZM1744.67 414.878L1738.12 410.339L1724.38 435.62L1729.87 439.704L1744.67 414.878ZM1728.32 442.308L1722.92 438.297L1709.55 462.885L1713.97 466.385L1728.32 442.308ZM1712.41 468.995L1708.09 465.571L1695.06 489.515L1698.48 492.377L1712.41 468.995ZM1696.91 495L1693.59 492.216L1680.9 515.564L1683.36 517.743L1696.91 495ZM1681.79 520.372L1679.42 518.275L1667.03 541.065L1668.59 542.52L1681.79 520.372ZM1667.01 545.161L1665.55 543.792L1653.44 566.053L1654.15 566.747L1667.01 545.161ZM1560.88 729.926L1559.14 733.119L1554.71 739.476L1556.94 735.732L1560.78 729.799L1560.88 729.926ZM1552.5 751.648L1561.67 734.789L1563.09 732.746L1565.38 735.661L1552.97 752.268L1552.5 751.648ZM1574.72 710.791L1575.06 710.164L1575.11 710.228L1574.72 710.791ZM1550 756.251L1550.92 754.558L1551.09 754.786L1550 756.251ZM1546.09 757.118L1538.69 770.726L1537.61 769.269L1546.09 757.118ZM1541.87 780.112L1539.08 776.327L1528.98 794.899L1529.51 795.644L1541.87 780.112ZM1527.28 791.714L1527.02 792.178L1526.98 792.113L1527.28 791.714ZM1527.56 798.096L1527.38 797.84L1526.54 799.379L1527.56 798.096ZM1525.42 795.118L1515.69 813.015L1515.45 813.317L1513.36 810.334L1525.09 794.646L1525.42 795.118ZM1503.65 841.469L1515.81 819.112L1518.85 823.456L1503.65 841.469ZM1486.83 866.07L1472.31 892.772L1464.94 901.049C1462.48 902.535 1459.7 903.433 1456.84 903.674L1461.02 896.675L1486.83 866.07ZM1455.01 906.748C1456.84 906.771 1458.65 906.562 1460.41 906.135L1445.2 923.212L1455.01 906.748ZM1438.57 918.617L1449.3 905.898C1448.61 905.698 1447.93 905.463 1447.26 905.191L1438.57 918.617ZM1409.62 944.142L1441.09 902.013L886.086 601.854C879.483 598.273 875.17 591.391 874.837 583.883C874.664 580.009 875.556 576.162 877.42 572.727L1081.36 197.734L1073.28 186.168L836.964 582.658C835.047 585.866 834.129 589.527 834.289 593.228V593.214C834.568 599.697 838.056 605.528 843.634 608.829L1407.56 943.081C1408.23 943.48 1408.92 943.834 1409.62 944.142ZM1074.98 183.312L1082.98 194.758L1087.82 185.863L1079.97 174.936L1074.98 183.312ZM1081.65 172.112L1089.42 182.922L1094.2 174.138L1086.59 163.837L1081.65 172.112ZM1088.26 161.027L1095.79 171.214L1100.5 162.554L1093.12 152.866L1088.26 161.027ZM1094.8 150.058L1102.08 159.635L1106.73 151.097L1099.6 142.009L1094.8 150.058ZM1101.25 139.23L1108.3 148.209L1112.87 139.805L1105.98 131.301L1101.25 139.23ZM1107.63 128.537L1114.43 136.934L1118.91 128.693L1112.26 120.759L1107.63 128.537ZM1113.91 118L1120.47 125.83L1124.87 117.734L1118.46 110.355L1113.91 118ZM1120.09 107.624L1126.41 114.902L1130.73 106.965L1124.56 100.124L1120.09 107.624ZM1126.17 97.4207L1132.25 104.163L1136.47 96.413L1130.54 90.094L1126.17 97.4207ZM1132.14 87.4002L1137.98 93.6244L1142.09 86.0694L1136.4 80.2545L1132.14 87.4002ZM1138 77.5774L1143.6 83.3005L1147.59 75.9655L1142.13 70.6363L1138 77.5774ZM1143.73 67.9585L1149.09 73.1987L1152.95 66.1032L1147.73 61.2409L1143.73 67.9585ZM1149.32 58.5851L1154.44 63.3619L1158.18 56.4851L1153.2 52.0706L1149.32 58.5851ZM1154.76 49.4491L1159.65 53.7818L1163.23 47.1969L1158.48 43.2089L1154.76 49.4491ZM1160.05 40.5793L1164.71 44.4883L1168.13 38.1979L1163.6 34.6161L1160.05 40.5793ZM1165.16 32.0057L1169.59 35.5122L1172.84 29.5401L1168.69 26.4558C1168.64 26.4181 1168.58 26.3806 1168.53 26.3434L1165.16 32.0057ZM1170.48 24.033L1174.29 26.8635L1177.32 21.3048C1175.85 20.4432 1174.32 19.7826 1172.75 19.3168C1172.57 19.5872 1172.4 19.8636 1172.23 20.1459L1170.08 23.7423C1170.22 23.8377 1170.35 23.9346 1170.48 24.033ZM1174.76 16.7976C1176.13 17.2809 1177.47 17.8973 1178.76 18.6501L1180.65 15.1672C1180.71 15.0692 1180.76 14.9719 1180.82 14.8751C1179.6 14.6894 1178.37 14.6185 1177.16 14.6588C1176.31 15.2971 1175.5 16.011 1174.76 16.7976ZM1181.99 12.0186C1182.21 12.0584 1182.42 12.1013 1182.64 12.1474C1182.76 11.9852 1182.89 11.8253 1183.02 11.6675C1182.68 11.7748 1182.33 11.8919 1181.99 12.0186ZM1451.46 903.337C1450.61 903.157 1449.76 902.914 1448.93 902.608L1451.89 898.034L1471.02 873.998L1458.52 894.965L1451.46 903.337ZM1763.19 389.696C1765.14 392.653 1766.3 396.123 1766.46 399.751C1766.63 403.851 1765.54 407.845 1763.31 411.306L1757.38 420.469C1756.39 419.493 1755.32 418.596 1754.15 417.789L1748.7 414.006L1763.19 389.696ZM1747.15 416.601L1752.43 420.265C1753.63 421.096 1754.72 422.036 1755.69 423.068L1740.04 447.258L1732.3 441.511L1747.15 416.601ZM1730.75 444.116L1738.39 449.796L1723.02 473.549L1716.35 468.272L1730.75 444.116ZM1714.8 470.882L1721.38 476.09L1706.48 499.097L1700.82 494.34L1714.8 470.882ZM1699.25 496.963L1704.83 501.647L1690.38 523.97L1685.65 519.778L1699.25 496.963ZM1684.09 522.408L1688.73 526.523L1674.7 548.21L1670.85 544.623L1684.09 522.408ZM1669.27 547.264L1673.04 550.773L1659.39 571.864L1656.37 568.915L1669.27 547.264ZM1654.78 571.586L1657.71 574.453L1644.41 595.002L1642.18 592.722L1654.78 571.586ZM1506.49 814.486L1508.94 810.369L1504.64 816.53L1502.59 819.706L1506.49 814.486ZM1533.07 775.785L1524.99 789.343L1525.13 789.538L1537.05 773.581L1535.79 771.88L1533.07 775.785ZM1508.98 816.209L1496.52 837.101L1513.48 815.787L1511.46 812.887L1508.98 816.209ZM1434.57 935.145L1449.04 910.875L1425.58 938.681L1421.26 945.354C1423.64 944.856 1425.93 943.909 1427.98 942.548L1434.57 935.145ZM1423.1 948.022C1421.79 948.375 1420.44 948.608 1419.08 948.717L1410.04 962.682L1423.1 948.022ZM1413.4 948.444L1408.85 953.845L1412.71 948.308C1412.84 948.335 1412.96 948.361 1413.09 948.386C1413.2 948.406 1413.3 948.425 1413.4 948.444ZM1407.76 946.625L1383.12 979.602L1376.73 987.635C1373.92 987.264 1371.15 986.285 1368.62 984.654L799.744 618.467C794.353 614.993 790.971 609.109 790.692 602.706V602.719C790.505 598.619 791.597 594.625 793.847 591.151L1064.29 173.315L1071.38 183.459L834.369 581.127C832.159 584.841 831.081 589.074 831.267 593.374C831.6 600.855 835.647 607.618 842.09 611.439L1406.01 945.69C1406.59 946.03 1407.17 946.342 1407.76 946.625ZM1073.08 180.603L1066.07 170.569L1071.17 162.685L1078.05 172.267L1073.08 180.603ZM1079.74 169.443L1072.93 159.967L1077.97 152.178L1084.64 161.209L1079.74 169.443ZM1086.32 158.399L1079.72 149.472L1084.7 141.788L1091.16 150.28L1086.32 158.399ZM1092.83 147.473L1086.45 139.083L1091.35 131.504L1097.6 139.468L1092.83 147.473ZM1099.26 136.689L1093.09 128.825L1097.92 121.358L1103.96 128.807L1099.26 136.689ZM1105.6 126.042L1099.65 118.691L1104.39 111.367L1110.21 118.313L1105.6 126.042ZM1111.85 115.554L1106.11 108.703L1110.77 101.503L1116.38 107.96L1111.85 115.554ZM1118.01 105.229L1112.48 98.8642L1117.05 91.8004L1122.45 97.7824L1118.01 105.229ZM1124.06 95.0787L1118.74 89.1862L1123.21 82.2858L1128.39 87.8077L1124.06 95.0787ZM1130 85.114L1124.9 79.6792L1129.25 72.9497L1134.22 78.0266L1130 85.114ZM1135.82 75.3496L1130.93 70.3571L1135.16 63.8217L1139.92 68.4699L1135.82 75.3496ZM1141.51 65.7921L1136.84 61.226L1140.93 54.9032L1145.48 59.139L1141.51 65.7921ZM1147.06 56.4832L1142.6 52.3263L1146.57 46.1961L1150.9 50.0365L1147.06 56.4832ZM1152.47 47.4151L1148.22 43.6503L1152.01 37.7827L1156.14 41.2466L1152.47 47.4151ZM1157.71 38.6169L1153.67 35.2262L1157.25 29.6877C1157.76 30.0256 1158.26 30.3861 1158.74 30.7689L1161.22 32.7294L1157.71 38.6169ZM1162.77 30.119L1160.62 28.4127C1160.06 27.9682 1159.48 27.5501 1158.89 27.1588L1161.14 23.6868C1161.29 23.4572 1161.44 23.2317 1161.6 23.0104C1163.1 23.4174 1164.57 23.9939 1165.98 24.7441L1162.77 30.119ZM1167.53 22.1493C1166.29 21.4816 1165.01 20.9316 1163.7 20.4973C1164.43 19.7612 1165.21 19.0912 1166.04 18.4892C1167.23 18.4388 1168.42 18.4909 1169.61 18.6481L1167.53 22.1493ZM1171.53 15.9111C1171.37 15.8803 1171.22 15.8512 1171.06 15.8236C1171.31 15.7347 1171.56 15.6506 1171.81 15.5716C1171.71 15.6836 1171.62 15.7968 1171.53 15.9111ZM1414.62 945.573C1414.98 945.625 1415.35 945.666 1415.72 945.697L1423.03 937.033L1432.51 922.382L1418.6 939.865L1414.62 945.573ZM1761.2 436.173C1761.04 432.3 1759.81 428.654 1757.7 425.564L1742.48 449.076L1749.25 454.104C1750.26 454.857 1751.21 455.68 1752.08 456.562L1757.54 448.726C1760.14 445.012 1761.4 440.672 1761.2 436.173ZM1747.45 456.527L1740.84 451.614L1725.42 475.445L1734.1 482.323L1750.32 459.084C1749.45 458.157 1748.49 457.3 1747.45 456.527ZM1732.38 484.798L1723.77 477.986L1708.83 501.067L1716.53 507.523L1732.38 484.798ZM1714.79 510.004L1707.18 503.617L1692.69 526.01L1699.45 532L1714.79 510.004ZM1697.72 534.483L1691.03 528.563L1676.95 550.316L1682.84 555.804L1697.72 534.483ZM1681.11 558.293L1675.3 552.879L1661.6 574.032L1666.67 578.985L1681.11 558.293ZM1664.92 581.498L1659.93 576.621L1646.59 597.229L1650.88 601.616L1664.92 581.498ZM1649.12 604.138L1644.91 599.828L1631.9 619.928L1635.46 623.724L1649.12 604.138ZM1633.69 626.258L1630.21 622.541L1617.5 642.166L1620.37 645.349L1633.69 626.258ZM1451.05 893.746L1449.31 896.434L1446 900.596L1446.92 899.264L1451.05 893.746ZM1410.04 957.098L1396.81 977.537L1391.04 984.02C1389.47 985.16 1387.74 986.053 1385.94 986.685L1390.01 980.84L1410.04 957.098ZM1383.28 990.487C1384.13 990.34 1384.97 990.146 1385.8 989.906L1376.07 1000.82L1383.28 990.487ZM1343.16 1029.82L1374.59 990.327C1371.96 989.768 1369.39 988.733 1367 987.196L798.12 620.996C791.903 617.003 788.003 610.214 787.683 602.839C787.47 598.113 788.735 593.507 791.317 589.514L1062.43 170.655L1056.21 161.754L750.716 599.644C748.133 603.345 746.869 607.698 747.068 612.197V612.184C747.348 618.627 750.543 624.431 755.841 628.105L1329.67 1026.24C1333.76 1029.08 1338.54 1030.22 1343.16 1029.82ZM1058.05 159.106L1064.21 167.908L1069.29 160.061L1063.25 151.658L1058.05 159.106ZM1065.08 149.036L1071.05 157.343L1076.06 149.593L1070.21 141.677L1065.08 149.036ZM1072.04 139.066L1077.81 146.887L1082.76 139.244L1077.1 131.805L1072.04 139.066ZM1078.92 129.193L1084.51 136.539L1089.39 129.002L1083.92 122.03L1078.92 129.193ZM1085.73 119.442L1091.12 126.323L1095.93 118.901L1090.65 112.385L1085.73 119.442ZM1092.45 109.807L1097.66 116.233L1102.37 108.956L1097.28 102.885L1092.45 109.807ZM1099.07 100.308L1104.09 106.292L1108.72 99.1405L1103.82 93.5035L1099.07 100.308ZM1105.6 90.9493L1110.43 96.5016L1114.97 89.4886L1110.26 84.2725L1105.6 90.9493ZM1112.03 81.7408L1116.66 86.8744L1121.09 80.0272L1116.58 75.2189L1112.03 81.7408ZM1118.34 72.6927L1122.78 77.4207L1127.1 70.7472L1122.78 66.3332L1118.34 72.6927ZM1124.53 63.8186L1128.78 68.1546L1132.97 61.6781L1128.84 57.6442L1124.53 63.8186ZM1130.6 55.1244L1134.65 59.0824L1138.7 52.8216L1134.76 49.153L1130.6 55.1244ZM1136.51 46.6492L1140.37 50.2447L1144.29 44.1798L1140.55 40.8613L1136.51 46.6492ZM1142.27 38.3859L1145.94 41.6341L1149.69 35.8356L1148.81 35.095C1147.91 34.3411 1146.97 33.6638 1145.99 33.0653L1142.27 38.3859ZM1150.77 32.7921L1151.35 33.2791L1154.64 28.1956C1153.3 27.547 1151.89 27.0405 1150.45 26.6809C1150.32 26.8648 1150.18 27.0516 1150.05 27.2413L1147.71 30.5887C1148.77 31.2434 1149.8 31.9787 1150.77 32.7921ZM1152.67 24.1752C1153.91 24.5688 1155.12 25.0608 1156.29 25.6486L1158.39 22.401C1157.24 22.2726 1156.08 22.2386 1154.93 22.2973C1154.14 22.8629 1153.38 23.4893 1152.67 24.1752ZM1160.15 19.6066C1160.19 19.6132 1160.22 19.62 1160.26 19.6268C1160.31 19.6349 1160.36 19.6433 1160.4 19.6517L1160.44 19.6022L1160.49 19.5521C1160.51 19.5243 1160.54 19.4965 1160.56 19.4688C1160.47 19.4978 1160.38 19.5273 1160.29 19.5574C1160.24 19.5737 1160.2 19.5901 1160.15 19.6066ZM1752.3 461.546C1754.51 464.769 1755.81 468.576 1755.99 472.594C1756.2 477.44 1754.71 482.246 1751.79 486.159L1746.88 492.729C1746.1 491.912 1745.25 491.144 1744.35 490.432L1736.49 484.208L1752.3 461.546ZM1734.76 486.683L1742.47 492.789C1743.4 493.524 1744.26 494.326 1745.05 495.185L1728.39 517.48L1718.86 509.478L1734.76 486.683ZM1717.12 511.96L1726.58 519.898L1710.34 541.645L1701.73 534.023L1717.12 511.96ZM1700 536.506L1708.53 544.063L1692.81 565.097L1685.08 557.89L1700 536.506ZM1683.35 560.38L1691.01 567.519L1675.79 587.891L1668.87 581.131L1683.35 560.38ZM1667.11 583.644L1673.96 590.333L1659.19 610.103L1653.04 603.819L1667.11 583.644ZM1651.28 606.341L1657.36 612.552L1643.01 631.764L1637.58 625.981L1651.28 606.341ZM1635.81 628.515L1641.17 634.223L1627.2 652.918L1622.46 647.657L1635.81 628.515ZM1620.69 650.195L1625.36 655.38L1611.75 673.601L1607.65 668.882L1620.69 650.195ZM1605.87 671.43L1609.9 676.07L1596.63 693.842L1593.14 689.682L1605.87 671.43ZM1387.56 979.083L1388.73 977.399L1385.78 981.104L1385.25 981.814L1387.56 979.083ZM1359.08 1019.91L1368.72 1006.08L1354.74 1022.65L1351.17 1027.42C1352.18 1026.88 1353.15 1026.25 1354.06 1025.53L1359.08 1019.91ZM1348.45 1031.84C1348.21 1031.91 1347.96 1031.98 1347.72 1032.05L1344.91 1035.81L1348.45 1031.84ZM1340.7 1032.91L1316.72 1063.05L1310.04 1070.97C1303.7 1073.04 1296.48 1072.11 1290.73 1067.84L711.951 637.756C706.813 633.936 703.711 628.079 703.432 621.689H703.418C703.205 616.843 704.696 612.024 707.598 608.124L1048.91 151.319L1054.37 159.124L748.24 597.927C745.271 602.187 743.82 607.166 744.047 612.331C744.366 619.719 748.04 626.375 754.11 630.595L1327.95 1028.73C1331.84 1031.43 1336.28 1032.79 1340.7 1032.91ZM1056.22 156.476L1050.82 148.762L1056.1 141.7L1061.39 149.063L1056.22 156.476ZM1063.22 146.442L1057.99 139.167L1063.21 132.189L1068.32 139.119L1063.22 146.442ZM1070.15 136.508L1065.09 129.665L1070.23 122.781L1075.18 129.286L1070.15 136.508ZM1077.01 126.674L1072.12 120.254L1077.2 113.462L1081.98 119.551L1077.01 126.674ZM1083.78 116.964L1079.07 110.958L1084.07 104.265L1088.67 109.949L1083.78 116.964ZM1090.47 107.371L1085.93 101.769L1090.84 95.2051L1095.27 100.493L1090.47 107.371ZM1097.07 97.9162L1092.7 92.7086L1097.53 86.2554L1101.78 91.1578L1097.07 97.9162ZM1103.57 88.6036L1099.38 83.7795L1104.11 77.4478L1108.19 81.9757L1103.57 88.6036ZM1109.96 79.4439L1105.94 74.9921L1110.56 68.808L1114.47 72.9733L1109.96 79.4439ZM1116.23 70.4471L1112.39 66.3561L1116.9 60.3269L1120.63 64.1415L1116.23 70.4471ZM1122.39 61.6269L1118.72 57.8845L1123.1 52.0323L1126.65 55.5093L1122.39 61.6269ZM1128.41 52.9895L1124.93 49.583L1129.15 43.9255L1132.54 47.0781L1128.41 52.9895ZM1134.28 44.5743L1131.04 41.5515L1130.97 41.49L1134.73 36.4557C1135.96 37.1381 1137.15 37.94 1138.27 38.8624L1134.28 44.5743ZM1139.99 36.3966C1138.89 35.5076 1137.74 34.7204 1136.54 34.0342L1138.97 30.7822C1139.08 30.636 1139.19 30.4916 1139.31 30.3491C1140.67 30.6619 1142.01 31.1013 1143.29 31.663L1139.99 36.3966ZM1145.04 29.1494C1143.93 28.6331 1142.79 28.1979 1141.62 27.8462C1142.33 27.1983 1143.07 26.6051 1143.85 26.0675C1144.96 26.0034 1146.06 26.0223 1147.16 26.1223L1145.04 29.1494ZM1149.28 23.3581L1149.28 23.3572L1149.28 23.3542L1149.28 23.3581ZM1750.77 509.003C1750.59 504.884 1749.26 500.96 1746.99 497.632L1730.71 519.422L1739.45 526.761C1740.27 527.443 1741.03 528.172 1741.75 528.943L1746.03 523.566C1749.32 519.426 1750.99 514.261 1750.77 509.003ZM1737.51 529.064L1728.9 521.84L1712.6 543.654L1722.83 552.715L1739.84 531.336C1739.13 530.527 1738.35 529.767 1737.51 529.064ZM1720.96 555.072L1710.8 546.071L1695.04 567.167L1704.39 575.887L1720.96 555.072ZM1702.52 578.245L1693.23 569.589L1677.96 590.019L1686.5 598.365L1702.52 578.245ZM1684.61 600.743L1676.14 592.462L1661.33 612.287L1669.1 620.232L1684.61 600.743ZM1667.21 622.614L1659.5 614.736L1645.1 634.001L1652.16 641.521L1667.21 622.614ZM1650.26 643.911L1643.27 636.46L1629.26 655.204L1635.64 662.278L1650.26 643.911ZM1633.74 664.67L1627.42 657.666L1613.78 675.935L1619.52 682.544L1633.74 664.67ZM1617.61 684.941L1611.93 678.404L1598.62 696.22L1603.76 702.348L1617.61 684.941ZM1601.84 704.759L1596.76 698.705L1583.76 716.106L1588.33 721.738L1601.84 704.759ZM1321.68 1061.84L1321.45 1062.15L1320.88 1062.79L1321.68 1061.84ZM1275.78 1111.57L1306.83 1074.77C1300.72 1075.63 1294.27 1074.19 1288.95 1070.24L710.167 640.166C704.297 635.8 700.743 629.117 700.423 621.809C700.17 616.284 701.874 610.773 705.202 606.327L1047.09 148.719L1042.3 141.866L664.507 616.604C661.219 620.73 659.542 625.909 659.768 631.167H659.755C660.035 637.517 663.056 643.427 668.048 647.381L1251.78 1109.4C1258.84 1114.99 1268.3 1115.54 1275.78 1111.57ZM1044.27 139.392L1049 146.162L1054.26 139.134L1049.62 132.675L1044.27 139.392ZM1051.57 130.224L1056.15 136.601L1061.34 129.658L1056.85 123.586L1051.57 130.224ZM1058.79 121.142L1063.22 127.134L1068.34 120.286L1064.01 114.594L1058.79 121.142ZM1065.95 112.146L1070.22 117.76L1075.27 111.006L1071.1 105.685L1065.95 112.146ZM1073.03 103.258L1077.14 108.502L1082.11 101.85L1078.09 96.8913L1073.03 103.258ZM1080.02 94.4706L1083.98 99.3536L1088.85 92.8319L1084.99 88.2268L1080.02 94.4706ZM1086.92 85.8044L1090.71 90.3353L1095.5 83.9267L1091.8 79.6659L1086.92 85.8044ZM1093.71 77.2622L1097.35 81.4506L1102.05 75.1657L1098.51 71.2395L1093.71 77.2622ZM1100.41 68.8543L1103.88 72.71L1108.47 66.5751L1105.09 62.9726L1100.41 68.8543ZM1106.98 60.5895L1110.3 64.1231L1114.76 58.1458L1111.54 54.8563L1106.98 60.5895ZM1113.44 52.4809L1116.59 55.7034L1120.92 49.9061L1119.05 48.0743C1118.65 47.6868 1118.24 47.3151 1117.83 46.9591L1113.44 52.4809ZM1121.18 45.9178L1122.75 47.4566L1126.84 41.9805C1125.77 41.1838 1124.64 40.4819 1123.46 39.8788L1119.72 44.5877C1120.21 45.0109 1120.7 45.4543 1121.18 45.9178ZM1125.37 37.4778C1126.51 38.0909 1127.6 38.7869 1128.65 39.5627L1131.95 35.1431C1130.71 34.6546 1129.43 34.2765 1128.14 34.0079C1128.05 34.1121 1127.97 34.2172 1127.88 34.3232L1125.37 37.4778ZM1130.55 31.5128C1131.65 31.8235 1132.74 32.2068 1133.8 32.6632L1135.91 29.8397C1134.86 29.7621 1133.79 29.757 1132.72 29.8262C1131.97 30.3406 1131.24 30.9036 1130.55 31.5128ZM1741.75 533.797C1744.04 537.221 1745.39 541.244 1745.58 545.424C1745.83 551.108 1743.94 556.633 1740.26 560.999L1736.7 565.226C1736.02 564.475 1735.3 563.757 1734.53 563.076L1725.1 554.722L1741.75 533.797ZM1723.22 557.079L1732.53 565.326C1733.32 566.026 1734.06 566.77 1734.73 567.553L1717.44 588.049L1706.61 577.953L1723.22 557.079ZM1704.73 580.311L1715.5 590.349L1698.69 610.276L1688.68 600.488L1704.73 580.311ZM1686.78 602.865L1696.74 612.592L1680.48 631.86L1671.23 622.408L1686.78 602.865ZM1669.34 624.79L1678.53 634.18L1662.78 652.84L1654.25 643.747L1669.34 624.79ZM1652.35 646.137L1660.82 655.166L1645.55 673.265L1637.69 664.552L1652.35 646.137ZM1635.79 666.943L1643.59 675.591L1628.75 693.178L1621.53 684.863L1635.79 666.943ZM1619.62 687.26L1626.79 695.508L1612.36 712.611L1605.74 704.71L1619.62 687.26ZM1603.82 707.12L1610.38 714.952L1596.33 731.613L1590.27 724.141L1603.82 707.12ZM1588.35 726.56L1594.35 733.962L1580.64 750.204L1575.13 743.173L1588.35 726.56ZM1573.19 745.61L1578.65 752.57L1565.27 768.43L1560.26 761.851L1573.19 745.61ZM1271.76 1116.34C1264.42 1118.25 1256.29 1116.82 1249.9 1111.77L666.158 649.737C660.487 645.251 657.053 638.528 656.733 631.3C656.467 625.323 658.384 619.439 662.125 614.74L1040.5 139.282L1036.3 133.275L621.39 625.096C617.716 629.449 615.825 634.987 616.078 640.671V640.685C616.345 647.008 619.287 652.972 624.145 657.045L1212.83 1151C1221.81 1158.53 1234.98 1157.92 1243.24 1149.96L1246.24 1146.59L1271.76 1116.34ZM1042.46 136.807L1038.32 130.877L1043.72 124.47L1047.78 130.123L1042.46 136.807ZM1049.73 127.672L1045.73 122.094L1051.07 115.762L1054.99 121.069L1049.73 127.672ZM1056.93 118.625L1053.07 113.392L1058.34 107.145L1062.12 112.112L1056.93 118.625ZM1064.07 109.664L1060.34 104.77L1065.54 98.6064L1069.18 103.24L1064.07 109.664ZM1071.11 100.813L1067.53 96.2509L1072.65 90.1774L1076.14 94.4858L1071.11 100.813ZM1078.07 92.0651L1074.64 87.8267L1079.66 81.8708L1083.01 85.8625L1078.07 92.0651ZM1084.93 83.4401L1081.65 79.5172L1086.59 73.6618L1089.79 77.3449L1084.93 83.4401ZM1091.7 74.9412L1088.56 71.3252L1093.4 65.5805L1096.45 68.9639L1091.7 74.9412ZM1098.35 66.5787L1095.36 63.2606L1100.09 57.6513L1103 60.7449L1098.35 66.5787ZM1104.89 58.3619L1102.05 55.3322L1106.5 50.0496C1107.42 50.7632 1108.31 51.547 1109.14 52.4009L1109.41 52.6791L1104.89 58.3619ZM1111.3 50.3038L1111.3 50.2976C1110.39 49.3732 1109.44 48.5225 1108.45 47.7453L1112.19 43.31C1113.3 43.8315 1114.38 44.4388 1115.42 45.132L1111.3 50.3038ZM1117.31 42.7571C1116.31 42.0753 1115.27 41.4657 1114.2 40.9283L1116.8 37.8506C1116.82 37.8245 1116.84 37.7983 1116.86 37.7723C1116.9 37.7311 1116.93 37.69 1116.97 37.649C1118.2 37.8833 1119.41 38.2127 1120.59 38.634L1117.31 42.7571ZM1122.56 36.1582C1121.56 35.7576 1120.54 35.4169 1119.5 35.138C1120.16 34.5764 1120.85 34.0556 1121.57 33.5771C1122.59 33.5018 1123.61 33.4923 1124.64 33.5493L1122.56 36.1582ZM1740.4 581.833C1740.21 577.538 1738.89 573.489 1736.6 570.007L1719.64 590.101L1729.63 599.404C1730.36 600.087 1731.05 600.804 1731.7 601.551L1734.49 598.419C1738.56 593.84 1740.66 587.943 1740.4 581.833ZM1727.56 601.588L1717.71 592.4L1700.85 612.382L1712.18 623.46L1729.68 603.818C1729.03 603.038 1728.32 602.293 1727.56 601.588ZM1710.17 625.719L1698.89 614.698L1682.6 634.018L1693.16 644.815L1710.17 625.719ZM1691.15 647.076L1680.64 636.338L1664.86 655.047L1674.7 665.54L1691.15 647.076ZM1672.68 667.807L1662.89 657.373L1647.59 675.519L1656.76 685.688L1672.68 667.807ZM1654.74 687.953L1645.62 677.844L1630.75 695.475L1639.29 705.303L1654.74 687.953ZM1637.27 707.571L1628.78 697.805L1614.32 714.95L1622.26 724.421L1637.27 707.571ZM1620.23 726.698L1612.35 717.292L1598.26 733.992L1605.63 743.091L1620.23 726.698ZM1603.6 745.376L1596.27 736.342L1582.54 752.622L1589.38 761.337L1603.6 745.376ZM1587.33 763.636L1580.54 754.987L1567.14 770.883L1573.47 779.203L1587.33 763.636ZM1571.42 781.502L1565.14 773.249L1552.03 788.786L1557.88 796.701L1571.42 781.502ZM1555.83 799.003L1550.03 791.156L1537.21 806.358L1542.6 813.86L1555.83 799.003ZM1207.04 1190.6L1236.3 1157.75C1227.92 1160.79 1218.18 1159.42 1210.89 1153.29L622.202 659.335C616.704 654.716 613.363 647.953 613.057 640.791C612.777 634.362 614.92 628.092 619.087 623.153L1034.51 130.719L1030.83 125.459L578.272 633.563C574.185 638.142 572.095 644.026 572.362 650.15H572.348C572.615 656.54 575.423 662.41 580.216 666.657L1173.85 1192.56C1183.56 1201.15 1198.43 1200.27 1207.04 1190.6ZM1032.9 123.132L1036.53 128.321L1041.91 121.946L1038.36 117.005L1032.9 123.132ZM1040.42 114.698L1043.91 119.569L1049.23 113.271L1045.81 108.643L1040.42 114.698ZM1047.86 106.341L1051.23 110.901L1056.47 104.688L1053.18 100.366L1047.86 106.341ZM1055.24 98.0593L1058.47 102.313L1063.64 96.185L1060.49 92.1636L1055.24 98.0593ZM1062.53 89.8745L1065.63 93.8296L1070.72 87.7937L1067.7 84.0654L1062.53 89.8745ZM1069.74 81.7797L1072.7 85.4429L1077.7 79.5267L1074.81 76.0838L1069.74 81.7797ZM1076.85 73.7942L1079.68 77.1731L1084.59 71.3593L1081.84 68.1944L1076.85 73.7942ZM1083.86 65.9203L1086.56 69.0227L1091.37 63.3218L1089.32 61.0536C1089.13 60.8446 1088.94 60.6388 1088.75 60.4364L1083.86 65.9203ZM1091.56 59.0435L1093.32 61.002L1097.98 55.4836C1097.09 54.6569 1096.16 53.8961 1095.19 53.2041L1090.75 58.1841C1091.02 58.4647 1091.29 58.7512 1091.56 59.0435ZM1097.2 50.9391C1098.15 51.6269 1099.06 52.3735 1099.92 53.1767L1104.01 48.3366C1103.01 47.7367 1101.98 47.2094 1100.93 46.7547L1097.2 50.9391ZM1103.03 44.3977C1104.04 44.8735 1105.02 45.4101 1105.97 46.0075L1109.23 42.1443C1108.1 41.7806 1106.95 41.4987 1105.79 41.2984C1105.77 41.325 1105.74 41.3517 1105.72 41.3784L1103.03 44.3977ZM1108.44 38.7803C1109.41 39.0255 1110.37 39.3231 1111.32 39.6732L1113.37 37.2415C1112.77 37.2183 1112.16 37.2172 1111.55 37.2384C1111.19 37.2511 1110.83 37.2716 1110.47 37.2998C1109.77 37.753 1109.09 38.2466 1108.44 38.7803ZM1731.5 606.308C1733.76 609.85 1735.06 613.934 1735.25 618.241C1735.52 624.79 1733.22 631.047 1728.72 635.839L1726.76 637.933C1726.12 637.16 1725.44 636.416 1724.72 635.706L1714.34 625.571L1731.5 606.308ZM1712.33 627.83L1722.6 637.863C1723.34 638.589 1724.04 639.356 1724.68 640.157L1707.03 658.988L1695.28 646.977L1712.33 627.83ZM1693.26 649.238L1704.97 661.195L1687.81 679.506L1676.78 667.75L1693.26 649.238ZM1674.76 670.016L1685.74 681.717L1669.15 699.424L1658.79 687.942L1674.76 670.016ZM1656.77 690.207L1667.08 701.632L1651 718.79L1641.28 707.6L1656.77 690.207ZM1639.26 709.868L1648.93 720.999L1633.34 737.641L1624.22 726.758L1639.26 709.868ZM1622.19 729.036L1631.26 739.858L1616.11 756.028L1607.56 745.467L1622.19 729.036ZM1605.52 747.751L1614.03 758.252L1599.3 773.977L1591.27 763.749L1605.52 747.751ZM1589.22 766.049L1597.2 776.215L1582.85 791.534L1575.33 781.65L1589.22 766.049ZM1573.28 783.949L1580.75 793.77L1566.75 808.711L1559.71 799.182L1573.28 783.949ZM1557.66 801.483L1564.66 810.949L1550.99 825.539L1544.4 816.372L1557.66 801.483ZM1542.35 818.679L1548.89 827.782L1535.53 842.037L1529.38 833.239L1542.35 818.679ZM1201.4 1198.66L1169.25 1232.98C1160.1 1242.73 1144.7 1243.25 1134.9 1234.13L536.312 676.281C531.64 671.928 528.911 666.018 528.631 659.641L528.645 659.655C528.365 653.092 530.668 646.848 535.168 642.043L1025.85 118.332L1029.05 122.917L576.009 631.566C571.417 636.731 569.034 643.374 569.34 650.283C569.659 657.498 572.814 664.114 578.219 668.906L1171.85 1194.82C1180.2 1202.21 1191.97 1203.38 1201.4 1198.66ZM1031.13 120.59L1027.97 116.071L1033.47 110.197L1036.56 114.493L1031.13 120.59ZM1038.61 112.186L1035.57 107.954L1041.01 102.148L1043.98 106.162L1038.61 112.186ZM1046.03 103.861L1043.11 99.9103L1048.48 94.1819L1051.32 97.9191L1046.03 103.861ZM1053.37 95.6121L1050.58 91.9377L1055.87 86.285L1058.59 89.7512L1053.37 95.6121ZM1060.63 87.4621L1057.96 84.0575L1063.18 78.4878L1065.77 81.6895L1060.63 87.4621ZM1067.81 79.4038L1065.26 76.2626L1070.38 70.802L1072.85 73.7463L1067.81 79.4038ZM1074.89 71.4566L1072.47 68.5719L1077.4 63.3082C1078.1 63.9651 1078.77 64.6606 1079.4 65.3935L1079.84 65.8973L1074.89 71.4566ZM1081.87 63.6231L1081.69 63.4233C1080.98 62.6091 1080.24 61.8365 1079.46 61.1068L1083.88 56.3955C1084.8 56.9976 1085.69 57.6572 1086.54 58.3723L1081.87 63.6231ZM1088.55 56.1242C1087.72 55.4242 1086.86 54.7715 1085.97 54.1678L1089.68 50.202C1090.68 50.6012 1091.65 51.0606 1092.59 51.5782L1088.55 56.1242ZM1094.65 49.272C1093.75 48.7507 1092.83 48.2779 1091.88 47.855L1094.62 44.9334C1095.71 45.104 1096.8 45.3444 1097.87 45.6546L1094.65 49.272ZM1100.07 43.1897C1099.18 42.884 1098.28 42.6225 1097.37 42.4054C1097.99 41.9109 1098.64 41.4495 1099.31 41.0222C1100.23 40.9436 1101.15 40.9149 1102.07 40.9364L1100.07 43.1897ZM1730.11 654.649C1729.92 650.368 1728.65 646.267 1726.45 642.684L1709.15 661.151L1719.8 672.035C1720.53 672.781 1721.22 673.563 1721.86 674.376L1722.95 673.273C1727.79 668.334 1730.4 661.545 1730.11 654.649ZM1717.63 674.138L1707.08 663.358L1689.88 681.716L1701.98 694.61L1719.72 676.552C1719.08 675.71 1718.38 674.903 1717.63 674.138ZM1699.86 696.768L1687.81 683.926L1671.18 701.678L1682.6 714.34L1699.86 696.768ZM1680.48 716.495L1669.11 703.886L1653 721.086L1663.78 733.498L1680.48 716.495ZM1661.66 735.653L1650.93 723.295L1635.3 739.976L1645.48 752.123L1661.66 735.653ZM1643.36 754.286L1633.22 742.193L1618.04 758.401L1627.65 770.27L1643.36 754.286ZM1625.53 772.438L1615.95 760.625L1601.19 776.385L1610.27 787.964L1625.53 772.438ZM1608.13 790.145L1599.09 778.623L1584.71 793.976L1593.29 805.254L1608.13 790.145ZM1591.15 807.432L1582.61 796.212L1568.58 811.186L1576.68 822.154L1591.15 807.432ZM1574.54 824.333L1566.48 813.424L1552.79 828.045L1560.43 838.694L1574.54 824.333ZM1558.29 840.877L1550.68 830.287L1537.3 844.571L1544.52 854.895L1558.29 840.877ZM1542.36 857.09L1535.19 846.828L1179.76 1226.19L1542.36 857.09ZM1131.45 1275.36L1167.98 1238.18C1157.59 1246.02 1142.69 1245.53 1132.85 1236.36L534.262 678.504C529.004 673.606 525.942 666.963 525.623 659.788C525.303 652.413 527.899 645.384 532.958 639.993L1024.08 115.801L1021.29 111.805L492.05 650.509C487.205 655.448 484.596 662.224 484.902 669.133H484.889C485.168 675.496 487.831 681.46 492.397 685.919L1095.94 1275.71C1105.83 1285.39 1121.76 1285.23 1131.45 1275.36ZM1023.45 109.606L1026.2 113.54L1031.67 107.694L1028.99 103.961L1023.45 109.606ZM1031.14 101.778L1033.77 105.452L1039.19 99.6767L1036.62 96.1994L1031.14 101.778ZM1038.76 94.0204L1041.28 97.4386L1046.62 91.7423L1044.16 88.5161L1038.76 94.0204ZM1046.31 86.3304L1048.72 89.498L1053.99 83.879L1051.65 80.8987L1046.31 86.3304ZM1053.78 78.7286L1056.07 81.6514L1061.26 76.1171L1059.58 74.0462C1059.4 73.8227 1059.22 73.6024 1059.03 73.3854L1053.78 78.7286ZM1061.94 72.1559L1063.34 73.8919L1068.39 68.5014C1067.65 67.7029 1066.86 66.9513 1066.04 66.2483L1061.15 71.2236C1061.42 71.5284 1061.68 71.8392 1061.94 72.1559ZM1068.17 64.0823C1068.97 64.7746 1069.74 65.509 1070.47 66.2841L1075.09 61.3517C1074.27 60.7294 1073.42 60.1542 1072.55 59.6278L1068.17 64.0823ZM1074.71 57.4237C1075.55 57.9555 1076.37 58.5285 1077.16 59.1415L1081.19 54.8489C1080.29 54.3987 1079.36 53.9985 1078.42 53.6496L1074.71 57.4237ZM1080.71 51.3165C1081.6 51.6912 1082.47 52.1081 1083.32 52.5662L1086.52 49.1603C1085.51 48.8969 1084.48 48.6917 1083.43 48.5464L1080.71 51.3165ZM1086.3 46.0049C1087.16 46.1965 1088 46.4252 1088.83 46.69L1090.77 44.6221C1089.89 44.616 1089.02 44.6535 1088.15 44.7347C1087.52 45.1277 1086.9 45.5511 1086.3 46.0049ZM1721.45 679.121C1723.57 682.727 1724.8 686.818 1724.98 691.058C1725.3 698.419 1722.47 705.568 1717.18 710.706L1717 710.881C1716.34 710.002 1715.64 709.157 1714.88 708.35L1704.06 696.822L1721.45 679.121ZM1701.94 698.98L1712.67 710.413C1713.44 711.236 1714.16 712.104 1714.82 713.009L1697.02 730.331L1684.63 716.594L1701.94 698.98ZM1682.52 718.749L1694.86 732.436L1677.52 749.317L1665.77 735.792L1682.52 718.749ZM1663.66 737.947L1675.36 751.421L1658.58 767.753L1647.44 754.455L1663.66 737.947ZM1645.31 756.617L1656.42 769.863L1640.15 785.695L1629.57 772.638L1645.31 756.617ZM1627.44 774.806L1637.98 787.81L1622.2 803.171L1612.16 790.366L1627.44 774.806ZM1610.01 792.547L1620.02 805.298L1604.68 820.231L1595.14 807.689L1610.01 792.547ZM1593 809.866L1602.5 822.354L1587.57 836.889L1578.51 824.619L1593 809.866ZM1576.36 826.798L1585.39 839.012L1570.84 853.178L1562.23 841.189L1576.36 826.798ZM1560.08 843.371L1568.65 855.305L1554.46 869.119L1546.28 857.417L1560.08 843.371ZM1544.13 859.612L1552.27 871.257L1093.66 1317.73C1083.42 1327.69 1066.97 1327.49 1056.99 1317.29L448.493 695.557C444.034 691.004 441.425 684.987 441.145 678.624L441.159 678.638C440.839 671.289 443.675 664.127 448.946 658.989L1017.12 105.846L1019.53 109.302L489.894 648.419C484.463 653.944 481.547 661.545 481.88 669.279C482.186 676.414 485.181 683.097 490.293 688.089L1093.83 1277.88C1104.91 1288.7 1122.76 1288.51 1133.61 1277.46L1544.13 859.612ZM1021.7 107.102L1019.32 103.703L1024.9 98.2676L1027.21 101.485L1021.7 107.102ZM1029.36 99.303L1027.09 96.1412L1032.61 90.7693L1034.81 93.7537L1029.36 99.303ZM1036.95 91.5747L1034.79 88.6455L1040.23 83.3453L1042.33 86.1013L1036.95 91.5747ZM1044.48 83.9156L1042.42 81.2142L1047.69 76.0872C1048.38 76.8166 1049.05 77.5833 1049.68 78.3858L1049.78 78.5164L1044.48 83.9156ZM1051.91 76.3469C1051.26 75.5231 1050.57 74.7344 1049.85 73.982L1054.7 69.2544C1055.48 69.8622 1056.24 70.5125 1056.96 71.205L1051.91 76.3469ZM1059.08 69.0504C1058.37 68.3738 1057.64 67.7338 1056.89 67.1305L1061.23 62.901C1062.06 63.3607 1062.86 63.8613 1063.65 64.4015L1059.08 69.0504ZM1065.8 62.2126C1065.05 61.6768 1064.28 61.1744 1063.48 60.7065L1067.16 57.1281C1068.05 57.4315 1068.92 57.7783 1069.77 58.1673L1065.8 62.2126ZM1072 55.897C1071.2 55.4972 1070.38 55.1319 1069.55 54.8021L1072.27 52.1541C1073.25 52.2767 1074.22 52.4501 1075.17 52.6731L1072 55.897ZM1077.6 50.2023C1076.83 49.9733 1076.05 49.7742 1075.25 49.6057C1075.84 49.1802 1076.43 48.782 1077.04 48.411C1077.85 48.3331 1078.66 48.2911 1079.48 48.2859L1077.6 50.2023ZM1719.87 727.479C1719.69 723.283 1718.51 719.219 1716.48 715.606L1699.05 732.576L1709.95 744.665C1710.75 745.545 1711.48 746.467 1712.16 747.426C1717.39 742.143 1720.19 734.933 1719.87 727.479ZM1707.72 746.688L1696.89 734.681L1679.51 751.601L1692.14 766.147L1709.95 749.521C1709.27 748.533 1708.53 747.586 1707.72 746.688ZM1689.94 768.202L1677.34 753.705L1660.53 770.074L1672.56 784.425L1689.94 768.202ZM1670.35 786.486L1658.36 772.184L1642.06 788.052L1653.52 802.195L1670.35 786.486ZM1651.31 804.26L1639.89 790.167L1624.08 805.561L1635 819.484L1651.31 804.26ZM1632.78 821.561L1621.89 807.688L1606.52 822.652L1616.94 836.346L1632.78 821.561ZM1614.72 838.417L1604.34 824.775L1589.38 839.34L1599.32 852.794L1614.72 838.417ZM1597.1 854.866L1587.2 841.464L1572.62 855.658L1582.11 868.865L1597.1 854.866ZM1579.88 870.939L1570.43 857.784L1556.22 871.626L1565.27 884.578L1579.88 870.939ZM1563.04 886.663L1554.02 873.764L1095.75 1319.9C1084.33 1331.03 1065.96 1330.81 1054.82 1319.41L446.324 697.674C441.345 692.589 438.43 685.866 438.123 678.771C437.764 670.557 440.946 662.57 446.829 656.833L1015.37 103.344L1013.3 100.383L405.828 667.456C400.117 672.794 397.042 680.328 397.375 688.129C397.655 694.492 400.211 700.549 404.577 705.195L1018.02 1358.88C1028.1 1369.62 1045.08 1370.18 1055.85 1360.12L1563.04 886.663ZM1015.54 98.2937L1017.57 101.201L1023.13 95.7929L1021.16 93.0497L1015.54 98.2937ZM1023.38 90.9756L1025.31 93.6665L1030.8 88.3234L1029.87 87.0652C1029.55 86.6401 1029.23 86.2248 1028.9 85.8192L1023.38 90.9756ZM1032.29 85.2681L1032.98 86.1997L1038.34 80.9839C1037.7 80.2516 1037.02 79.5523 1036.33 78.8871L1031.11 83.7559C1031.52 84.2467 1031.91 84.7508 1032.29 85.2681ZM1038.54 76.8174C1039.22 77.4713 1039.88 78.155 1040.51 78.8675L1045.5 74.0085C1044.81 73.4126 1044.1 72.8491 1043.36 72.319L1038.54 76.8174ZM1045.61 70.2232C1046.32 70.7523 1047 71.3101 1047.67 71.8959L1052.19 67.4939C1051.45 67.028 1050.69 66.5968 1049.92 66.2004L1045.61 70.2232ZM1052.25 64.025C1052.98 64.4318 1053.71 64.8681 1054.41 65.3335L1058.35 61.5036C1057.55 61.17 1056.73 60.8717 1055.91 60.6095L1052.25 64.025ZM1058.41 58.2769C1059.18 58.5658 1059.94 58.8839 1060.68 59.2305L1063.79 56.2042C1062.9 56.0182 1062 55.8733 1061.09 55.7708L1058.41 58.2769ZM1064.18 53.2138C1064.9 53.3601 1065.62 53.5313 1066.34 53.7271L1068.17 51.9419C1067.41 51.9577 1066.65 52.0041 1065.91 52.0806C1065.32 52.4348 1064.74 52.8127 1064.18 53.2138ZM1711.55 752.151C1713.48 755.757 1714.59 759.772 1714.77 763.888C1715.1 771.372 1712.4 778.562 1707.32 783.956C1706.62 782.929 1705.86 781.936 1705.03 780.98L1694.12 768.423L1711.55 752.151ZM1691.92 770.479L1702.75 782.951C1703.61 783.948 1704.4 784.99 1705.11 786.072L1687.32 802.034L1674.5 786.738L1691.92 770.479ZM1672.29 788.799L1685.08 804.049L1667.68 819.659L1655.43 804.542L1672.29 788.799ZM1653.21 806.607L1665.43 821.677L1648.58 836.79L1636.87 821.864L1653.21 806.607ZM1634.65 823.941L1646.32 838.82L1629.98 853.482L1618.77 838.756L1634.65 823.941ZM1616.56 840.828L1627.72 855.506L1611.85 869.75L1601.12 855.234L1616.56 840.828ZM1598.9 857.306L1609.59 871.774L1594.15 885.631L1583.88 871.333L1598.9 857.306ZM1581.66 873.407L1591.89 887.656L1576.86 901.145L1567.02 887.073L1581.66 873.407ZM1564.78 889.158L1574.59 903.18L1018.06 1402.5C1012.58 1407.42 1005.51 1409.92 998.133 1409.53C990.771 1409.15 983.995 1405.93 979.057 1400.45L360.661 714.833C356.388 710.094 353.872 703.984 353.605 697.634L353.592 697.62C353.233 689.354 356.561 681.446 362.711 675.922L1009.79 95.3654C1009.87 95.4867 1009.96 95.6088 1010.05 95.7314L1011.56 97.8887L403.765 665.259C397.402 671.196 393.981 679.569 394.353 688.262C394.66 695.331 397.508 702.08 402.367 707.258L1015.81 1360.93C1027.03 1372.89 1045.92 1373.51 1057.92 1362.32L1564.78 889.158ZM1013.79 95.7992L1012.54 94.0009C1012.38 93.7751 1012.22 93.5514 1012.06 93.3297L1017.55 88.3996C1018.19 89.1011 1018.79 89.8321 1019.37 90.5916L1013.79 95.7992ZM1021.59 88.525C1021.01 87.7867 1020.42 87.0735 1019.8 86.3864L1024.96 81.7556C1025.62 82.3314 1026.27 82.9373 1026.89 83.5729L1021.59 88.525ZM1029.1 81.5123C1028.49 80.8902 1027.86 80.2941 1027.22 79.7242L1032 75.4331C1032.7 75.8955 1033.38 76.3858 1034.04 76.9032L1029.1 81.5123ZM1036.27 74.8154C1035.64 74.3043 1034.99 73.8165 1034.32 73.3525L1038.61 69.5064C1039.34 69.8537 1040.05 70.2293 1040.75 70.6325L1036.27 74.8154ZM1043.05 68.4885C1042.39 68.0826 1041.71 67.6997 1041.02 67.3406L1044.64 64.0986C1045.41 64.3247 1046.17 64.5817 1046.93 64.8694L1043.05 68.4885ZM1049.35 62.6039C1048.65 62.3019 1047.95 62.0245 1047.23 61.7719L1049.9 59.379C1050.75 59.4634 1051.59 59.5835 1052.42 59.7384L1049.35 62.6039ZM1055.1 57.2387C1054.45 57.0707 1053.78 56.9226 1053.11 56.7949C1053.64 56.4276 1054.19 56.0801 1054.74 55.7529C1055.44 55.6773 1056.14 55.6273 1056.85 55.6035L1055.1 57.2387ZM1709.67 800.296C1709.5 796.196 1708.46 792.284 1706.65 788.72L1689.25 804.332L1700.11 817.295C1700.97 818.317 1701.75 819.379 1702.47 820.477C1707.4 814.983 1710 807.807 1709.67 800.296ZM1697.8 819.225L1687 806.347L1669.57 821.991L1682.54 838.001L1699.88 823.02C1700.01 822.901 1700.15 822.781 1700.28 822.66C1699.55 821.468 1698.72 820.321 1697.8 819.225ZM1680.25 839.976L1667.32 824.01L1650.44 839.155L1662.87 854.999L1680.25 839.976ZM1660.57 856.984L1648.18 841.184L1631.8 855.877L1643.72 871.546L1660.57 856.984ZM1641.43 873.525L1629.55 857.9L1613.64 872.174L1625.08 887.659L1641.43 873.525ZM1622.79 889.637L1611.38 874.197L1595.91 888.082L1606.89 903.374L1622.79 889.637ZM1604.6 905.353L1593.65 890.107L1578.59 903.622L1589.14 918.715L1604.6 905.353ZM1586.84 920.704L1576.32 905.658L1020.08 1404.74C1014 1410.2 1006.15 1412.97 997.973 1412.54C989.786 1412.1 982.278 1408.52 976.807 1402.46L358.411 716.843C353.672 711.585 350.89 704.809 350.583 697.754C350.184 688.582 353.872 679.809 360.701 673.685L1007.92 92.981C1007.36 92.3282 1006.78 91.6987 1006.18 91.0934L319.607 684.402C313.004 690.113 309.423 698.393 309.809 707.125L309.822 707.139C310.089 713.582 312.498 719.585 316.745 724.471L940.093 1442.04C945.085 1447.77 951.994 1451.23 959.581 1451.76C967.169 1452.29 974.517 1449.86 980.268 1444.89L1586.84 920.704ZM1008.47 89.1071C1009.06 89.7025 1009.63 90.3191 1010.17 90.9562L1015.42 86.2463C1014.83 85.7005 1014.23 85.1772 1013.6 84.6772L1008.47 89.1071ZM1015.92 82.6759C1016.52 83.1724 1017.11 83.689 1017.68 84.2252L1022.54 79.8572C1021.92 79.4131 1021.29 78.9924 1020.64 78.5955L1015.92 82.6759ZM1023.03 76.5312C1023.64 76.9322 1024.25 77.3533 1024.84 77.7945L1029.28 73.8133C1028.63 73.4687 1027.96 73.1466 1027.29 72.8478L1023.03 76.5312ZM1029.79 70.6831C1030.43 70.9945 1031.05 71.3249 1031.66 71.6741L1035.5 68.2301C1034.81 67.9879 1034.1 67.7699 1033.39 67.5766L1029.79 70.6831ZM1036.09 65.2456C1036.74 65.4647 1037.39 65.7034 1038.03 65.9614L1041.03 63.2754C1040.26 63.1485 1039.48 63.0511 1038.7 62.9835L1036.09 65.2456ZM1042.02 60.394C1042.62 60.5024 1043.22 60.6274 1043.82 60.7687L1045.49 59.2661C1044.85 59.2972 1044.21 59.3492 1043.57 59.4219C1043.05 59.7283 1042.53 60.0524 1042.02 60.394ZM1701.77 825.362C1703.46 828.878 1704.43 832.703 1704.6 836.691C1704.93 844.227 1702.41 851.406 1697.61 856.99C1696.88 855.824 1696.07 854.695 1695.19 853.611L1684.44 840.341L1701.77 825.362ZM1682.15 842.316L1692.85 855.514C1693.81 856.705 1694.68 857.954 1695.44 859.252C1695.01 859.659 1694.56 860.055 1694.1 860.439L1677.8 874.029L1664.73 857.371L1682.15 842.316ZM1662.43 859.356L1675.47 875.973L1658.11 890.453L1645.55 873.947L1662.43 859.356ZM1643.26 875.926L1655.79 892.389L1638.95 906.432L1626.87 890.088L1643.26 875.926ZM1624.58 892.066L1636.63 908.367L1620.27 922.004L1608.66 905.83L1624.58 892.066ZM1606.37 907.809L1617.95 923.94L1602.06 937.193L1590.87 921.197L1606.37 907.809ZM1588.57 923.185L1599.73 939.138L942.449 1487.26C930.028 1497.62 911.498 1495.97 901.115 1483.59L272.815 734.082C268.648 729.117 266.292 723.073 266.012 716.603V716.617C265.613 707.418 269.433 698.765 276.502 692.868L1002.22 87.6732C1002.81 88.1134 1003.39 88.5732 1003.96 89.0522L317.663 682.125C310.342 688.449 306.401 697.607 306.814 707.259C307.133 714.394 309.769 721.023 314.468 726.441L937.83 1444C943.327 1450.35 950.995 1454.17 959.382 1454.77C967.768 1455.35 975.902 1452.66 982.252 1447.17L1588.57 923.185ZM1006.28 87.048C1005.74 86.5754 1005.18 86.1194 1004.61 85.6804L1009.31 81.7598C1009.92 82.1108 1010.52 82.4811 1011.12 82.8703L1006.28 87.048ZM1013.48 80.8301C1012.92 80.4416 1012.34 80.0691 1011.76 79.713L1015.95 76.2179C1016.59 76.479 1017.22 76.7603 1017.84 77.0617L1013.48 80.8301ZM1020.31 74.9284C1019.73 74.6208 1019.14 74.3296 1018.55 74.0551L1022.12 71.0739C1022.79 71.2419 1023.46 71.4309 1024.11 71.6404L1020.31 74.9284ZM1026.75 69.3632C1026.15 69.1372 1025.54 68.9273 1024.93 68.7338L1027.52 66.5696C1027.99 66.6061 1028.46 66.6533 1028.94 66.7112C1029.19 66.742 1029.44 66.7758 1029.7 66.8125L1026.75 69.3632ZM1032.62 64.2889C1032.07 64.1685 1031.52 64.0611 1030.96 63.9669C1031.43 63.6597 1031.91 63.3669 1032.4 63.0886C1033 63.0162 1033.6 62.9618 1034.2 62.9251L1032.62 64.2889ZM1699.53 873.113C1699.36 869.235 1698.46 865.497 1696.89 862.037C1696.61 862.285 1696.33 862.529 1696.04 862.769L1679.67 876.417L1690.26 889.912C1691.17 891.07 1691.99 892.275 1692.74 893.519C1697.37 887.834 1699.85 880.555 1699.53 873.113ZM1687.88 891.789L1677.34 878.36L1659.95 892.87L1673.11 910.172L1688.33 897.9C1689.13 897.26 1689.88 896.584 1690.6 895.873C1689.81 894.454 1688.9 893.089 1687.88 891.789ZM1670.76 912.068L1657.62 894.805L1640.75 908.875L1653.43 926.037L1670.76 912.068ZM1651.08 927.932L1638.43 910.811L1622.05 924.474L1634.27 941.486L1651.08 927.932ZM1631.92 943.381L1619.73 926.409L1603.8 939.688L1615.59 956.544L1631.92 943.381ZM1613.23 958.446L1601.47 941.632L944.392 1489.58C930.694 1500.99 910.247 1499.18 898.798 1485.52L270.498 736.012C265.892 730.528 263.296 723.872 262.99 716.736C262.551 706.593 266.771 697.048 274.572 690.538L999.606 85.9241C999.062 85.5947 998.508 85.2805 997.946 84.9816L233.411 701.321C225.983 707.312 221.803 716.577 222.216 726.108C222.495 732.578 224.811 738.675 228.898 743.72L862.164 1525.17C867.222 1531.43 874.451 1535.35 882.478 1536.2C890.492 1537.05 898.372 1534.73 904.656 1529.66L1613.23 958.446ZM1000.49 82.9302C1001.02 83.2348 1001.54 83.5523 1002.05 83.8824L1006.38 80.2738C1005.82 80.0216 1005.25 79.7846 1004.67 79.5631L1000.49 82.9302ZM1007.34 77.4074C1007.88 77.6418 1008.41 77.8889 1008.93 78.1482L1012.64 75.0571C1012.04 74.8837 1011.44 74.727 1010.84 74.5872L1007.34 77.4074ZM1013.75 72.2385C1014.3 72.4023 1014.84 72.5791 1015.38 72.7688L1018.28 70.3538C1017.62 70.2716 1016.97 70.2093 1016.32 70.1668L1013.75 72.2385ZM1019.89 67.5427C1020.38 67.6204 1020.86 67.7079 1021.33 67.8049L1022.83 66.5574C1022.31 66.595 1021.8 66.6453 1021.29 66.7083C1020.82 66.9726 1020.35 67.2507 1019.89 67.5427ZM1691.99 898.708C1693.46 902.113 1694.29 905.765 1694.46 909.534C1694.79 916.997 1692.38 924.268 1687.86 930.044C1687.1 928.727 1686.26 927.453 1685.33 926.228L1674.93 912.569L1690.22 900.243C1690.83 899.751 1691.42 899.239 1691.99 898.708ZM1672.58 914.464L1682.93 928.065C1683.99 929.467 1684.94 930.94 1685.75 932.471C1684.75 933.5 1683.68 934.466 1682.54 935.36L1668.45 946.363L1655.22 928.46L1672.58 914.464ZM1652.87 930.355L1666.07 948.219L1648.79 961.706L1636.02 943.934L1652.87 930.355ZM1633.67 945.829L1646.41 963.562L1629.64 976.649L1617.32 959.016L1633.67 945.829ZM1614.96 960.918L1627.26 978.513L866.836 1572.06C860.287 1577.16 852.14 1579.42 843.9 1578.42C835.646 1577.42 828.285 1573.27 823.16 1566.75L184.955 753.358C180.935 748.233 178.659 742.096 178.379 735.613L178.393 735.6C177.953 725.589 182.413 715.938 190.307 709.774L993.346 82.9517C993.876 83.1407 994.4 83.3422 994.918 83.5559L231.508 698.978C223.334 705.554 218.741 715.751 219.194 726.228C219.5 733.35 222.043 740.046 226.542 745.597L859.808 1527.04C865.385 1533.93 873.333 1538.23 882.158 1539.17C890.998 1540.1 899.664 1537.55 906.559 1531.98L1614.96 960.918ZM997.571 81.4166C997.094 81.1954 996.612 80.984 996.125 80.7826L999.605 78.0657C1000.16 78.1832 1000.7 78.3138 1001.24 78.4573L997.571 81.4166ZM1004.09 76.1641C1003.6 76.0045 1003.11 75.8546 1002.62 75.7147L1005.1 73.7748C1005.69 73.8065 1006.29 73.854 1006.87 73.9172L1004.09 76.1641ZM1010.07 71.341C1009.65 71.261 1009.22 71.1886 1008.8 71.1237C1009.22 70.8603 1009.65 70.6077 1010.09 70.366C1010.54 70.3062 1011 70.2563 1011.46 70.2164L1010.07 71.341ZM1689.41 945.943C1689.25 942.281 1688.47 938.721 1687.11 935.379C1686.26 936.2 1685.36 936.981 1684.42 937.716L1670.24 948.786L1680.4 962.542C1681.36 963.836 1682.22 965.184 1682.99 966.576C1687.41 960.722 1689.74 953.445 1689.41 945.943ZM1677.98 964.34L1667.86 950.643L1650.55 964.155L1663.81 982.612L1676.78 972.793C1678.27 971.664 1679.65 970.417 1680.9 969.072C1680.07 967.427 1679.09 965.844 1677.98 964.34ZM1661.4 984.432L1648.17 966.011L1631.37 979.122L1644.19 997.457L1661.4 984.432ZM1641.78 999.284L1628.99 980.986L868.713 1574.43C861.538 1580.03 852.606 1582.51 843.554 1581.4C834.502 1580.31 826.421 1575.76 820.803 1568.6L182.599 755.208C178.193 749.577 175.69 742.841 175.384 735.733C174.905 724.764 179.79 714.18 188.456 707.418L989.824 81.9C989.338 81.782 988.847 81.674 988.353 81.5761L147.189 718.241C138.83 724.577 134.104 734.615 134.556 745.091L134.57 745.105C134.863 751.601 137.099 757.778 141.053 762.983L784.209 1608.32C794.872 1622.34 814.986 1625.08 829.044 1614.45L1641.78 999.284ZM991.482 79.2078C991.921 79.3258 992.358 79.4514 992.791 79.5845L995.53 77.4462C995.004 77.3981 994.477 77.3622 993.952 77.3386L991.482 79.2078ZM998.479 74.7917C998.603 74.8121 998.727 74.8331 998.85 74.8547L1000.09 73.8852C999.696 73.9241 999.301 73.9701 998.906 74.0233C998.522 74.2343 998.14 74.4535 997.763 74.6809C998.002 74.7155 998.24 74.7524 998.479 74.7917ZM1682.21 972.031C1683.48 975.313 1684.21 978.79 1684.37 982.351C1684.7 989.889 1682.44 997.175 1678.11 1003.1C1677.33 1001.64 1676.45 1000.22 1675.47 998.858L1665.56 985.051L1678.6 975.176C1679.89 974.203 1681.09 973.152 1682.21 972.031ZM1663.15 986.871L1673.02 1000.62C1674.18 1002.22 1675.18 1003.91 1676.03 1005.67C1674.53 1007.34 1672.85 1008.87 1671 1010.23L1659.19 1018.91L1645.91 999.919L1663.15 986.871ZM1643.5 1001.75L1656.75 1020.7L791.251 1656.83C784.169 1662.04 775.49 1664.16 766.797 1662.86C758.104 1661.56 750.45 1656.94 745.231 1649.88L97.1229 772.607C93.2358 767.335 91.0261 761.119 90.7333 754.596C90.254 743.64 95.246 733.203 104.085 726.707L982.751 80.9234C983.213 80.94 983.675 80.9657 984.137 81.0007L145.379 715.858C136.22 722.794 131.055 733.776 131.561 745.238C131.881 752.346 134.317 759.109 138.656 764.806L781.813 1610.15C793.487 1625.48 815.505 1628.5 830.881 1616.85L1643.5 1001.75ZM987.602 78.3778L988.757 77.5042C988.434 77.5395 988.112 77.5795 987.79 77.6242C987.421 77.8225 987.055 78.0285 986.691 78.2423C986.995 78.2838 987.299 78.329 987.602 78.3778ZM1679.32 1018.75C1679.17 1015.3 1678.49 1011.92 1677.31 1008.71C1675.93 1010.13 1674.43 1011.45 1672.8 1012.65L1660.92 1021.38L1670.56 1035.17C1671.56 1036.6 1672.45 1038.08 1673.23 1039.62C1677.46 1033.62 1679.66 1026.32 1679.32 1018.75ZM1668.07 1036.89L1658.48 1023.17L793.008 1659.24C785.287 1664.91 775.809 1667.25 766.318 1665.82C756.826 1664.39 748.466 1659.36 742.768 1651.65L94.6601 774.377C90.4137 768.627 88.0043 761.824 87.6981 754.716C87.1789 742.748 92.6235 731.366 102.288 724.271L977.325 81.1543C977.094 81.1825 976.863 81.213 976.633 81.2458C975.31 81.9496 974.025 82.7452 972.787 83.6309L60.9938 735.16C51.6622 741.83 46.3907 752.639 46.8965 764.087V764.101C47.1761 770.624 49.3592 776.894 53.193 782.232L706.254 1691.45C717.103 1706.56 738.269 1710.04 753.431 1699.22L1665.22 1047.66C1667.44 1046.08 1669.43 1044.27 1671.16 1042.27C1670.3 1040.4 1669.27 1038.6 1668.07 1036.89ZM1672.41 1045.38C1670.78 1047.11 1668.97 1048.71 1666.98 1050.12L755.175 1701.68C738.668 1713.47 715.599 1709.68 703.778 1693.21L50.717 783.989C46.537 778.171 44.1808 771.329 43.8613 764.221C43.329 751.76 49.0665 739.979 59.2235 732.724L966.793 84.1994C965.036 85.0291 963.336 86.0123 961.711 87.1452L17.9027 743.64C8.09178 750.456 2.54088 761.665 3.06004 773.592H3.04674C3.32628 780.128 5.46934 786.451 9.24998 791.856L667.263 1733.02C672.574 1740.6 680.521 1745.67 689.653 1747.3C698.799 1748.92 708.011 1746.9 715.625 1741.6L1659.45 1085.12C1669.24 1078.29 1674.8 1067.1 1674.28 1055.15C1674.13 1051.8 1673.5 1048.52 1672.41 1045.38Z" fill="#F77D00"/>
</svg>
