<svg width="150" height="26" viewBox="0 0 150 26" fill="none" xmlns="http://www.w3.org/2000/svg">
<g clip-path="url(#clip0_189_45)">
<path fill-rule="evenodd" clip-rule="evenodd" d="M146.297 13.5167C147.649 13.2755 148.382 12.1386 148.382 10.8226C148.382 8.78613 146.954 7.8881 145.069 7.8881H141.363V17.424H143.842V13.7564H143.868L146.207 17.424H149.294L146.297 13.5167ZM144.081 12.1549H143.841V9.77676H144.081C144.89 9.77676 145.8 9.9285 145.8 10.9658C145.8 12.0031 144.89 12.1549 144.081 12.1549ZM108.228 13.5167C109.582 13.2755 110.315 12.1386 110.315 10.8226C110.315 8.78613 108.886 7.8881 107.001 7.8881H103.296V17.424H105.775V13.7564H105.801L108.14 17.424H111.225L108.228 13.5167ZM106.012 12.1549H105.772V9.77676H106.012C106.822 9.77676 107.733 9.9285 107.733 10.9658C107.733 12.0031 106.822 12.1549 106.012 12.1549ZM53.6062 13.5167C54.9595 13.2755 55.6926 12.1386 55.6926 10.8226C55.6926 8.78613 54.2638 7.8881 52.3791 7.8881H48.6733V17.424H51.1526V13.7564H51.1775L53.5175 17.424H56.603L53.6062 13.5167ZM51.39 12.1549H51.1495V9.77676H51.39C52.2001 9.77676 53.1098 9.9285 53.1098 10.9658C53.1105 12.0031 52.2001 12.1549 51.39 12.1549ZM63.8908 7.88888H61.1842L57.5166 17.4248H60.1477L60.8052 15.768H64.2199L64.8394 17.4248H67.4829L63.8908 7.88888ZM61.4877 13.8692L62.5118 10.8335H62.5367L63.5491 13.8692H61.4877ZM68.7404 7.88888H71.2189L75.9464 13.719H75.9713V7.88888H78.4506V17.424H75.9713L71.2446 11.5814H71.2189V17.424H68.7404V7.88888ZM90.2557 12.1004C90.2316 13.491 90.1296 14.6801 89.283 15.8692C88.3468 17.1719 86.9422 17.7407 85.3492 17.7407C82.3517 17.7407 80.2653 15.705 80.2653 12.7074C80.2653 9.60867 82.3641 7.57216 85.4372 7.57216C87.3982 7.57216 88.9149 8.45773 89.7366 10.2406L87.3842 11.2273C87.0433 10.3168 86.3235 9.70983 85.3235 9.70983C83.6925 9.70983 82.8442 11.2654 82.8442 12.7199C82.8442 14.2 83.7306 15.705 85.3609 15.705C86.4356 15.705 87.2581 15.1486 87.3593 14.0482H85.336V12.1004H90.2557ZM94.5388 9.98765V11.5814H97.3333V13.6809H94.5388V15.3252H97.4858V17.424H92.0595V7.88888H97.4858V9.98765H94.5388ZM117.349 7.57216C114.604 7.57216 112.075 9.59622 112.075 12.4794C112.075 15.5657 114.288 17.7407 117.349 17.7407C120.41 17.7407 122.623 15.5657 122.623 12.4794C122.623 9.59622 120.094 7.57216 117.349 7.57216ZM117.349 15.3377C115.869 15.3377 114.656 14.1362 114.656 12.4926C114.656 11.1775 115.869 9.97597 117.349 9.97597C118.829 9.97597 120.042 11.1775 120.042 12.4926C120.042 14.1362 118.829 15.3377 117.349 15.3377ZM128.259 13.6809L130.574 7.88888H133.267L129.194 17.424H127.272L123.263 7.88888H125.957L128.259 13.6809ZM136.719 9.98765V11.5814H139.514V13.6809H136.719V15.3252H139.666V17.424H134.24V7.88888H139.666V9.98765H136.719ZM25.0071 23.1779C36.771 23.1779 46.3084 18.6216 46.3084 13C46.3084 7.37917 36.771 2.82211 25.0071 2.82211C13.2425 2.82211 3.70508 7.37917 3.70508 13C3.70508 18.6216 13.2425 23.1779 25.0071 23.1779Z" fill="white"/>
<path fill-rule="evenodd" clip-rule="evenodd" d="M25.0069 22.125C36.152 22.125 45.1876 18.0395 45.1876 12.9992C45.1876 7.95968 36.152 3.87421 25.0069 3.87421C13.8617 3.87421 4.82617 7.95968 4.82617 12.9992C4.82617 18.0395 13.8617 22.125 25.0069 22.125Z" fill="black" stroke="white" stroke-miterlimit="2.613"/>
<path fill-rule="evenodd" clip-rule="evenodd" d="M14.6579 10.888H16.1738L15.8174 11.9588H12.8805L14.503 7.09357H15.9232L14.6579 10.888ZM18.2368 11.1137L17.6189 11.9588H16.2773L19.7706 7.09357H21.1511L21.362 11.9588H20.0134L19.9791 11.1137H18.2368ZM23.6234 7.09357H25.0124L25.5922 9.82033L26.5354 7.09357H27.8622L26.2396 11.9588H24.758L24.1666 9.47404L23.3588 11.9588H22.0016L23.6234 7.09357ZM29.0543 7.09357H30.9726C32.3274 7.09357 33.0853 8.15735 32.6324 9.52618C32.1048 11.1215 31.164 11.958 29.8154 11.958H27.4326L29.0543 7.09357ZM19.2554 18.2255H17.6812L17.0181 16.3548H16.9123L16.2882 18.2255H14.8991L16.5217 13.3603H18.7224C19.6834 13.3603 20.2601 13.8186 19.9138 14.8575C19.6897 15.5283 19.1216 16.1088 18.3909 16.2326L19.2554 18.2255ZM25.1175 15.9509C24.7642 17.5283 23.7852 18.3874 22.2904 18.3874C20.8842 18.3874 20.0811 17.1734 20.439 15.6412C20.7822 14.1696 21.8935 13.1992 23.2234 13.1992C24.5541 13.1992 25.5074 14.2085 25.1175 15.9509ZM27.3999 16.1291L29.4108 13.3603H30.9399L27.3641 18.2255H26.0739L25.9914 13.3603H27.3657L27.3999 16.1291ZM32.648 14.4319L32.3772 15.2443H33.8028L33.4456 16.3158H32.02L31.7399 17.1547H33.2433L32.8861 18.2255H29.9944L31.6161 13.3603H34.5086L34.1515 14.4319H32.648ZM10.7047 15.1517L14.3801 13.8327L14.2097 14.3758L11.9607 15.182H13.9459L13.5583 16.3291H10.3164L10.7047 15.1517ZM37.2198 10.0693L33.5437 11.3884L33.7141 10.8452L35.9631 10.039H33.9779L34.3655 8.89117H37.6074L37.2198 10.0693ZM38.4611 18.2255H36.8868L36.2238 16.3548H36.1179L35.4938 18.2255H34.1048L35.7273 13.3603H37.928C38.8891 13.3603 39.4657 13.8186 39.1194 14.8575C38.8953 15.5283 38.3272 16.1088 37.5965 16.2326L38.4611 18.2255Z" fill="white"/>
<path fill-rule="evenodd" clip-rule="evenodd" d="M19.9637 8.59626H19.9504L18.9116 10.1448H19.9637V8.59626ZM29.2723 10.888H29.3696C30.1244 10.888 30.7524 10.4748 31.0684 9.52619C31.3594 8.65462 31.1968 8.16437 30.3836 8.16437H30.1805L29.2723 10.888ZM17.1855 15.5369H17.3085C17.7217 15.5369 18.212 15.4599 18.3886 14.9307C18.5653 14.4015 18.3124 14.3245 17.8999 14.3245H17.591L17.1855 15.5369ZM22.0142 15.7089C21.843 16.5439 21.8967 17.1602 22.4515 17.1602C23.0064 17.1602 23.4173 16.5781 23.569 15.74C23.6904 15.0692 23.625 14.4249 23.0702 14.4249C22.5161 14.4249 22.1729 14.9369 22.0142 15.7089ZM36.3912 15.5369H36.5141C36.9266 15.5369 37.4176 15.4599 37.5942 14.9307C37.7709 14.4015 37.518 14.3245 37.1048 14.3245H36.7966L36.3912 15.5369Z" fill="black"/>
</g>
<defs>
<clipPath id="clip0_189_45">
<rect width="149" height="26" fill="white" transform="translate(0.5)"/>
</clipPath>
</defs>
</svg>
