<svg width="108" height="40" viewBox="0 0 108 40" fill="none" xmlns="http://www.w3.org/2000/svg">
<path fill-rule="evenodd" clip-rule="evenodd" d="M14.6484 26.0226C18.0251 26.0226 17.6037 29.6107 17.6636 29.7615H14.1659C14.1659 29.731 14.1659 28.6757 13.2016 28.6757H6.14702C4.76005 28.6757 4.76005 31.0886 6.0261 31.1485C8.31756 31.2688 12.0558 31.2383 15.1309 31.3891C16.5777 31.4801 17.8444 32.4145 17.8444 33.9823C17.8444 34.0421 17.9048 36.6958 17.9048 36.6958C17.9347 38.5042 16.3676 39.3488 14.8298 39.3488H4.76005C3.07199 39.3488 1.68502 38.1133 1.44378 36.4539C1.38332 36.0543 1.38332 35.6479 1.44378 35.2483H4.94083C4.94083 35.2483 4.88037 36.7556 6.38766 36.7556C9.04067 36.7556 10.548 36.8167 12.9597 36.7556C14.7687 36.7251 15.0698 34.1026 12.9597 33.9823C10.4276 33.862 8.49774 33.7716 5.30239 33.6806C3.13185 33.6207 1.5635 32.7767 1.5635 31.0276V28.3141C1.5635 27.0481 2.76969 26.0226 4.45776 26.0226H14.6484ZM22.9702 26.4447C22.9097 26.5356 22.9702 31.7513 22.9702 35.7314C22.9702 36.3043 23.3318 36.7556 24.0549 36.7556H30.8083C31.532 36.7556 31.7128 36.1534 31.7128 35.671C31.7733 32.1134 31.7733 26.5961 31.7128 26.5057H35.5714C35.5714 26.5057 35.602 33.1383 35.6319 36.6958C35.6624 38.294 34.3054 39.3183 32.3761 39.3488C28.7581 39.4098 26.9491 39.3488 23.5724 39.3488C21.2205 39.3488 19.2008 38.6556 19.1703 36.6958C19.1403 32.6552 19.0499 26.5356 19.1098 26.4447H22.9702ZM49.0179 26.5057C52.5754 26.5057 52.9369 29.0989 52.9369 29.8824C52.9369 31.9925 51.1585 32.8671 51.0675 32.8976C51.098 32.8976 53.1782 33.6812 53.1782 35.7314C53.1782 36.8771 52.9974 39.3183 49.0173 39.3488C44.435 39.4098 37.0482 39.3488 37.0183 39.3488V26.5057H49.0179ZM48.0535 31.8111C48.7766 31.8111 49.38 31.3891 49.38 30.4248C49.38 29.5808 48.6868 29.0989 47.9332 29.0989C45.4011 29.0989 40.969 29.0378 40.8787 29.0989V31.8111C40.9684 31.8716 45.2796 31.8111 48.0535 31.8111ZM48.1134 36.7556C48.867 36.7556 49.6207 36.3348 49.6207 35.3693C49.6207 34.4642 48.867 33.8925 48.0529 33.9218C45.701 33.9524 40.9678 33.9218 40.8775 33.9829V36.7562C40.9684 36.8161 45.0384 36.7556 48.1134 36.7556ZM59.9927 26.5057H64.6947L71.6302 39.3488H67.8302L66.4439 36.7556H58.3639L56.9165 39.3488H53.0579L59.9927 26.5057ZM62.283 29.3395L59.7509 33.9823H64.9372L62.283 29.3395ZM83.6292 29.0989C84.5936 29.0989 85.1969 30.2434 85.1969 31.1485C85.1969 32.0536 84.563 33.0179 83.6292 33.0179C80.8547 33.0179 76.6339 33.0485 76.5746 33.0179V29.0989C76.6644 29.0378 81.0959 29.0989 83.6292 29.0989ZM76.5746 35.3687C76.604 35.3687 81.2174 35.3992 83.5089 35.3687C84.5026 35.3381 85.3167 36.3941 85.3167 37.2992V39.3488H88.7539V37.359C88.7539 35.4896 86.7946 34.4043 86.7641 34.4043C86.8551 34.3738 88.6946 33.1383 88.6946 31.0886C88.6946 28.6757 87.7302 26.5057 84.1721 26.5057H72.7154V39.3488H76.5746V35.3687ZM93.9402 26.4447C93.8492 26.565 94 31.7513 94 35.7314C94 36.3043 94.3017 36.7556 95.0859 36.7556H101.778C102.502 36.7556 102.683 36.1534 102.683 35.671C102.743 32.1134 102.804 26.5961 102.743 26.5057H106.543C106.543 26.5057 106.573 33.1383 106.603 36.6958C106.634 38.294 105.337 39.3183 103.408 39.3488C99.7293 39.4098 97.9197 39.3488 94.604 39.3488C92.2527 39.3488 90.1719 38.6861 90.1426 36.6958C90.0816 32.6552 90.0816 26.5356 90.1426 26.4447H93.9402Z" fill="white"/>
<path d="M54.8997 0.860892C50.0677 0.860892 45.6087 2.1431 42.3224 4.08857C38.9564 6.08132 36.8326 8.76068 36.8326 11.4466C36.8326 14.1266 38.9469 16.7766 42.2997 18.7448C45.5872 20.6747 50.0558 21.9408 54.8991 21.9408C59.7813 21.9408 64.2684 20.6771 67.5679 18.7502C70.9387 16.7808 73.0572 14.1284 73.0572 11.4466C73.0572 8.75768 70.9291 6.07593 67.5458 4.08258C64.2505 2.14071 59.7729 0.860892 54.8997 0.860892ZM42.0464 3.62046C45.41 1.6289 49.9678 0.316162 54.8997 0.316162C59.8711 0.316162 64.4456 1.62591 67.8212 3.61388C71.3697 5.7048 73.6025 8.55476 73.6025 11.4454C73.6025 14.3313 71.3787 17.1531 67.8421 19.2189C64.4666 21.1907 59.8813 22.4843 54.8997 22.4843C49.9588 22.4843 45.392 21.1877 42.0261 19.2117C38.5075 17.1459 36.2891 14.3283 36.2891 11.4454C36.2885 8.55835 38.5159 5.71079 42.0464 3.62046Z" fill="white"/>
<path fill-rule="evenodd" clip-rule="evenodd" d="M49.8802 7.43177L58.2751 9.25691L49.9712 10.9899L48.1467 15.5518L46.3221 10.8989L38.6582 9.25691L46.3221 7.61435L48.0557 3.23495L49.8802 7.43177ZM59.0958 11.7196L62.6533 12.4499L59.0958 13.2712L58.3649 15.1867L57.5442 13.1796L54.2596 12.4499L57.5442 11.7196L58.2751 9.89503L59.0958 11.7196ZM67.7636 11.7196L71.3211 12.4499L67.7636 13.2712L67.0327 15.1867L66.212 13.1796L63.0178 12.4499L66.212 11.7196L67.0327 9.89503L67.7636 11.7196ZM65.4829 6.33692L69.0404 7.06662L65.4829 7.79632L64.752 9.80404L63.9313 7.79632L60.6467 7.06662L63.9313 6.33692L64.661 4.51178L65.4829 6.33692ZM62.1061 16.008L65.7564 16.8293L62.1971 17.559L61.3764 19.4751L60.5546 17.559L57.3616 16.8293L60.5546 16.0996L61.3764 14.2744L62.1061 16.008ZM52.7086 16.6467L56.2674 17.468L52.7086 18.1977L51.9783 20.1138L51.1577 18.1067L47.8731 17.468L51.1577 16.7377L51.8874 14.8221L52.7086 16.6467Z" fill="white"/>
</svg>
