<svg width="1023" height="834" viewBox="0 0 1023 834" fill="none" xmlns="http://www.w3.org/2000/svg">
<path opacity="0.1" fill-rule="evenodd" clip-rule="evenodd" d="M368.31 90.9692C410.032 75.3186 453.759 64.9616 497.835 60.5598C543.162 56.0142 589.593 57.5966 634.28 66.6014C679.606 75.7214 723.566 92.6379 762.06 118.185C840.764 170.431 886.555 252.683 882.369 346.817C880.159 396.473 864.575 444.547 839.659 487.528C810.876 537.156 770.346 579.648 724.148 613.769C630.093 683.219 510.366 720.015 392.994 712.621C342.202 709.428 291.497 697.862 245.589 675.796C203.722 655.658 166.682 627.205 138.393 590.466C86.8733 523.577 74.1389 440.951 96.555 360.684C107.429 321.758 126.094 285.164 149.79 252.366C175.666 216.577 207.705 185.218 243.234 158.808C275.099 135.131 310.046 115.193 346.883 99.5138C301.992 115.682 254.805 121.407 219.364 109.554C202.443 122.04 185.522 134.469 168.746 146.782C169.008 147.818 169.269 148.882 169.502 149.947C180.492 199.804 143.481 251.791 109.58 284.905C85.4487 308.496 49.5713 335.251 15.1477 346.328C10.0888 361.834 5.02981 377.284 0 392.618C12.7344 398.17 24.1316 406.226 33.6969 416.928C82.5123 471.389 67.3937 573.895 23.2884 630.916C32.9409 645.847 42.6226 660.75 52.2171 675.48C159.006 636.583 295.945 710.061 309.784 823.729C339.294 827.21 368.805 830.634 398.344 834C458.614 712.391 655.213 670.014 771.102 736.126C798.548 716.275 825.936 696.395 853.091 676.631C781.715 554.533 896.063 409.563 1023 379.182C1022.83 356.771 1022.59 334.388 1022.48 311.977C997.618 306.942 973.342 297.276 951.623 284.876C873.734 240.369 821.371 154.349 873.501 77.5914C856.318 67.4646 839.194 57.3664 822.331 47.3834C786.715 62.3436 735.196 69.1907 699.842 70.1113C641.665 71.6073 563.194 59.1502 541.534 0C519.205 2.76187 496.876 5.52377 474.547 8.19933C454.602 40.5363 413.869 70.8018 368.252 90.9692H368.31Z" fill="white"/>
</svg>
