<svg width="109" height="20" viewBox="0 0 109 20" fill="none" xmlns="http://www.w3.org/2000/svg">
<path d="M88.6063 8.11435V19.1265H92.1226V11.7851H104.982V19.1265H108.499V8.11435H88.6063ZM91.7207 4.54421H105.284C107.193 4.19223 108.549 2.48258 108.951 0.873505H88.0537C88.4556 2.48258 89.8621 4.14194 91.7207 4.54421ZM77.9066 19.1265C79.6647 18.3722 80.6192 17.0648 81.021 15.5563H65.1976V0.923788H61.631V19.1265H77.9066ZM35.2586 4.49393H47.8169C49.7257 3.94081 51.283 2.48258 51.6848 0.923788H31.7925V11.6845H48.068V15.4558H35.3088C33.2995 16.0089 31.5916 17.3666 30.7376 19.1265H51.5844V8.11435H35.3088L35.2586 4.49393ZM4.31492 4.54421H17.8779C19.7867 4.19223 21.1933 2.48258 21.5449 0.873505H0.597656C0.999522 2.48258 2.40605 4.14194 4.31492 4.54421ZM4.31492 11.7348H17.8779C19.7867 11.3828 21.1933 9.67315 21.5449 8.06407H0.597656C0.999522 9.67315 2.40605 11.3325 4.31492 11.7348ZM4.31492 19.1265H17.8779C19.7867 18.7745 21.1933 17.0648 21.5449 15.4558H0.597656C0.999522 17.0648 2.40605 18.7745 4.31492 19.1265Z" fill="white"/>
</svg>
